<svg width="163" height="247" viewBox="0 0 163 247" fill="none" xmlns="http://www.w3.org/2000/svg">
    <path
        d="M68.0869 246.041H94.9131H112.112C119.49 246.041 127.311 240.523 129.493 233.778L161.363 135.283C163.546 128.538 163.546 117.503 161.363 110.758L129.493 12.2627C127.311 5.5174 119.49 5.57453e-05 112.112 5.57453e-05H94.9139H68.0877H50.8876C43.5107 5.57453e-05 35.689 5.5174 33.5069 12.2627L1.63661 110.758C-0.545538 117.503 -0.545538 128.538 1.63661 135.283L33.5069 233.778C35.689 240.523 43.5107 246.041 50.8876 246.041H68.0869Z"
        fill="#D2CDBE" />
    <path
        d="M90.6886 40.5005C89.4583 40.5005 88.4528 39.5382 88.4528 38.3607V36.5546C88.4528 35.3779 89.4583 34.4148 90.6886 34.4148H122.825L116.347 12.8247H45.764L39.287 34.4148H72.3134C73.5437 34.4148 74.5492 35.3779 74.5492 36.5546V38.3607C74.5492 39.5382 73.5437 40.5005 72.3134 40.5005H37.4613L34.362 50.8317L34.3289 50.9404H127.782L124.65 40.5005H90.6886Z"
        fill="#8D191E" />
    <path
        d="M90.6879 211.626C89.4584 211.626 88.4529 210.663 88.4529 209.486V207.681C88.4529 206.505 89.4584 205.542 90.6879 205.542H124.648L127.781 195.1H34.3274L34.3605 195.21L37.4606 205.542H72.3119C73.5422 205.542 74.5477 206.505 74.5477 207.681V209.486C74.5477 210.663 73.5422 211.626 72.3119 211.626H39.2855L45.7626 233.216H116.345L122.823 211.626H90.6879Z"
        fill="#8D191E" />
</svg>