<svg width="163" height="247" viewBox="0 0 163 247" fill="none" xmlns="http://www.w3.org/2000/svg">
    <path
        d="M68.0863 246.041H94.9125H112.112C119.489 246.041 127.31 240.523 129.493 233.778L161.363 135.283C163.546 128.538 163.546 117.503 161.363 110.758L129.493 12.2627C127.31 5.51738 119.489 3.63152e-05 112.112 3.63152e-05H94.9133H68.0871H50.887C43.5101 3.63152e-05 35.6884 5.51738 33.5063 12.2627L1.63602 110.758C-0.54534 117.503 -0.54534 128.538 1.63602 135.283L33.5063 233.778C35.6884 240.523 43.5101 246.041 50.887 246.041H68.0863Z"
        fill="#34592C" />
    <path
        d="M90.6861 40.5005C89.4566 40.5005 88.4511 39.5382 88.4511 38.3607V36.5546C88.4511 35.3779 89.4566 34.4148 90.6861 34.4148H122.822L116.345 12.8247H45.7623L39.2853 34.4148H72.3117C73.542 34.4148 74.5475 35.3779 74.5475 36.5546V38.3607C74.5475 39.5382 73.542 40.5005 72.3117 40.5005H37.4596L34.3603 50.8317L34.3271 50.9404H127.78L124.648 40.5005H90.6861Z"
        fill="#D2CDBE" />
    <path
        d="M90.6872 211.626C89.4569 211.626 88.4514 210.663 88.4514 209.486V207.681C88.4514 206.505 89.4569 205.542 90.6872 205.542H124.648L127.78 195.1H34.3267L34.3606 195.21L37.4607 205.542H72.312C73.5415 205.542 74.547 206.505 74.547 207.681V209.486C74.547 210.663 73.5415 211.626 72.312 211.626H39.2848L45.7619 233.216H116.345L122.822 211.626H90.6872Z"
        fill="#D2CDBE" />
</svg>