<svg width="149" height="236" viewBox="0 0 149 236" fill="none" xmlns="http://www.w3.org/2000/svg">
<path d="M64.5186 69.4453H70.9048V58.9663H69.6455V56.6277H70.9048V51.141C68.2697 51.141 66.1376 47.9634 66.1376 44.0353C66.1376 42.1213 67.0227 40.5728 68.1164 40.5728V37.1095C62.0505 37.1095 57.1431 40.2072 57.1431 44.0353V56.6277C61.2201 56.6277 64.5186 62.3605 64.5186 69.4453Z" fill="white"/>
<path d="M74.6378 76.416L77.8981 73.2679L74.6378 70.1198L71.3774 73.2679L74.6378 76.416Z" fill="white"/>
<path d="M92.132 56.6277V44.0353C92.132 40.2072 87.2246 37.1095 81.1587 37.1095V40.572C82.2524 40.572 83.1375 42.1213 83.1375 44.0353C83.1375 47.9627 81.0054 51.141 78.3704 51.141V56.6277H79.6296V58.9663H78.3704V69.4453H84.7565C84.7565 62.3605 88.055 56.6277 92.132 56.6277Z" fill="white"/>
<path d="M57.144 179.134V191.727C57.144 195.555 62.0515 198.652 68.1174 198.652V195.19C67.0237 195.19 66.1386 193.641 66.1386 191.727C66.1386 187.799 68.2707 184.621 70.9057 184.621V179.134H69.6465V176.796H70.9057V166.317H64.5196C64.5196 173.401 61.2211 179.134 57.144 179.134Z" fill="white"/>
<path d="M84.7572 166.317H78.3711V176.796H79.6303V179.134H78.3711V184.621C81.0061 184.621 83.1382 187.798 83.1382 191.727C83.1382 193.641 82.2531 195.189 81.1594 195.189V198.652C87.2253 198.652 92.1328 195.555 92.1328 191.727V179.134C88.0557 179.134 84.7572 173.401 84.7572 166.317Z" fill="white"/>
<path d="M74.6383 159.346L71.3779 162.494L74.6383 165.643L77.8986 162.494L74.6383 159.346Z" fill="white"/>
<path d="M84.7566 69.4446L84.7487 69.436L83.5801 73.6016L85.823 74.2305L87.3722 68.7092L84.7566 69.4446Z" fill="white"/>
<path d="M64.5119 69.4446L64.5198 69.436L65.6883 73.6016L63.4455 74.2305L61.8962 68.7092L64.5119 69.4446Z" fill="white"/>
<path d="M84.76 166.3L84.7521 166.308L83.5835 162.143L85.8264 161.514L87.3756 167.035L84.76 166.3Z" fill="white"/>
<path d="M64.5153 166.3L64.5232 166.308L65.6918 162.143L63.4489 161.514L61.8997 167.035L64.5153 166.3Z" fill="white"/>
<path d="M77.8981 73.2386L74.6378 70.0905L71.3767 73.2386L74.6378 76.3867L77.8981 73.2386Z" fill="white"/>
<path d="M71.3779 162.463L74.6383 165.611L77.8993 162.463L74.6383 159.315L71.3779 162.463Z" fill="white"/>
<path d="M57.144 179.105V191.697C57.144 195.525 62.0515 198.623 68.1174 198.623V195.16C67.0237 195.16 66.1386 193.611 66.1386 191.697C66.1386 187.77 68.2707 184.592 70.9057 184.592V179.105H69.6465V176.766H70.9057V166.287H64.5196C64.5196 173.372 61.2211 179.105 57.144 179.105Z" fill="white"/>
<path d="M84.7572 166.287H78.3711V176.766H79.6303V179.105H78.3711V184.592C81.0061 184.592 83.1382 187.769 83.1382 191.697C83.1382 193.611 82.2531 195.16 81.1594 195.16V198.623C87.2253 198.623 92.1328 195.525 92.1328 191.697V179.105C88.0557 179.105 84.7572 173.372 84.7572 166.287Z" fill="white"/>
<path d="M64.5215 69.4141H70.9048V58.935H69.6455V56.5964H70.9048V51.1098C68.2697 51.1098 66.1376 47.9322 66.1376 44.0041C66.1376 42.09 67.0234 40.5415 68.1164 40.5415V37.0782C62.0505 37.0782 57.1431 40.176 57.1431 44.0041V56.5964C61.2187 56.5964 64.5157 62.3256 64.5186 69.4061L64.5193 69.4054L64.5215 69.4141Z" fill="white"/>
<path fill-rule="evenodd" clip-rule="evenodd" d="M112.64 132.7H129.172V117.881H129.171V103.062H112.639V104.389L112.64 117.881V131.373V132.7ZM107.153 155.478H107.603V130.743L103.106 126.966L96.8097 121.677H92.1325V123.458V128.135H96.8097H103.106V151.97L107.153 155.478ZM82.0586 139.468L96.8097 148.732V133.801H92.1325V139.468H82.0586ZM52.4665 133.801V148.732L67.2176 139.468H57.1436V133.801H52.4665ZM46.1703 151.97V128.135H52.4665H57.1436V123.458V121.677H52.4665L46.1703 126.966L41.673 130.743V155.478H42.1227L46.1703 151.97ZM42.122 80.2837H41.6723V105.019L46.1696 108.797L52.4658 114.085H57.1429V112.304V107.627H52.4658H46.1696V83.7916L42.122 80.2837ZM36.636 132.7V131.373L36.6353 117.881V104.389V103.062H20.104L20.1047 117.881V132.7H36.636ZM67.2168 96.2941L52.4658 87.0297V101.961H57.1429V96.2941H67.2168ZM96.809 101.961V87.0297L82.0579 96.2941H92.1318V101.961H96.809ZM103.105 83.7916V107.627H96.809H92.1318V112.304V114.085H96.809L103.105 108.797L107.602 105.019V80.2837H107.153L103.105 83.7916ZM132.517 99.712V117.881L132.518 136.05H113.27V159.346L103.106 165.013V204.229H97.5292V166.991L93.3917 168.97V175.626C90.0638 175.626 87.3704 171.771 87.3661 167.004L87.3755 167.006L87.3704 166.99L91.5928 165.642L81.1591 149.272V141.537H74.6384H68.117V149.272L57.6833 165.642L61.905 166.989L63.4485 161.485L65.6914 162.113L64.5228 166.279L64.5156 166.27L61.91 167.004C61.9064 171.771 59.2124 175.626 55.8844 175.626V168.97L51.7469 166.991V204.229H46.1703V165.013L36.0064 159.346V136.05H16.758L16.7573 117.881V99.712H36.0057V76.4161L46.1696 70.7495V31.5332H51.7462V68.7707L55.8837 66.7919V60.1359C59.1937 60.1359 61.8741 63.9511 61.9079 68.6822L61.8964 68.6793L61.9086 68.7239C61.9086 68.7398 61.91 68.7549 61.91 68.7707L57.6826 70.1199L68.1163 86.49V94.2253H74.6377H81.1584V86.49L91.5921 70.1199L87.3647 68.7707C87.3647 68.7455 87.3675 68.7203 87.3675 68.6952L85.8234 74.2013L83.5805 73.5724L84.7469 69.4154H78.3701V58.9364H79.6293V56.5978H78.3701V51.1111C81.0059 51.1111 83.1372 47.9328 83.1372 44.0054C83.1372 42.0914 82.2522 40.5429 81.1584 40.5429V37.0796C87.2243 37.0796 92.1318 40.1773 92.1318 44.0054V56.5978C88.0547 56.5978 84.7562 62.3306 84.7562 69.4154L87.3675 68.6808C87.4021 63.9503 90.0817 60.1359 93.391 60.1359V66.7919L97.5285 68.7707V31.5332H103.105V70.7495L113.269 76.4161V99.712H132.517ZM74.6374 133.737C82.5555 133.737 88.974 127.318 88.974 119.4C88.974 111.482 82.5555 105.063 74.6374 105.063C66.7193 105.063 60.3 111.482 60.3 119.4C60.3 127.318 66.7193 133.737 74.6374 133.737Z" fill="white"/>
<path d="M87.3706 166.99L85.8264 161.485L83.5835 162.114L84.7521 166.279L84.76 166.271L87.3663 167.004C87.3663 167 87.3655 166.996 87.3655 166.992L87.3706 166.99Z" fill="white"/>
<path d="M63.4449 74.2012L65.6878 73.5723L64.5214 69.4153H64.5185V69.4103L64.5113 69.4153L61.9072 68.6821C61.9072 68.6965 61.9087 68.7095 61.9087 68.7238L63.4449 74.2012Z" fill="white"/>
<path d="M54.2348 21.5522C54.2348 24.765 51.6307 27.3691 48.4185 27.3691C45.2057 27.3691 42.6016 24.765 42.6016 21.5522C42.6016 18.34 45.2057 15.7359 48.4185 15.7359C51.6307 15.7359 54.2348 18.34 54.2348 21.5522Z" fill="white"/>
<path d="M106.674 21.5522C106.674 24.765 104.07 27.3691 100.857 27.3691C97.6446 27.3691 95.0405 24.765 95.0405 21.5522C95.0405 18.34 97.6446 15.7359 100.857 15.7359C104.07 15.7359 106.674 18.34 106.674 21.5522Z" fill="white"/>
<path d="M106.674 214.208C106.674 217.422 104.07 220.025 100.858 220.025C97.6451 220.025 95.041 217.422 95.041 214.208C95.041 210.996 97.6451 208.392 100.858 208.392C104.07 208.392 106.674 210.996 106.674 214.208Z" fill="white"/>
<path d="M54.236 214.208C54.236 217.422 51.6319 220.025 48.4197 220.025C45.2069 220.025 42.6028 217.422 42.6028 214.208C42.6028 210.996 45.2069 208.392 48.4197 208.392C51.6319 208.392 54.236 210.996 54.236 214.208Z" fill="white"/>
</svg>
