<svg width="31" height="9" viewBox="0 0 31 9" fill="none" xmlns="http://www.w3.org/2000/svg">
<path d="M30.7379 4.23431C30.7379 6.57218 28.8433 8.4668 26.5062 8.4668C24.169 8.4668 22.2737 6.57218 22.2737 4.23431C22.2737 1.89717 24.169 0.00255023 26.5062 0.00255023C28.8433 0.00255023 30.7379 1.89717 30.7379 4.23431Z" fill="white"/>
<path d="M9.15516 4.23431C9.15516 6.57218 7.26055 8.4668 4.9234 8.4668C2.58625 8.4668 0.690918 6.57218 0.690918 4.23431C0.690918 1.89717 2.58625 0.00255023 4.9234 0.00255023C7.26055 0.00255023 9.15516 1.89717 9.15516 4.23431Z" fill="white"/>
<path d="M19.9176 4.23431C19.9176 6.57218 18.023 8.4668 15.6859 8.4668C13.3487 8.4668 11.4534 6.57218 11.4534 4.23431C11.4534 1.89717 13.3487 0.00255023 15.6859 0.00255023C18.023 0.00255023 19.9176 1.89717 19.9176 4.23431Z" fill="white"/>
</svg>
