<svg width="150" height="236" viewBox="0 0 150 236" fill="none" xmlns="http://www.w3.org/2000/svg">
<path d="M90.316 87.7728C90.316 95.6909 83.8975 102.109 75.9794 102.109C68.0613 102.109 61.6421 95.6909 61.6421 87.7728C61.6421 79.8547 68.0613 73.4361 75.9794 73.4361C83.8975 73.4361 90.316 79.8547 90.316 87.7728Z" fill="#8D191E"/>
<path d="M90.316 149.536C90.316 157.455 83.8975 163.873 75.9794 163.873C68.0613 163.873 61.6421 157.455 61.6421 149.536C61.6421 141.618 68.0613 135.2 75.9794 135.2C83.8975 135.2 90.316 141.618 90.316 149.536Z" fill="#8D191E"/>
<path d="M63.8129 118.759C63.8129 126.677 57.3943 133.096 49.4763 133.096C41.5582 133.096 35.1389 126.677 35.1389 118.759C35.1389 110.841 41.5582 104.422 49.4763 104.422C57.3943 104.422 63.8129 110.841 63.8129 118.759Z" fill="#8D191E"/>
<path d="M114.418 118.759C114.418 126.677 107.999 133.096 100.081 133.096C92.1631 133.096 85.7439 126.677 85.7439 118.759C85.7439 110.841 92.1631 104.422 100.081 104.422C107.999 104.422 114.418 110.841 114.418 118.759Z" fill="#8D191E"/>
</svg>
