<svg width="42" height="9" viewBox="0 0 42 9" fill="none" xmlns="http://www.w3.org/2000/svg">
<path d="M9.20288 4.23431C9.20288 6.57146 7.30755 8.4668 4.9704 8.4668C2.63325 8.4668 0.737915 6.57146 0.737915 4.23431C0.737915 1.89717 2.63325 0.00255023 4.9704 0.00255023C7.30755 0.00255023 9.20288 1.89717 9.20288 4.23431Z" fill="white"/>
<path d="M19.9656 4.23431C19.9656 6.57146 18.0702 8.4668 15.7331 8.4668C13.3959 8.4668 11.5006 6.57146 11.5006 4.23431C11.5006 1.89717 13.3959 0.00255023 15.7331 0.00255023C18.0702 0.00255023 19.9656 1.89717 19.9656 4.23431Z" fill="white"/>
<path d="M31.0146 4.23431C31.0146 6.57146 29.1193 8.4668 26.7822 8.4668C24.445 8.4668 22.5497 6.57146 22.5497 4.23431C22.5497 1.89717 24.445 0.00255023 26.7822 0.00255023C29.1193 0.00255023 31.0146 1.89717 31.0146 4.23431Z" fill="white"/>
<path d="M41.7771 4.23431C41.7771 6.57146 39.8818 8.4668 37.5446 8.4668C35.2075 8.4668 33.3121 6.57146 33.3121 4.23431C33.3121 1.89717 35.2075 0.00255023 37.5446 0.00255023C39.8818 0.00255023 41.7771 1.89717 41.7771 4.23431Z" fill="white"/>
</svg>
