<svg width="150" height="235" viewBox="0 0 150 235" fill="none" xmlns="http://www.w3.org/2000/svg">
<path d="M75.2031 110.446H49.6585V71.7452L52.657 73.2685V108.047H60.932V94.3453L57.5903 76.4461C57.5176 76.1482 57.4601 75.846 57.4205 75.5366L57.4039 75.4445H57.4068C57.3708 75.1322 57.3478 74.8156 57.3478 74.494C57.3478 69.9564 61.0255 66.2787 65.5624 66.2787C67.5167 66.2787 69.3048 66.9709 70.7137 68.1128C71.2707 69.457 73.043 70.4615 75.2031 70.6018V63.8106V63.7221C70.8612 63.6717 67.3555 60.1401 67.3555 55.786C67.3555 51.4312 70.8612 47.8995 75.2031 47.8492V31.2934V28.4152V20.2215C74.7965 20.2215 74.4044 20.2402 74.0295 20.2725C73.5164 19.9056 73.179 19.3083 73.179 18.6291C73.179 17.5123 74.0856 16.6056 75.2031 16.6056V14.8967C73.1415 14.8967 71.47 16.5675 71.47 18.6291C71.47 19.3688 71.6916 20.0509 72.0651 20.6273C71.2203 20.8878 70.6929 21.2519 70.6929 21.6556C70.6929 21.9304 70.9404 22.1873 71.3635 22.4053C70.672 23.0393 70.2561 23.8459 70.2561 24.7274C70.2561 26.0557 71.2009 27.2164 72.6141 27.8654C72.5407 29.7823 71.7751 31.2934 70.8296 31.2934H68.9069C68.9069 38.5934 67.5181 44.5003 65.8034 44.5003C64.4255 43.6599 62.8129 43.1662 61.0816 43.1662C59.5864 43.1662 58.1796 43.5347 56.9355 44.1736L52.5102 40.388L50.6652 40.4513L50.1565 38.0343L45.3232 35.1085L43.6056 35.554L43.1601 37.2716L46.0859 42.1042L48.5036 42.6129L48.4396 44.4586L52.5217 49.2315C52.1885 50.177 51.9971 51.1901 51.9971 52.2507C51.9971 54.7894 53.0412 57.0826 54.72 58.7312L53.9759 63.7271L49.6585 59.7601V47.4836H46.2406V56.6185L35.3874 46.6446L30.4699 61.9951L46.2406 70.0082V75.7266H43.1824V97.1336H26.0928V100.012V117.881H29.3308V100.012H43.1824V115.842H45.8211V117.881H48.5195H49.7183V115.842H75.2031V110.446Z" fill="white"/>
<path d="M63.8103 108.359H73.6741V106.44L71.2456 105.451L63.8103 98.5251V108.359Z" fill="white"/>
<path d="M72.6847 92.9485L69.0415 94.343V95.7821L73.6741 98.7949H75.2031V93.3536C75.2031 93.1298 74.077 92.9485 72.6847 92.9485Z" fill="white"/>
<path d="M74.9331 110.446H100.478V71.7452L97.4792 73.2685V108.047H89.2042V94.3453L92.5459 76.4461C92.6186 76.1482 92.6761 75.846 92.7157 75.5366L92.7323 75.4445H92.7294C92.7654 75.1322 92.7884 74.8156 92.7884 74.494C92.7884 69.9564 89.1107 66.2787 84.5738 66.2787C82.6195 66.2787 80.8314 66.9709 79.4225 68.1128C78.8655 69.457 77.0932 70.4615 74.9331 70.6018V63.8106V63.7221C79.275 63.6717 82.7807 60.1401 82.7807 55.786C82.7807 51.4312 79.275 47.8995 74.9331 47.8492V31.2934V28.4152V20.2215C75.3397 20.2215 75.7318 20.2402 76.1067 20.2725C76.6198 19.9056 76.9572 19.3083 76.9572 18.6291C76.9572 17.5123 76.0506 16.6056 74.9331 16.6056V14.8967C76.9947 14.8967 78.6662 16.5675 78.6662 18.6291C78.6662 19.3688 78.4446 20.0509 78.0711 20.6273C78.9159 20.8878 79.4433 21.2519 79.4433 21.6556C79.4433 21.9304 79.1958 22.1873 78.7727 22.4053C79.4642 23.0393 79.8801 23.8459 79.8801 24.7274C79.8801 26.0557 78.9353 27.2164 77.5221 27.8654C77.5955 29.7823 78.3611 31.2934 79.3066 31.2934H81.2293C81.2293 38.5934 82.6181 44.5003 84.3328 44.5003C85.7108 43.6599 87.3233 43.1662 89.0546 43.1662C90.5498 43.1662 91.9566 43.5347 93.2007 44.1736L97.626 40.388L99.471 40.4513L99.9797 38.0343L104.813 35.1085L106.531 35.554L106.976 37.2716L104.05 42.1042L101.633 42.6129L101.697 44.4586L97.6145 49.2315C97.9477 50.177 98.1391 51.1901 98.1391 52.2507C98.1391 54.7894 97.095 57.0826 95.4163 58.7312L96.1603 63.7271L100.478 59.7601V47.4836H103.896V56.6185L114.749 46.6446L119.666 61.9951L103.896 70.0082V75.7266H106.954V97.1336H124.043V100.012V117.881H120.805V100.012H106.954V115.842H104.315V117.881H101.617H100.418V115.842H74.9331V110.446Z" fill="white"/>
<path d="M86.3262 108.359H76.4624V106.44L78.8909 105.451L86.3262 98.5251V108.359Z" fill="white"/>
<path d="M77.4516 92.9485L81.0947 94.343V95.7821L76.4622 98.7949H74.9331V93.3536C74.9331 93.1298 76.0592 92.9485 77.4516 92.9485Z" fill="white"/>
<path d="M75.2031 125.316H49.6585V164.017L52.657 162.493V127.715H60.932V141.417L57.5903 159.316C57.5176 159.614 57.4601 159.916 57.4205 160.225L57.4039 160.317H57.4068C57.3708 160.63 57.3478 160.946 57.3478 161.268C57.3478 165.806 61.0255 169.483 65.5624 169.483C67.5167 169.483 69.3048 168.791 70.7137 167.65C71.2707 166.305 73.043 165.3 75.2031 165.16V171.951V172.04C70.8612 172.09 67.3555 175.622 67.3555 179.976C67.3555 184.331 70.8612 187.862 75.2031 187.913V204.468V207.347V215.54C74.7965 215.54 74.4044 215.522 74.0295 215.489C73.5164 215.856 73.179 216.454 73.179 217.133C73.179 218.25 74.0856 219.156 75.2031 219.156V220.865C73.1415 220.865 71.47 219.194 71.47 217.133C71.47 216.393 71.6916 215.711 72.0651 215.135C71.2203 214.875 70.6929 214.51 70.6929 214.106C70.6929 213.831 70.9404 213.575 71.3635 213.357C70.672 212.723 70.2561 211.916 70.2561 211.035C70.2561 209.706 71.2009 208.546 72.6141 207.897C72.5407 205.98 71.7751 204.468 70.8296 204.468H68.9069C68.9069 197.169 67.5181 191.262 65.8034 191.262C64.4255 192.102 62.8129 192.596 61.0816 192.596C59.5864 192.596 58.1796 192.227 56.9355 191.588L52.5102 195.374L50.6652 195.311L50.1565 197.728L45.3232 200.653L43.6056 200.208L43.1601 198.49L46.0859 193.658L48.5036 193.149L48.4396 191.303L52.5217 186.53C52.1885 185.585 51.9971 184.572 51.9971 183.511C51.9971 180.973 53.0412 178.679 54.72 177.031L53.9759 172.035L49.6585 176.002V188.278H46.2406V179.143L35.3874 189.117L30.4699 173.767L46.2406 165.754V160.035H43.1824V138.628H26.0928V135.75V117.881H29.3308V135.75H43.1824V119.92H45.8211V117.881H48.5195H49.7183V119.92H75.2031V125.316Z" fill="white"/>
<path d="M63.8103 127.404H73.6741V129.323L71.2456 130.312L63.8103 137.238V127.404Z" fill="white"/>
<path d="M72.6847 142.814L69.0415 141.42V139.981L73.6741 136.968H75.2031V142.409C75.2031 142.633 74.077 142.814 72.6847 142.814Z" fill="white"/>
<path d="M74.9331 125.316H100.478V164.017L97.4792 162.493V127.715H89.2042V141.417L92.5459 159.316C92.6186 159.614 92.6761 159.916 92.7157 160.225L92.7323 160.317H92.7294C92.7654 160.63 92.7884 160.946 92.7884 161.268C92.7884 165.806 89.1107 169.483 84.5738 169.483C82.6195 169.483 80.8314 168.791 79.4225 167.65C78.8655 166.305 77.0932 165.3 74.9331 165.16V171.951V172.04C79.275 172.09 82.7807 175.622 82.7807 179.976C82.7807 184.331 79.275 187.862 74.9331 187.913V204.468V207.347V215.54C75.3397 215.54 75.7318 215.522 76.1067 215.489C76.6198 215.856 76.9572 216.454 76.9572 217.133C76.9572 218.25 76.0506 219.156 74.9331 219.156V220.865C76.9947 220.865 78.6662 219.194 78.6662 217.133C78.6662 216.393 78.4446 215.711 78.0711 215.135C78.9159 214.875 79.4433 214.51 79.4433 214.106C79.4433 213.831 79.1958 213.575 78.7727 213.357C79.4642 212.723 79.8801 211.916 79.8801 211.035C79.8801 209.706 78.9353 208.546 77.5221 207.897C77.5955 205.98 78.3611 204.468 79.3066 204.468H81.2293C81.2293 197.169 82.6181 191.262 84.3328 191.262C85.7108 192.102 87.3233 192.596 89.0546 192.596C90.5498 192.596 91.9566 192.227 93.2007 191.588L97.626 195.374L99.471 195.311L99.9797 197.728L104.813 200.653L106.531 200.208L106.976 198.49L104.05 193.658L101.633 193.149L101.697 191.303L97.6145 186.53C97.9477 185.585 98.1391 184.572 98.1391 183.511C98.1391 180.973 97.095 178.679 95.4163 177.031L96.1603 172.035L100.478 176.002V188.278H103.896V179.143L114.749 189.117L119.666 173.767L103.896 165.754V160.035H106.954V138.628H124.043V135.75V117.881H120.805V135.75H106.954V119.92H104.315V117.881H101.617H100.418V119.92H74.9331V125.316Z" fill="white"/>
<path d="M86.3262 127.404H76.4624V129.323L78.8909 130.312L86.3262 137.238V127.404Z" fill="white"/>
<path d="M77.4516 142.814L81.0947 141.42V139.981L76.4622 136.968H74.9331V142.409C74.9331 142.633 76.0592 142.814 77.4516 142.814Z" fill="white"/>
<path d="M56.7958 24.4272C56.7958 27.64 54.1917 30.2441 50.9796 30.2441C47.7667 30.2441 45.1626 27.64 45.1626 24.4272C45.1626 21.215 47.7667 18.6109 50.9796 18.6109C54.1917 18.6109 56.7958 21.215 56.7958 24.4272Z" fill="white"/>
<path d="M33.3932 117.691C33.3932 120.904 30.7891 123.508 27.577 123.508C24.3641 123.508 21.76 120.904 21.76 117.691C21.76 114.479 24.3641 111.875 27.577 111.875C30.7891 111.875 33.3932 114.479 33.3932 117.691Z" fill="white"/>
<path d="M128.016 117.882C128.016 121.095 125.412 123.699 122.2 123.699C118.987 123.699 116.383 121.095 116.383 117.882C116.383 114.67 118.987 112.066 122.2 112.066C125.412 112.066 128.016 114.67 128.016 117.882Z" fill="white"/>
<path d="M104.989 23.8373C104.989 27.0502 102.385 29.6543 99.1729 29.6543C95.9601 29.6543 93.356 27.0502 93.356 23.8373C93.356 20.6252 95.9601 18.0211 99.1729 18.0211C102.385 18.0211 104.989 20.6252 104.989 23.8373Z" fill="white"/>
<path d="M104.989 211.923C104.989 215.136 102.385 217.74 99.1729 217.74C95.9601 217.74 93.356 215.136 93.356 211.923C93.356 208.711 95.9601 206.107 99.1729 206.107C102.385 206.107 104.989 208.711 104.989 211.923Z" fill="white"/>
<path d="M56.4643 211.734C56.4643 214.947 53.8602 217.551 50.648 217.551C47.4352 217.551 44.8311 214.947 44.8311 211.734C44.8311 208.522 47.4352 205.918 50.648 205.918C53.8602 205.918 56.4643 208.522 56.4643 211.734Z" fill="white"/>
<path d="M79.1649 180.24C79.1649 182.577 77.2703 184.473 74.9332 184.473C72.596 184.473 70.7014 182.577 70.7014 180.24C70.7014 177.903 72.596 176.008 74.9332 176.008C77.2703 176.008 79.1649 177.903 79.1649 180.24Z" fill="white"/>
<path d="M79.4347 55.7363C79.4347 58.0734 77.5401 59.9688 75.203 59.9688C72.8658 59.9688 70.9712 58.0734 70.9712 55.7363C70.9712 53.3991 72.8658 51.5045 75.203 51.5045C77.5401 51.5045 79.4347 53.3991 79.4347 55.7363Z" fill="white"/>
</svg>
