<svg width="53" height="9" viewBox="0 0 53 9" fill="none" xmlns="http://www.w3.org/2000/svg">
<path d="M41.7638 4.23431C41.7638 6.57146 39.8692 8.4668 37.5321 8.4668C35.1949 8.4668 33.3003 6.57146 33.3003 4.23431C33.3003 1.89717 35.1949 0.00255023 37.5321 0.00255023C39.8692 0.00255023 41.7638 1.89717 41.7638 4.23431Z" fill="white"/>
<path d="M52.5263 4.23431C52.5263 6.57146 50.6317 8.4668 48.2945 8.4668C45.9574 8.4668 44.0627 6.57146 44.0627 4.23431C44.0627 1.89717 45.9574 0.00255023 48.2945 0.00255023C50.6317 0.00255023 52.5263 1.89717 52.5263 4.23431Z" fill="white"/>
<path d="M30.8241 4.23431C30.8241 6.57146 28.9295 8.4668 26.5923 8.4668C24.2552 8.4668 22.3599 6.57146 22.3599 4.23431C22.3599 1.89717 24.2552 0.00255023 26.5923 0.00255023C28.9295 0.00255023 30.8241 1.89717 30.8241 4.23431Z" fill="white"/>
<path d="M9.24135 4.23431C9.24135 6.57146 7.34673 8.4668 5.00958 8.4668C2.67243 8.4668 0.7771 6.57146 0.7771 4.23431C0.7771 1.89717 2.67243 0.00255023 5.00958 0.00255023C7.34673 0.00255023 9.24135 1.89717 9.24135 4.23431Z" fill="white"/>
<path d="M20.004 4.23431C20.004 6.57146 18.1094 8.4668 15.7723 8.4668C13.4351 8.4668 11.5398 6.57146 11.5398 4.23431C11.5398 1.89717 13.4351 0.00255023 15.7723 0.00255023C18.1094 0.00255023 20.004 1.89717 20.004 4.23431Z" fill="white"/>
</svg>
