<svg width="63" height="9" viewBox="0 0 63 9" fill="none" xmlns="http://www.w3.org/2000/svg">
<path d="M30.5736 4.23236C30.5736 6.56951 28.679 8.46484 26.3419 8.46484C24.0047 8.46484 22.1094 6.56951 22.1094 4.23236C22.1094 1.89521 24.0047 0.0005971 26.3419 0.0005971C28.679 0.0005971 30.5736 1.89521 30.5736 4.23236Z" fill="white"/>
<path d="M8.99061 4.23236C8.99061 6.56951 7.096 8.46484 4.75885 8.46484C2.4217 8.46484 0.526367 6.56951 0.526367 4.23236C0.526367 1.89521 2.4217 0.0005971 4.75885 0.0005971C7.096 0.0005971 8.99061 1.89521 8.99061 4.23236Z" fill="white"/>
<path d="M19.7533 4.23236C19.7533 6.56951 17.8587 8.46484 15.5215 8.46484C13.1844 8.46484 11.2891 6.56951 11.2891 4.23236C11.2891 1.89521 13.1844 0.0005971 15.5215 0.0005971C17.8587 0.0005971 19.7533 1.89521 19.7533 4.23236Z" fill="white"/>
<path d="M63.0072 4.23431C63.0072 6.57146 61.1126 8.4668 58.7755 8.4668C56.4383 8.4668 54.543 6.57146 54.543 4.23431C54.543 1.89717 56.4383 0.00255023 58.7755 0.00255023C61.1126 0.00255023 63.0072 1.89717 63.0072 4.23431Z" fill="white"/>
<path d="M41.4247 4.23431C41.4247 6.57146 39.5301 8.4668 37.1929 8.4668C34.8558 8.4668 32.9604 6.57146 32.9604 4.23431C32.9604 1.89717 34.8558 0.00255023 37.1929 0.00255023C39.5301 0.00255023 41.4247 1.89717 41.4247 4.23431Z" fill="white"/>
<path d="M52.1871 4.23431C52.1871 6.57146 50.2925 8.4668 47.9554 8.4668C45.6182 8.4668 43.7229 6.57146 43.7229 4.23431C43.7229 1.89717 45.6182 0.00255023 47.9554 0.00255023C50.2925 0.00255023 52.1871 1.89717 52.1871 4.23431Z" fill="white"/>
</svg>
