<svg width="150" height="235" viewBox="0 0 150 235" fill="none" xmlns="http://www.w3.org/2000/svg">
<path d="M89.0692 100.691C89.0692 108.609 82.6507 115.027 74.7326 115.027C66.8145 115.027 60.3953 108.609 60.3953 100.691C60.3953 92.7726 66.8145 86.3541 74.7326 86.3541C82.6507 86.3541 89.0692 92.7726 89.0692 100.691Z" fill="#8D191E"/>
<path d="M64.8268 131.675C64.8268 139.593 58.4083 146.012 50.4902 146.012C42.5721 146.012 36.1528 139.593 36.1528 131.675C36.1528 123.757 42.5721 117.338 50.4902 117.338C58.4083 117.338 64.8268 123.757 64.8268 131.675Z" fill="#8D191E"/>
<path d="M114.532 131.675C114.532 139.593 108.114 146.012 100.196 146.012C92.2776 146.012 85.8584 139.593 85.8584 131.675C85.8584 123.757 92.2776 117.338 100.196 117.338C108.114 117.338 114.532 123.757 114.532 131.675Z" fill="#8D191E"/>
</svg>
