<svg width="150" height="235" viewBox="0 0 150 235" fill="none" xmlns="http://www.w3.org/2000/svg">
<path d="M88.5607 67.1224C88.5607 75.0412 82.1422 81.459 74.2241 81.459C66.306 81.459 59.8867 75.0412 59.8867 67.1224C59.8867 59.2043 66.306 52.7857 74.2241 52.7857C82.1422 52.7857 88.5607 59.2043 88.5607 67.1224Z" fill="#8D191E"/>
<path d="M64.3185 98.1087C64.3185 106.027 57.9 112.445 49.9819 112.445C42.0638 112.445 35.6445 106.027 35.6445 98.1087C35.6445 90.1906 42.0638 83.7721 49.9819 83.7721C57.9 83.7721 64.3185 90.1906 64.3185 98.1087Z" fill="#8D191E"/>
<path d="M114.024 98.1087C114.024 106.027 107.605 112.445 99.6872 112.445C91.7691 112.445 85.3499 106.027 85.3499 98.1087C85.3499 90.1906 91.7691 83.7721 99.6872 83.7721C107.605 83.7721 114.024 90.1906 114.024 98.1087Z" fill="#8D191E"/>
<path d="M61.1074 167.724C61.1074 159.806 67.5259 153.387 75.444 153.387C83.3621 153.387 89.7814 159.806 89.7814 167.724C89.7814 175.642 83.3621 182.061 75.444 182.061C67.5259 182.061 61.1074 175.642 61.1074 167.724Z" fill="#8D191E"/>
<path d="M85.3501 136.737C85.3501 128.819 91.7686 122.4 99.6867 122.4C107.605 122.4 114.024 128.819 114.024 136.737C114.024 144.655 107.605 151.074 99.6867 151.074C91.7686 151.074 85.3501 144.655 85.3501 136.737Z" fill="#8D191E"/>
<path d="M35.6445 136.737C35.6445 128.819 42.0631 122.4 49.9811 122.4C57.8992 122.4 64.3185 128.819 64.3185 136.737C64.3185 144.655 57.8992 151.074 49.9811 151.074C42.0631 151.074 35.6445 144.655 35.6445 136.737Z" fill="#8D191E"/>
</svg>
