<svg width="150" height="236" viewBox="0 0 150 236" fill="none" xmlns="http://www.w3.org/2000/svg">
<path d="M90.0306 82.1204C90.0306 90.0385 83.6121 96.457 75.694 96.457C67.7759 96.457 61.3567 90.0385 61.3567 82.1204C61.3567 74.2023 67.7759 67.7838 75.694 67.7838C83.6121 67.7838 90.0306 74.2023 90.0306 82.1204Z" fill="#8D191E"/>
<path d="M89.4684 118.722C89.4684 126.64 83.0499 133.059 75.1318 133.059C67.2137 133.059 60.7944 126.64 60.7944 118.722C60.7944 110.804 67.2137 104.385 75.1318 104.385C83.0499 104.385 89.4684 110.804 89.4684 118.722Z" fill="#8D191E"/>
<path d="M90.0306 153.669C90.0306 161.587 83.6121 168.006 75.694 168.006C67.7759 168.006 61.3567 161.587 61.3567 153.669C61.3567 145.751 67.7759 139.333 75.694 139.333C83.6121 139.333 90.0306 145.751 90.0306 153.669Z" fill="#8D191E"/>
<path d="M56.6229 118.722C56.6229 126.64 50.2044 133.059 42.2863 133.059C34.3682 133.059 27.949 126.64 27.949 118.722C27.949 110.804 34.3682 104.385 42.2863 104.385C50.2044 104.385 56.6229 110.804 56.6229 118.722Z" fill="#8D191E"/>
<path d="M121.508 118.722C121.508 126.64 115.09 133.059 107.172 133.059C99.2535 133.059 92.8342 126.64 92.8342 118.722C92.8342 110.804 99.2535 104.385 107.172 104.385C115.09 104.385 121.508 110.804 121.508 118.722Z" fill="#8D191E"/>
</svg>
