<svg width="149" height="236" viewBox="0 0 149 236" fill="none" xmlns="http://www.w3.org/2000/svg">
<path d="M64.5186 69.4453H70.9048V58.9663H69.6455V56.6277H70.9048V51.141C68.2697 51.141 66.1376 47.9627 66.1376 44.0353C66.1376 42.1213 67.0227 40.5728 68.1164 40.5728V37.1095C62.0505 37.1095 57.1431 40.2072 57.1431 44.0353V56.6277C61.2201 56.6277 64.5186 62.3605 64.5186 69.4453Z" fill="white"/>
<path d="M74.6378 76.418L77.8981 73.2699L74.6378 70.1218L71.3774 73.2699L74.6378 76.418Z" fill="white"/>
<path d="M92.132 56.6296V44.0373C92.132 40.2092 87.2246 37.1114 81.1587 37.1114V40.574C82.2524 40.574 83.1375 42.1232 83.1375 44.0373C83.1375 47.9639 81.0054 51.143 78.3704 51.143V56.6296H79.6296V58.9682H78.3704V69.4473H84.7565C84.7565 62.3624 88.055 56.6296 92.132 56.6296Z" fill="white"/>
<path d="M57.144 179.136V191.728C57.144 195.557 62.0515 198.654 68.1174 198.654V195.192C67.0237 195.192 66.1386 193.643 66.1386 191.728C66.1386 187.8 68.2707 184.623 70.9057 184.623V179.136H69.6465V176.798H70.9057V166.318H64.5196C64.5196 173.403 61.2211 179.136 57.144 179.136Z" fill="white"/>
<path d="M84.7572 166.318H78.3711V176.798H79.6303V179.136H78.3711V184.623C81.0061 184.623 83.1382 187.8 83.1382 191.728C83.1382 193.643 82.2531 195.191 81.1594 195.191V198.654C87.2253 198.654 92.1328 195.557 92.1328 191.728V179.136C88.0557 179.136 84.7572 173.403 84.7572 166.318Z" fill="white"/>
<path d="M74.6383 159.346L71.3779 162.494L74.6383 165.643L77.8986 162.494L74.6383 159.346Z" fill="white"/>
<path d="M84.7566 69.4454L84.7487 69.4367L83.5801 73.6023L85.823 74.2305L87.3722 68.7092L84.7566 69.4454Z" fill="white"/>
<path d="M64.5119 69.4454L64.5198 69.4367L65.6883 73.6023L63.4455 74.2305L61.8962 68.7092L64.5119 69.4454Z" fill="white"/>
<path d="M84.76 166.301L84.7521 166.31L83.5835 162.144L85.8264 161.516L87.3756 167.037L84.76 166.301Z" fill="white"/>
<path d="M64.5153 166.301L64.5232 166.31L65.6918 162.144L63.4489 161.516L61.8997 167.037L64.5153 166.301Z" fill="white"/>
<path d="M77.8981 73.2386L74.6378 70.0905L71.3767 73.2386L74.6378 76.3867L77.8981 73.2386Z" fill="white"/>
<path d="M71.3779 162.465L74.6383 165.613L77.8993 162.465L74.6383 159.317L71.3779 162.465Z" fill="white"/>
<path d="M57.144 179.103V191.695C57.144 195.523 62.0515 198.621 68.1174 198.621V195.159C67.0237 195.159 66.1386 193.609 66.1386 191.695C66.1386 187.769 68.2707 184.59 70.9057 184.59V179.103H69.6465V176.764H70.9057V166.285H64.5196C64.5196 173.37 61.2211 179.103 57.144 179.103Z" fill="white"/>
<path d="M84.7572 166.287H78.3711V176.766H79.6303V179.105H78.3711V184.592C81.0061 184.592 83.1382 187.77 83.1382 191.697C83.1382 193.611 82.2531 195.16 81.1594 195.16V198.623C87.2253 198.623 92.1328 195.525 92.1328 191.697V179.105C88.0557 179.105 84.7572 173.372 84.7572 166.287Z" fill="white"/>
<path d="M64.5215 69.416H70.9048V58.937H69.6455V56.5984H70.9048V51.1117C68.2697 51.1117 66.1376 47.9341 66.1376 44.006C66.1376 42.092 67.0234 40.5435 68.1164 40.5435V37.0802C62.0505 37.0802 57.1431 40.1779 57.1431 44.006V56.5984C61.2187 56.5984 64.5157 62.3283 64.5186 69.4088L64.5193 69.4074L64.5215 69.416Z" fill="white"/>
<path fill-rule="evenodd" clip-rule="evenodd" d="M112.64 132.702H129.172V117.883H129.171V103.064H112.639V104.391L112.64 117.883V131.375V132.702ZM107.153 155.48H107.603V130.745L103.106 126.967L96.8097 121.679H92.1325V123.46V128.137H96.8097H103.106V151.972L107.153 155.48ZM82.0586 139.47L96.8097 148.734V133.803H92.1325V139.47H82.0586ZM52.4665 133.803V148.734L67.2176 139.47H57.1436V133.803H52.4665ZM46.1703 151.972V128.137H52.4665H57.1436V123.46V121.679H52.4665L46.1703 126.967L41.673 130.745V155.48H42.1227L46.1703 151.972ZM42.122 80.2857H41.6723V105.021L46.1696 108.798L52.4658 114.087H57.1429V112.306V107.629H52.4658H46.1696V83.7936L42.122 80.2857ZM36.636 132.702V131.375L36.6353 117.883V104.391V103.064H20.104L20.1047 117.883V132.702H36.636ZM67.2168 96.296L52.4658 87.0316V101.963H57.1429V96.296H67.2168ZM96.809 101.963V87.0316L82.0579 96.296H92.1318V101.963H96.809ZM103.105 83.7936V107.629H96.809H92.1318V112.306V114.087H96.809L103.105 108.798L107.602 105.021V80.2857H107.153L103.105 83.7936ZM132.517 99.714V117.883L132.518 136.052H113.27V159.348L103.106 165.015V204.231H97.5292V166.993L93.3917 168.972V175.628C90.0638 175.628 87.3704 171.773 87.3661 167.006L87.3755 167.008L87.3704 166.992L91.5928 165.644L81.1591 149.274V141.539H74.6384H68.117V149.274L57.6833 165.644L61.905 166.99L63.4485 161.486L65.6914 162.115L64.5228 166.281L64.5156 166.272L61.91 167.006C61.9064 171.773 59.2124 175.628 55.8844 175.628V168.972L51.7469 166.993V204.231H46.1703V165.015L36.0064 159.348V136.052H16.758L16.7573 117.883V99.714H36.0057V76.418L46.1696 70.7515V31.5352H51.7462V68.7727L55.8837 66.7939V60.1379C59.1937 60.1379 61.8741 63.9523 61.9079 68.6842L61.8964 68.6813L61.9086 68.7266C61.9086 68.7341 61.909 68.7415 61.9093 68.749C61.9097 68.7566 61.91 68.7643 61.91 68.7727L57.6826 70.1218L68.1163 86.492V94.2273H74.6377H81.1584V86.492L91.5921 70.1218L87.3647 68.7727C87.3647 68.7475 87.3675 68.7223 87.3675 68.6971L85.8234 74.2032L83.5805 73.5736L84.7469 69.4167H78.3701V58.9376H79.6293V56.5991H78.3701V51.1124C81.0059 51.1124 83.1372 47.9348 83.1372 44.0067C83.1372 42.0926 82.2522 40.5441 81.1584 40.5441V37.0808C87.2243 37.0808 92.1318 40.1786 92.1318 44.0067V56.5991C88.0547 56.5991 84.7562 62.3318 84.7562 69.4167L87.3675 68.6827C87.4021 63.9523 90.0817 60.1379 93.391 60.1379V66.7939L97.5285 68.7727V31.5352H103.105V70.7515L113.269 76.418V99.714H132.517ZM84.0518 133.135C86.4357 133.135 88.3692 131.202 88.3692 128.818V109.99C88.3692 107.605 86.4357 105.672 84.0518 105.672H65.2236C62.8397 105.672 60.9062 107.605 60.9062 109.99V128.818C60.9062 131.202 62.8397 133.135 65.2236 133.135H84.0518Z" fill="white"/>
<path d="M87.3706 166.991L85.8264 161.485L83.5835 162.115L84.7521 166.281L84.76 166.272L87.3663 167.006C87.3663 167.002 87.3655 166.997 87.3655 166.993L87.3706 166.991Z" fill="white"/>
<path d="M63.4449 74.2012L65.6878 73.5716L64.5214 69.4146H64.5185V69.4103L64.5113 69.4146L61.9072 68.6821C61.9072 68.6965 61.9087 68.7087 61.9087 68.7246L63.4449 74.2012Z" fill="white"/>
<path d="M53.6269 25.1233C53.6269 26.027 52.8936 26.7617 51.9891 26.7617H44.8474C43.9422 26.7617 43.209 26.027 43.209 25.1233V17.9823C43.209 17.0785 43.9422 16.3439 44.8474 16.3439H51.9891C52.8936 16.3439 53.6269 17.0785 53.6269 17.9823V25.1233Z" fill="white"/>
<path d="M106.066 25.1233C106.066 26.027 105.333 26.7617 104.428 26.7617H97.2864C96.3812 26.7617 95.6479 26.027 95.6479 25.1233V17.9823C95.6479 17.0785 96.3812 16.3439 97.2864 16.3439H104.428C105.333 16.3439 106.066 17.0785 106.066 17.9823V25.1233Z" fill="white"/>
<path d="M106.067 217.781C106.067 218.685 105.333 219.42 104.429 219.42H97.2871C96.3819 219.42 95.6487 218.685 95.6487 217.781V210.641C95.6487 209.737 96.3819 209.002 97.2871 209.002H104.429C105.333 209.002 106.067 209.737 106.067 210.641V217.781Z" fill="white"/>
<path d="M53.6283 217.781C53.6283 218.685 52.8951 219.42 51.9906 219.42H44.8489C43.9437 219.42 43.2104 218.685 43.2104 217.781V210.641C43.2104 209.737 43.9437 209.002 44.8489 209.002H51.9906C52.8951 209.002 53.6283 209.737 53.6283 210.641V217.781Z" fill="white"/>
</svg>
