<svg width="42" height="9" viewBox="0 0 42 9" fill="none" xmlns="http://www.w3.org/2000/svg">
<path d="M8.92953 6.86C8.92953 7.56518 8.35676 8.13867 7.65014 8.13867H2.07063C1.3633 8.13867 0.790527 7.56518 0.790527 6.86V1.2805C0.790527 0.575321 1.3633 0.00182737 2.07063 0.00182737H7.65014C8.35676 0.00182737 8.92953 0.575321 8.92953 1.2805V6.86Z" fill="white"/>
<path d="M19.6922 6.86C19.6922 7.56518 19.1195 8.13867 18.4128 8.13867H12.8333C12.126 8.13867 11.5532 7.56518 11.5532 6.86V1.2805C11.5532 0.575321 12.126 0.00182737 12.8333 0.00182737H18.4128C19.1195 0.00182737 19.6922 0.575321 19.6922 1.2805V6.86Z" fill="white"/>
<path d="M30.5404 6.86C30.5404 7.56518 29.9676 8.13867 29.261 8.13867H23.6815C22.9741 8.13867 22.4014 7.56518 22.4014 6.86V1.2805C22.4014 0.575321 22.9741 0.00182737 23.6815 0.00182737H29.261C29.9676 0.00182737 30.5404 0.575321 30.5404 1.2805V6.86Z" fill="white"/>
<path d="M41.3255 6.86C41.3255 7.56518 40.7528 8.13867 40.0461 8.13867H34.4666C33.7593 8.13867 33.1865 7.56518 33.1865 6.86V1.2805C33.1865 0.575321 33.7593 0.00182737 34.4666 0.00182737H40.0461C40.7528 0.00182737 41.3255 0.575321 41.3255 1.2805V6.86Z" fill="white"/>
</svg>
