<svg width="150" height="235" viewBox="0 0 150 235" fill="none" xmlns="http://www.w3.org/2000/svg">
<path d="M88.4641 110.104C88.4641 112.488 86.5307 114.422 84.1468 114.422H65.3186C62.9347 114.422 61.0012 112.488 61.0012 110.104V91.2763C61.0012 88.8917 62.9347 86.9589 65.3186 86.9589H84.1468C86.5307 86.9589 88.4641 88.8917 88.4641 91.2763V110.104Z" fill="#8D191E"/>
<path d="M64.2217 141.093C64.2217 143.477 62.2882 145.41 59.9043 145.41H41.0762C38.6923 145.41 36.7588 143.477 36.7588 141.093V122.265C36.7588 119.88 38.6923 117.947 41.0762 117.947H59.9043C62.2882 117.947 64.2217 119.88 64.2217 122.265V141.093Z" fill="#8D191E"/>
<path d="M113.927 141.093C113.927 143.477 111.994 145.41 109.61 145.41H90.7817C88.3978 145.41 86.4644 143.477 86.4644 141.093V122.265C86.4644 119.88 88.3978 117.947 90.7817 117.947H109.61C111.994 117.947 113.927 119.88 113.927 122.265V141.093Z" fill="#8D191E"/>
</svg>
