<svg width="63" height="9" viewBox="0 0 63 9" fill="none" xmlns="http://www.w3.org/2000/svg">
<path d="M8.87191 6.86C8.87191 7.56518 8.29914 8.13867 7.59253 8.13867H2.01302C1.30568 8.13867 0.73291 7.56518 0.73291 6.86V1.2805C0.73291 0.575321 1.30568 0.000389029 2.01302 0.000389029H7.59253C8.29914 0.000389029 8.87191 0.575321 8.87191 1.2805V6.86Z" fill="white"/>
<path d="M19.6344 6.86C19.6344 7.56518 19.0616 8.13867 18.355 8.13867H12.7755C12.0681 8.13867 11.4954 7.56518 11.4954 6.86V1.2805C11.4954 0.575321 12.0681 0.000389029 12.7755 0.000389029H18.355C19.0616 0.000389029 19.6344 0.575321 19.6344 1.2805V6.86Z" fill="white"/>
<path d="M30.4828 6.86C30.4828 7.56518 29.91 8.13867 29.2034 8.13867H23.6239C22.9165 8.13867 22.3438 7.56518 22.3438 6.86V1.2805C22.3438 0.575321 22.9165 0.000389029 23.6239 0.000389029H29.2034C29.91 0.000389029 30.4828 0.575321 30.4828 1.2805V6.86Z" fill="white"/>
<path d="M41.2677 6.86C41.2677 7.56518 40.6949 8.13867 39.9883 8.13867H34.4088C33.7014 8.13867 33.1287 7.56518 33.1287 6.86V1.2805C33.1287 0.575321 33.7014 0.000389029 34.4088 0.000389029H39.9883C40.6949 0.000389029 41.2677 0.575321 41.2677 1.2805V6.86Z" fill="white"/>
<path d="M52.14 6.86C52.14 7.56518 51.5672 8.13867 50.8606 8.13867H45.2811C44.5738 8.13867 44.001 7.56518 44.001 6.86V1.2805C44.001 0.575321 44.5738 0.000389029 45.2811 0.000389029H50.8606C51.5672 0.000389029 52.14 0.575321 52.14 1.2805V6.86Z" fill="white"/>
<path d="M62.9398 6.86C62.9398 7.56518 62.367 8.13867 61.6604 8.13867H56.0809C55.3736 8.13867 54.8008 7.56518 54.8008 6.86V1.2805C54.8008 0.575321 55.3736 0.000389029 56.0809 0.000389029H61.6604C62.367 0.000389029 62.9398 0.575321 62.9398 1.2805V6.86Z" fill="white"/>
</svg>
