<svg width="150" height="235" viewBox="0 0 150 235" fill="none" xmlns="http://www.w3.org/2000/svg">
<path d="M75.2031 110.447H49.6585V71.7464L52.657 73.2698V108.049H60.932V94.3466L57.5903 76.4474C57.5176 76.1495 57.4601 75.8472 57.4205 75.5378L57.4039 75.4465H57.4068C57.3708 75.1334 57.3478 74.8168 57.3478 74.4952C57.3478 69.9583 61.0255 66.2806 65.5624 66.2806C67.5167 66.2806 69.3048 66.9721 70.7137 68.1134C71.2707 69.4582 73.043 70.4635 75.2031 70.6038V63.8125V63.724C70.8612 63.6736 67.3555 60.142 67.3555 55.7879C67.3555 51.4324 70.8612 47.9008 75.2031 47.8504V31.2946V28.4164V20.2227C74.7965 20.2227 74.4044 20.2414 74.0295 20.2752C73.5164 19.9068 73.179 19.3096 73.179 18.6303C73.179 17.5135 74.0856 16.6069 75.2031 16.6069V14.8979C73.1415 14.8979 71.47 16.5687 71.47 18.6303C71.47 19.37 71.6916 20.0529 72.0651 20.6292C71.2203 20.889 70.6929 21.2531 70.6929 21.6575C70.6929 21.9317 70.9404 22.1893 71.3635 22.4066C70.672 23.0405 70.2561 23.8471 70.2561 24.7286C70.2561 26.0569 71.2009 27.2176 72.6141 27.8666C72.5407 29.7836 71.7751 31.2946 70.8296 31.2946H68.9069C68.9069 38.5946 67.5181 44.5015 65.8034 44.5015C64.4255 43.6611 62.8129 43.1675 61.0816 43.1675C59.5864 43.1675 58.1796 43.5359 56.9355 44.1749L52.5102 40.3892L50.6652 40.4526L50.1565 38.0363L45.3232 35.1105L43.6056 35.5559L43.1601 37.2735L46.0859 42.1061L48.5036 42.6148L48.4396 44.4605L52.5217 49.2334C52.1885 50.1789 51.9971 51.1921 51.9971 52.252C51.9971 54.7913 53.0412 57.0839 54.72 58.7324L53.9759 63.7283L49.6585 59.7614V47.4849H46.2406V56.6197L35.3874 46.6459L30.4699 61.9971L46.2406 70.0094V75.7278H43.1824V97.1349H26.0928V100.013V117.883H29.3308V100.013H43.1824V115.844H45.8211V117.883H48.5195H49.7183V115.844H75.2031V110.447Z" fill="white"/>
<path d="M63.8103 108.361H73.6741V106.442L71.2456 105.452L63.8103 98.5263V108.361Z" fill="white"/>
<path d="M72.6847 92.9485L69.0415 94.343V95.7821L73.6741 98.7949H75.2031V93.3536C75.2031 93.1298 74.077 92.9485 72.6847 92.9485Z" fill="white"/>
<path d="M74.9331 110.447H100.478V71.7464L97.4792 73.2698V108.049H89.2042V94.3466L92.5459 76.4474C92.6186 76.1495 92.6761 75.8472 92.7157 75.5378L92.7323 75.4465H92.7294C92.7654 75.1334 92.7884 74.8168 92.7884 74.4952C92.7884 69.9583 89.1107 66.2806 84.5738 66.2806C82.6195 66.2806 80.8314 66.9721 79.4225 68.1134C78.8655 69.4582 77.0932 70.4635 74.9331 70.6038V63.8125V63.724C79.275 63.6736 82.7807 60.142 82.7807 55.7879C82.7807 51.4324 79.275 47.9008 74.9331 47.8504V31.2946V28.4164V20.2227C75.3397 20.2227 75.7318 20.2414 76.1067 20.2752C76.6198 19.9068 76.9572 19.3096 76.9572 18.6303C76.9572 17.5135 76.0506 16.6069 74.9331 16.6069V14.8979C76.9947 14.8979 78.6662 16.5687 78.6662 18.6303C78.6662 19.37 78.4446 20.0529 78.0711 20.6292C78.9159 20.889 79.4433 21.2531 79.4433 21.6575C79.4433 21.9317 79.1958 22.1893 78.7727 22.4066C79.4642 23.0405 79.8801 23.8471 79.8801 24.7286C79.8801 26.0569 78.9353 27.2176 77.5221 27.8666C77.5955 29.7836 78.3611 31.2946 79.3066 31.2946H81.2293C81.2293 38.5946 82.6181 44.5015 84.3328 44.5015C85.7108 43.6611 87.3233 43.1675 89.0546 43.1675C90.5498 43.1675 91.9566 43.5359 93.2007 44.1749L97.626 40.3892L99.471 40.4526L99.9797 38.0363L104.813 35.1105L106.531 35.5559L106.976 37.2735L104.05 42.1061L101.633 42.6148L101.697 44.4605L97.6145 49.2334C97.9477 50.1789 98.1391 51.1921 98.1391 52.252C98.1391 54.7913 97.095 57.0839 95.4163 58.7324L96.1603 63.7283L100.478 59.7614V47.4849H103.896V56.6197L114.749 46.6459L119.666 61.9971L103.896 70.0094V75.7278H106.954V97.1349H124.043V100.013V117.883H120.805V100.013H106.954V115.844H104.315V117.883H101.617H100.418V115.844H74.9331V110.447Z" fill="white"/>
<path d="M86.3262 108.361H76.4624V106.442L78.8909 105.452L86.3262 98.5263V108.361Z" fill="white"/>
<path d="M77.4516 92.9485L81.0947 94.343V95.7821L76.4622 98.7949H74.9331V93.3536C74.9331 93.1298 76.0592 92.9485 77.4516 92.9485Z" fill="white"/>
<path d="M75.2031 125.316H49.6585V164.017L52.657 162.493V127.715H60.932V141.417L57.5903 159.316C57.5176 159.614 57.4601 159.916 57.4205 160.225L57.4039 160.318H57.4068C57.3708 160.63 57.3478 160.948 57.3478 161.268C57.3478 165.806 61.0255 169.484 65.5624 169.484C67.5167 169.484 69.3048 168.791 70.7137 167.65C71.2707 166.305 73.043 165.301 75.2031 165.161V171.952V172.041C70.8612 172.091 67.3555 175.623 67.3555 179.977C67.3555 184.331 70.8612 187.862 75.2031 187.913V204.469V207.347V215.54C74.7965 215.54 74.4044 215.522 74.0295 215.489C73.5164 215.856 73.179 216.454 73.179 217.134C73.179 218.25 74.0856 219.156 75.2031 219.156V220.865C73.1415 220.865 71.47 219.194 71.47 217.134C71.47 216.393 71.6916 215.712 72.0651 215.135C71.2203 214.874 70.6929 214.51 70.6929 214.107C70.6929 213.831 70.9404 213.575 71.3635 213.358C70.672 212.723 70.2561 211.917 70.2561 211.035C70.2561 209.706 71.2009 208.546 72.6141 207.897C72.5407 205.981 71.7751 204.469 70.8296 204.469H68.9069C68.9069 197.169 67.5181 191.262 65.8034 191.262C64.4255 192.102 62.8129 192.596 61.0816 192.596C59.5864 192.596 58.1796 192.227 56.9355 191.59L52.5102 195.374L50.6652 195.311L50.1565 197.728L45.3232 200.654L43.6056 200.209L43.1601 198.491L46.0859 193.658L48.5036 193.15L48.4396 191.304L52.5217 186.531C52.1885 185.586 51.9971 184.573 51.9971 183.511C51.9971 180.973 53.0412 178.679 54.72 177.031L53.9759 172.035L49.6585 176.002V188.278H46.2406V179.143L35.3874 189.117L30.4699 173.768L46.2406 165.754V160.035H43.1824V138.628H26.0928V135.75V117.882H29.3308V135.75H43.1824V119.92H45.8211V117.882H48.5195H49.7183V119.92H75.2031V125.316Z" fill="white"/>
<path d="M63.8103 127.403H73.6741V129.323L71.2456 130.312L63.8103 137.238V127.403Z" fill="white"/>
<path d="M72.6847 142.814L69.0415 141.42V139.981L73.6741 136.968H75.2031V142.409C75.2031 142.633 74.077 142.814 72.6847 142.814Z" fill="white"/>
<path d="M74.9331 125.316H100.478V164.017L97.4792 162.493V127.715H89.2042V141.417L92.5459 159.316C92.6186 159.614 92.6761 159.916 92.7157 160.225L92.7323 160.318H92.7294C92.7654 160.63 92.7884 160.948 92.7884 161.268C92.7884 165.806 89.1107 169.484 84.5738 169.484C82.6195 169.484 80.8314 168.791 79.4225 167.65C78.8655 166.305 77.0932 165.301 74.9331 165.161V171.952V172.041C79.275 172.091 82.7807 175.623 82.7807 179.977C82.7807 184.331 79.275 187.862 74.9331 187.913V204.469V207.347V215.54C75.3397 215.54 75.7318 215.522 76.1067 215.489C76.6198 215.856 76.9572 216.454 76.9572 217.134C76.9572 218.25 76.0506 219.156 74.9331 219.156V220.865C76.9947 220.865 78.6662 219.194 78.6662 217.134C78.6662 216.393 78.4446 215.712 78.0711 215.135C78.9159 214.874 79.4433 214.51 79.4433 214.107C79.4433 213.831 79.1958 213.575 78.7727 213.358C79.4642 212.723 79.8801 211.917 79.8801 211.035C79.8801 209.706 78.9353 208.546 77.5221 207.897C77.5955 205.981 78.3611 204.469 79.3066 204.469H81.2293C81.2293 197.169 82.6181 191.262 84.3328 191.262C85.7108 192.102 87.3233 192.596 89.0546 192.596C90.5498 192.596 91.9566 192.227 93.2007 191.59L97.626 195.374L99.471 195.311L99.9797 197.728L104.813 200.654L106.531 200.209L106.976 198.491L104.05 193.658L101.633 193.15L101.697 191.304L97.6145 186.531C97.9477 185.586 98.1391 184.573 98.1391 183.511C98.1391 180.973 97.095 178.679 95.4163 177.031L96.1603 172.035L100.478 176.002V188.278H103.896V179.143L114.749 189.117L119.666 173.768L103.896 165.754V160.035H106.954V138.628H124.043V135.75V117.882H120.805V135.75H106.954V119.92H104.315V117.882H101.617H100.418V119.92H74.9331V125.316Z" fill="white"/>
<path d="M86.3262 127.403H76.4624V129.323L78.8909 130.312L86.3262 137.238V127.403Z" fill="white"/>
<path d="M77.4516 142.814L81.0947 141.42V139.981L76.4622 136.968H74.9331V142.409C74.9331 142.633 76.0592 142.814 77.4516 142.814Z" fill="white"/>
<path d="M56.1879 27.9997C56.1879 28.9035 55.4546 29.6367 54.5502 29.6367H47.4085C46.5033 29.6367 45.77 28.9035 45.77 27.9997V20.8573C45.77 19.955 46.5033 19.2203 47.4085 19.2203H54.5502C55.4546 19.2203 56.1879 19.955 56.1879 20.8573V27.9997Z" fill="white"/>
<path d="M32.7853 121.264C32.7853 122.168 32.0521 122.902 31.1476 122.902H24.0059C23.1007 122.902 22.3674 122.168 22.3674 121.264V114.121C22.3674 113.219 23.1007 112.484 24.0059 112.484H31.1476C32.0521 112.484 32.7853 113.219 32.7853 114.121V121.264Z" fill="white"/>
<path d="M104.381 27.4084C104.381 28.3122 103.648 29.0469 102.744 29.0469H95.6018C94.6966 29.0469 93.9634 28.3122 93.9634 27.4084V20.2675C93.9634 19.3637 94.6966 18.629 95.6018 18.629H102.744C103.648 18.629 104.381 19.3637 104.381 20.2675V27.4084Z" fill="white"/>
<path d="M127.408 121.264C127.408 122.168 126.675 122.902 125.77 122.902H118.629C117.723 122.902 116.99 122.168 116.99 121.264V114.121C116.99 113.219 117.723 112.484 118.629 112.484H125.77C126.675 112.484 127.408 113.219 127.408 114.121V121.264Z" fill="white"/>
<path d="M104.381 215.496C104.381 216.4 103.648 217.135 102.744 217.135H95.6018C94.6966 217.135 93.9634 216.4 93.9634 215.496V208.355C93.9634 207.452 94.6966 206.717 95.6018 206.717H102.744C103.648 206.717 104.381 207.452 104.381 208.355V215.496Z" fill="white"/>
<path d="M55.8563 215.307C55.8563 216.211 55.1231 216.945 54.2186 216.945H47.0769C46.1717 216.945 45.4385 216.211 45.4385 215.307V208.166C45.4385 207.262 46.1717 206.527 47.0769 206.527H54.2186C55.1231 206.527 55.8563 207.262 55.8563 208.166V215.307Z" fill="white"/>
<path d="M79.0025 183.032C79.0025 183.737 78.4298 184.311 77.7231 184.311H72.1436C71.4363 184.311 70.8635 183.737 70.8635 183.032V177.452C70.8635 176.747 71.4363 176.172 72.1436 176.172H77.7231C78.4298 176.172 79.0025 176.747 79.0025 177.452V183.032Z" fill="white"/>
<path d="M79.2723 58.528C79.2723 59.2331 78.6995 59.8066 77.9929 59.8066H72.4134C71.7061 59.8066 71.1333 59.2331 71.1333 58.528V52.9485C71.1333 52.2433 71.7061 51.6684 72.4134 51.6684H77.9929C78.6995 51.6684 79.2723 52.2433 79.2723 52.9485V58.528Z" fill="white"/>
</svg>
