<svg width="52" height="9" viewBox="0 0 52 9" fill="none" xmlns="http://www.w3.org/2000/svg">
<path d="M8.46456 6.85857C8.46456 7.56374 7.89179 8.13867 7.18518 8.13867H1.60567C0.898336 8.13867 0.325562 7.56374 0.325562 6.85857V1.27906C0.325562 0.573883 0.898336 0.000389017 1.60567 0.000389017H7.18518C7.89179 0.000389017 8.46456 0.573883 8.46456 1.27906V6.85857Z" fill="white"/>
<path d="M19.2273 6.85857C19.2273 7.56374 18.6545 8.13867 17.9479 8.13867H12.3684C11.661 8.13867 11.0883 7.56374 11.0883 6.85857V1.27906C11.0883 0.573883 11.661 0.000389017 12.3684 0.000389017H17.9479C18.6545 0.000389017 19.2273 0.573883 19.2273 1.27906V6.85857Z" fill="white"/>
<path d="M30.0754 6.85857C30.0754 7.56374 29.5026 8.13867 28.796 8.13867H23.2165C22.5092 8.13867 21.9364 7.56374 21.9364 6.85857V1.27906C21.9364 0.573883 22.5092 0.000389017 23.2165 0.000389017H28.796C29.5026 0.000389017 30.0754 0.573883 30.0754 1.27906V6.85857Z" fill="white"/>
<path d="M40.8606 6.85857C40.8606 7.56374 40.2878 8.13867 39.5812 8.13867H34.0017C33.2943 8.13867 32.7216 7.56374 32.7216 6.85857V1.27906C32.7216 0.573883 33.2943 0.000389017 34.0017 0.000389017H39.5812C40.2878 0.000389017 40.8606 0.573883 40.8606 1.27906V6.85857Z" fill="white"/>
<path d="M51.7329 6.85857C51.7329 7.56374 51.1601 8.13867 50.4535 8.13867H44.874C44.1666 8.13867 43.5939 7.56374 43.5939 6.85857V1.27906C43.5939 0.573883 44.1666 0.000389017 44.874 0.000389017H50.4535C51.1601 0.000389017 51.7329 0.573883 51.7329 1.27906V6.85857Z" fill="white"/>
</svg>
