<svg width="150" height="235" viewBox="0 0 150 235" fill="none" xmlns="http://www.w3.org/2000/svg">
<path d="M88.7583 143.491C88.7583 145.875 86.8249 147.809 84.4409 147.809H65.6128C63.2289 147.809 61.2954 145.875 61.2954 143.491V124.663C61.2954 122.278 63.2289 120.346 65.6128 120.346H84.4409C86.8249 120.346 88.7583 122.278 88.7583 124.663V143.491Z" fill="#8D191E"/>
<path d="M88.3511 110.104C88.3511 112.488 86.4176 114.422 84.0337 114.422H65.2056C62.8217 114.422 60.8882 112.488 60.8882 110.104V91.2763C60.8882 88.8917 62.8217 86.9589 65.2056 86.9589H84.0337C86.4176 86.9589 88.3511 88.8917 88.3511 91.2763V110.104Z" fill="#8D191E"/>
</svg>
