<svg width="30" height="9" viewBox="0 0 30 9" fill="none" xmlns="http://www.w3.org/2000/svg">
<path d="M8.17953 6.86052C8.17953 7.56569 7.60676 8.14062 6.90014 8.14062H1.32063C0.613302 8.14062 0.0405273 7.56569 0.0405273 6.86052V1.28101C0.0405273 0.575836 0.613302 0.000903116 1.32063 0.000903116H6.90014C7.60676 0.000903116 8.17953 0.575836 8.17953 1.28101V6.86052Z" fill="white"/>
<path d="M18.9422 6.86052C18.9422 7.56569 18.3695 8.14062 17.6628 8.14062H12.0833C11.376 8.14062 10.8032 7.56569 10.8032 6.86052V1.28101C10.8032 0.575836 11.376 0.000903116 12.0833 0.000903116H17.6628C18.3695 0.000903116 18.9422 0.575836 18.9422 1.28101V6.86052Z" fill="white"/>
<path d="M29.7906 6.86052C29.7906 7.56569 29.2178 8.14062 28.5112 8.14062H22.9317C22.2244 8.14062 21.6516 7.56569 21.6516 6.86052V1.28101C21.6516 0.575836 22.2244 0.000903116 22.9317 0.000903116H28.5112C29.2178 0.000903116 29.7906 0.575836 29.7906 1.28101V6.86052Z" fill="white"/>
</svg>
