<svg width="150" height="235" viewBox="0 0 150 235" fill="none" xmlns="http://www.w3.org/2000/svg">
<path d="M87.9551 76.5381C87.9551 78.922 86.0216 80.8555 83.6377 80.8555H64.8096C62.4257 80.8555 60.4922 78.922 60.4922 76.5381V57.7099C60.4922 55.3253 62.4257 53.3925 64.8096 53.3925H83.6377C86.0216 53.3925 87.9551 55.3253 87.9551 57.7099V76.5381Z" fill="#8D191E"/>
<path d="M63.7134 107.524C63.7134 109.908 61.7799 111.842 59.396 111.842H40.5679C38.184 111.842 36.2505 109.908 36.2505 107.524V88.6963C36.2505 86.3116 38.184 84.3789 40.5679 84.3789H59.396C61.7799 84.3789 63.7134 86.3116 63.7134 88.6963V107.524Z" fill="#8D191E"/>
<path d="M113.418 107.524C113.418 109.908 111.485 111.842 109.101 111.842H90.2725C87.8886 111.842 85.9551 109.908 85.9551 107.524V88.6963C85.9551 86.3116 87.8886 84.3789 90.2725 84.3789H109.101C111.485 84.3789 113.418 86.3116 113.418 88.6963V107.524Z" fill="#8D191E"/>
<path d="M113.418 146.153C113.418 148.538 111.485 150.471 109.101 150.471H90.2725C87.8886 150.471 85.9551 148.538 85.9551 146.153V127.325C85.9551 124.941 87.8886 123.008 90.2725 123.008H109.101C111.485 123.008 113.418 124.941 113.418 127.325V146.153Z" fill="#8D191E"/>
<path d="M64.0205 146.153C64.0205 148.538 62.0871 150.471 59.7032 150.471H40.875C38.4911 150.471 36.5576 148.538 36.5576 146.153V127.325C36.5576 124.941 38.4911 123.008 40.875 123.008H59.7032C62.0871 123.008 64.0205 124.941 64.0205 127.325V146.153Z" fill="#8D191E"/>
<path d="M89.1756 177.138C89.1756 179.522 87.2421 181.455 84.8582 181.455H66.03C63.6461 181.455 61.7126 179.522 61.7126 177.138V158.31C61.7126 155.925 63.6461 153.992 66.03 153.992H84.8582C87.2421 153.992 89.1756 155.925 89.1756 158.31V177.138Z" fill="#8D191E"/>
</svg>
