<svg width="150" height="236" viewBox="0 0 150 236" fill="none" xmlns="http://www.w3.org/2000/svg">
<path d="M63.2078 128.175C63.2078 130.559 61.2743 132.492 58.8904 132.492H40.0623C37.6783 132.492 35.7449 130.559 35.7449 128.175V109.347C35.7449 106.962 37.6783 105.029 40.0623 105.029H58.8904C61.2743 105.029 63.2078 106.962 63.2078 109.347V128.175Z" fill="#8D191E"/>
<path d="M89.711 97.1865C89.711 99.5712 87.7775 101.504 85.3936 101.504H66.5654C64.1815 101.504 62.248 99.5712 62.248 97.1865V78.3584C62.248 75.9744 64.1815 74.041 66.5654 74.041H85.3936C87.7775 74.041 89.711 75.9744 89.711 78.3584V97.1865Z" fill="#8D191E"/>
<path d="M113.813 128.175C113.813 130.559 111.879 132.492 109.495 132.492H90.6672C88.2833 132.492 86.3499 130.559 86.3499 128.175V109.347C86.3499 106.962 88.2833 105.029 90.6672 105.029H109.495C111.879 105.029 113.813 106.962 113.813 109.347V128.175Z" fill="#8D191E"/>
<path d="M89.711 158.95C89.711 161.335 87.7775 163.268 85.3936 163.268H66.5654C64.1815 163.268 62.248 161.335 62.248 158.95V140.122C62.248 137.738 64.1815 135.805 66.5654 135.805H85.3936C87.7775 135.805 89.711 137.738 89.711 140.122V158.95Z" fill="#8D191E"/>
</svg>
