<svg width="20" height="9" viewBox="0 0 20 9" fill="none" xmlns="http://www.w3.org/2000/svg">
<path d="M8.27804 6.86C8.27804 7.56518 7.70527 8.13867 6.99865 8.13867H1.41914C0.711812 8.13867 0.139038 7.56518 0.139038 6.86V1.2805C0.139038 0.575321 0.711812 0.000389029 1.41914 0.000389029H6.99865C7.70527 0.000389029 8.27804 0.575321 8.27804 1.2805V6.86Z" fill="white"/>
<path d="M19.0405 6.86C19.0405 7.56518 18.4677 8.13867 17.7611 8.13867H12.1816C11.4743 8.13867 10.9015 7.56518 10.9015 6.86V1.2805C10.9015 0.575321 11.4743 0.000389029 12.1816 0.000389029H17.7611C18.4677 0.000389029 19.0405 0.575321 19.0405 1.2805V6.86Z" fill="white"/>
</svg>
