<svg width="149" height="235" viewBox="0 0 149 235" fill="none" xmlns="http://www.w3.org/2000/svg">
<path d="M97.9725 120.356C96.5305 120.356 95.3569 119.256 95.2123 117.852H86.8502C86.7761 121.088 85.4773 124.017 83.3935 126.196L89.3068 132.109C90.402 131.218 92.0088 131.27 93.0284 132.29C94.1171 133.378 94.1171 135.145 93.0284 136.234C91.939 137.322 90.1732 137.322 89.0845 136.234C88.0649 135.213 88.0131 133.606 88.9039 132.511L82.9912 126.599C80.8109 128.683 77.883 129.981 74.6472 130.055V138.418C76.051 138.563 77.1498 139.735 77.1498 141.177C77.1498 142.717 75.9007 143.965 74.3615 143.965C72.8216 143.965 71.5732 142.717 71.5732 141.177C71.5732 139.735 72.6727 138.561 74.0766 138.418V130.055C70.8407 129.981 67.9128 128.683 65.7318 126.599L59.8191 132.513C60.7092 133.607 60.6574 135.213 59.6378 136.234C58.5491 137.322 56.7833 137.322 55.6939 136.234C54.6052 135.145 54.6052 133.378 55.6939 132.29C56.7135 131.27 58.3217 131.218 59.4162 132.109L65.3296 126.196C63.2457 124.015 61.9476 121.088 61.8735 117.852H53.51C53.3654 119.256 52.1932 120.354 50.7512 120.354C49.2106 120.354 47.9629 119.107 47.9629 117.566C47.9629 116.027 49.2106 114.778 50.7512 114.778C52.1932 114.778 53.3668 115.878 53.51 117.282H61.8735C61.9469 114.045 63.2457 111.117 65.3296 108.937L59.4162 103.023C58.321 103.914 56.7142 103.862 55.6946 102.842C54.6059 101.754 54.6059 99.9871 55.6946 98.8998C56.7833 97.8104 58.5498 97.8104 59.6385 98.8998C60.6582 99.9187 60.71 101.526 59.8191 102.621L65.7318 108.535C67.9121 106.451 70.8407 105.152 74.0766 105.078V96.7152C72.6727 96.5706 71.5732 95.397 71.5732 93.9557C71.5732 92.4165 72.8231 91.1674 74.3615 91.1674C75.9021 91.1674 77.1498 92.4165 77.1498 93.9557C77.1498 95.397 76.051 96.5706 74.6472 96.7152V105.078C77.883 105.152 80.8109 106.451 82.9912 108.533L88.9039 102.621C88.0131 101.526 88.0656 99.9201 89.0852 98.8998C90.1739 97.8118 91.9397 97.8118 93.0284 98.8998C94.1178 99.9885 94.1178 101.755 93.0284 102.843C92.0088 103.863 90.402 103.915 89.3068 103.024L83.3942 108.937C85.478 111.117 86.7768 114.045 86.8502 117.282H95.2123C95.3569 115.878 96.5305 114.779 97.9725 114.779C99.5117 114.779 100.761 116.027 100.761 117.567C100.761 119.107 99.5117 120.356 97.9725 120.356ZM104.537 109.582C103.818 106.851 102.732 104.271 101.346 101.889V90.5824H90.0393C87.6554 89.1951 85.0751 88.11 82.3458 87.3904L74.3615 79.4069L66.378 87.3904C63.6472 88.11 61.0669 89.1951 58.683 90.5824H47.3779V101.889C45.9899 104.271 44.9062 106.851 44.1852 109.582L36.2009 117.566L44.1852 125.552C44.9062 128.281 45.9899 130.861 47.3779 133.245V144.55H58.683C61.0669 145.938 63.6472 147.022 66.3765 147.743L74.3615 155.727L82.3458 147.743C85.0765 147.022 87.6569 145.938 90.0393 144.55H101.346V133.245C102.732 130.861 103.818 128.281 104.537 125.552L112.523 117.566L104.537 109.582Z" fill="white"/>
<path d="M74.3619 156.594C52.6498 156.594 35.0486 138.993 35.0486 117.281C35.0486 95.5693 52.6498 77.9681 74.3619 77.9681C96.074 77.9681 113.675 95.5693 113.675 117.281C113.675 138.993 96.074 156.594 74.3619 156.594ZM74.3619 75.2769C51.1632 75.2769 32.3574 94.0841 32.3574 117.281C32.3574 140.48 51.1632 159.285 74.3619 159.285C97.5592 159.285 116.366 140.48 116.366 117.281C116.366 94.0841 97.5592 75.2769 74.3619 75.2769Z" fill="white"/>
</svg>
