<svg width="150" height="236" viewBox="0 0 150 236" fill="none" xmlns="http://www.w3.org/2000/svg">
<path d="M89.4258 91.5361C89.4258 93.9208 87.4923 95.8535 85.1084 95.8535H66.2803C63.8964 95.8535 61.9629 93.9208 61.9629 91.5361V72.708C61.9629 70.3241 63.8964 68.3906 66.2803 68.3906H85.1084C87.4923 68.3906 89.4258 70.3241 89.4258 72.708V91.5361Z" fill="#8D191E"/>
<path d="M56.0171 128.138C56.0171 130.522 54.0837 132.455 51.6997 132.455H32.8716C30.4877 132.455 28.5542 130.522 28.5542 128.138V109.31C28.5542 106.926 30.4877 104.992 32.8716 104.992H51.6997C54.0837 104.992 56.0171 106.926 56.0171 109.31V128.138Z" fill="#8D191E"/>
<path d="M88.5498 127.665C88.5498 130.05 86.6164 131.982 84.2325 131.982H65.4043C63.0204 131.982 61.0869 130.05 61.0869 127.665V108.837C61.0869 106.453 63.0204 104.519 65.4043 104.519H84.2325C86.6164 104.519 88.5498 106.453 88.5498 108.837V127.665Z" fill="#8D191E"/>
<path d="M120.902 128.138C120.902 130.522 118.969 132.455 116.585 132.455H97.7568C95.3729 132.455 93.4395 130.522 93.4395 128.138V109.31C93.4395 106.926 95.3729 104.992 97.7568 104.992H116.585C118.969 104.992 120.902 106.926 120.902 109.31V128.138Z" fill="#8D191E"/>
<path d="M88.5498 162.479C88.5498 164.864 86.6164 166.797 84.2325 166.797H65.4043C63.0204 166.797 61.0869 164.864 61.0869 162.479V143.651C61.0869 141.267 63.0204 139.334 65.4043 139.334H84.2325C86.6164 139.334 88.5498 141.267 88.5498 143.651V162.479Z" fill="#8D191E"/>
</svg>
