<svg width="150" height="235" viewBox="0 0 150 235" fill="none" xmlns="http://www.w3.org/2000/svg">
<path d="M98.1542 122.013C99.2768 120.069 101.112 120.069 102.234 122.013L113.39 141.336C114.512 143.28 113.595 144.869 111.351 144.869H89.0367C86.7931 144.869 85.8756 143.28 86.9974 141.336L98.1542 122.013Z" fill="#8D191E"/>
<path d="M48.4492 122.013C49.5717 120.069 51.4066 120.069 52.5291 122.013L63.6859 141.336C64.8077 143.28 63.8903 144.869 61.6467 144.869H39.3316C37.088 144.869 36.1705 143.28 37.2923 141.336L48.4492 122.013Z" fill="#8D191E"/>
<path d="M72.8945 91.0286C74.017 89.085 75.8519 89.085 76.9744 91.0286L88.1312 110.352C89.253 112.295 88.3356 113.885 86.092 113.885H63.7769C61.5333 113.885 60.6158 112.295 61.7376 110.352L72.8945 91.0286Z" fill="#8D191E"/>
</svg>
