<svg width="149" height="235" viewBox="0 0 149 235" fill="none" xmlns="http://www.w3.org/2000/svg">
<path d="M74.3633 149.193C68.801 149.193 63.5813 147.742 59.0502 145.21L69.6285 134.665L74.3633 144.595L79.0965 134.665L89.6763 145.21C85.1437 147.742 79.9248 149.193 74.3633 149.193ZM42.9162 118.152C43.0227 109.897 46.3147 102.415 51.61 96.8618L61.758 118.152L51.61 139.441C46.3147 133.888 43.0227 126.406 42.9162 118.152ZM74.3633 87.1096C79.9248 87.1096 85.1437 88.5595 89.6763 91.0931L79.0965 101.638L74.3633 91.7076L69.6285 101.638L59.0488 91.0931C63.5813 88.5595 68.801 87.1096 74.3633 87.1096ZM105.809 118.152C105.702 126.406 102.412 133.888 97.1166 139.441L86.9686 118.152L97.1166 96.8618C102.412 102.415 105.702 109.897 105.809 118.152ZM98.3715 142.073C98.4305 142.012 98.4909 141.951 98.5499 141.889C98.7233 141.711 98.896 141.533 99.063 141.351C99.2321 141.168 99.3961 140.981 99.5623 140.794C99.7293 140.604 99.8962 140.413 100.06 140.219C100.217 140.033 100.373 139.844 100.526 139.654C100.691 139.451 100.853 139.243 101.012 139.035C101.155 138.848 101.299 138.662 101.44 138.473C101.61 138.241 101.776 138.005 101.94 137.769C102.061 137.597 102.183 137.425 102.301 137.251C102.561 136.862 102.815 136.467 103.06 136.066C103.139 135.938 103.212 135.807 103.288 135.679C103.476 135.361 103.663 135.042 103.84 134.718C103.936 134.545 104.026 134.368 104.119 134.193C104.262 133.919 104.405 133.644 104.541 133.365C104.634 133.177 104.724 132.987 104.812 132.797C104.94 132.522 105.066 132.246 105.186 131.968C105.271 131.776 105.353 131.584 105.434 131.391C105.555 131.097 105.67 130.801 105.782 130.504C105.851 130.324 105.921 130.145 105.987 129.964C106.117 129.603 106.238 129.239 106.356 128.873C106.395 128.751 106.438 128.632 106.477 128.51C106.627 128.022 106.766 127.53 106.895 127.032C106.931 126.897 106.96 126.759 106.994 126.622C107.084 126.255 107.171 125.887 107.249 125.516C107.289 125.33 107.323 125.142 107.359 124.955C107.422 124.628 107.481 124.297 107.535 123.966C107.567 123.766 107.598 123.564 107.626 123.363C107.674 123.034 107.715 122.703 107.752 122.373C107.775 122.174 107.798 121.976 107.817 121.775C107.851 121.416 107.876 121.055 107.898 120.694C107.91 120.521 107.924 120.351 107.932 120.179C107.958 119.644 107.973 119.106 107.973 118.566C107.973 118.427 107.966 118.29 107.965 118.152C107.966 118.013 107.973 117.876 107.973 117.737C107.973 117.196 107.958 116.659 107.932 116.125C107.924 115.953 107.91 115.781 107.898 115.609C107.876 115.247 107.851 114.886 107.817 114.527C107.798 114.328 107.775 114.129 107.752 113.93C107.715 113.598 107.674 113.269 107.626 112.94C107.598 112.738 107.567 112.538 107.535 112.336C107.481 112.004 107.422 111.675 107.359 111.347C107.323 111.16 107.289 110.973 107.249 110.788C107.171 110.415 107.084 110.047 106.994 109.68C106.96 109.543 106.931 109.406 106.895 109.27C106.766 108.773 106.627 108.281 106.477 107.793C106.438 107.672 106.395 107.552 106.356 107.43C106.238 107.064 106.117 106.699 105.987 106.339C105.921 106.157 105.851 105.978 105.782 105.798C105.67 105.501 105.555 105.205 105.434 104.913C105.353 104.719 105.271 104.527 105.186 104.334C105.066 104.057 104.94 103.78 104.812 103.506C104.724 103.316 104.634 103.126 104.541 102.939C104.405 102.66 104.262 102.384 104.119 102.11C104.026 101.935 103.936 101.758 103.84 101.585C103.663 101.261 103.476 100.942 103.288 100.625C103.212 100.496 103.139 100.365 103.06 100.237C102.815 99.8358 102.561 99.4407 102.301 99.0522C102.183 98.8766 102.061 98.7068 101.94 98.5341C101.776 98.2981 101.61 98.0613 101.44 97.8296C101.299 97.6404 101.155 97.4547 101.012 97.2684C100.853 97.0597 100.691 96.8532 100.526 96.6481C100.373 96.4581 100.217 96.2703 100.06 96.084C99.8962 95.8904 99.7293 95.699 99.5623 95.509C99.3961 95.322 99.2321 95.1356 99.063 94.9514C98.896 94.7701 98.7233 94.5923 98.5499 94.4146C98.4909 94.3527 98.4305 94.2908 98.3715 94.2289L109.092 71.7397L91.7788 88.997C91.7076 88.9517 91.6371 88.9056 91.5637 88.8617C91.4414 88.7905 91.3183 88.7221 91.196 88.6509C90.2052 88.076 89.1834 87.5521 88.1307 87.0786C88.0011 87.0211 87.8731 86.9606 87.7442 86.9038C87.4392 86.7707 87.1297 86.6455 86.8196 86.5217C86.6678 86.4613 86.516 86.4001 86.3627 86.3418C86.0533 86.2238 85.7424 86.1101 85.4309 86.0015C85.2761 85.9468 85.1214 85.8957 84.9653 85.8446C84.6451 85.7374 84.3234 85.6338 83.9989 85.5366C83.8622 85.4963 83.7248 85.4582 83.5866 85.4193C83.2383 85.32 82.8915 85.2222 82.5382 85.1337L82.5627 85.1373L83.3679 70.1488L77.212 84.2493L77.289 84.2623C77.2825 84.2608 77.2768 84.2608 77.2696 84.2608C76.8033 84.2198 76.3334 84.186 75.8614 84.1651C75.3642 84.1414 74.8648 84.127 74.3633 84.127C73.8603 84.127 73.3609 84.1414 72.8651 84.1651C72.3931 84.186 71.9232 84.2198 71.4555 84.2608C71.4497 84.2608 71.4426 84.2608 71.4375 84.2623L71.5145 84.2493L65.3586 70.1488L66.1638 85.1373L66.1883 85.1337C65.835 85.2222 65.4867 85.32 65.1399 85.4193C65.0017 85.4582 64.8629 85.4963 64.7262 85.5366C64.4016 85.6338 64.08 85.7374 63.7598 85.8446C63.6051 85.8957 63.4504 85.9468 63.2957 86.0015C62.9827 86.1101 62.6718 86.2238 62.3638 86.3418C62.2091 86.4001 62.0573 86.4613 61.9055 86.5217C61.5968 86.6455 61.2874 86.7707 60.9823 86.9038C60.852 86.9606 60.7239 87.0211 60.5944 87.0786C59.5431 87.5521 58.5199 88.076 57.5291 88.6509C57.4075 88.7221 57.2837 88.7905 57.1628 88.8617C57.0894 88.9056 57.0189 88.9517 56.9462 88.997L39.6343 71.7397L50.355 94.2289C50.296 94.2908 50.2356 94.3527 50.1752 94.4146C50.0032 94.5923 49.8305 94.7701 49.6621 94.9514C49.493 95.1356 49.3289 95.322 49.1642 95.509C48.9958 95.699 48.8303 95.8904 48.6655 96.084C48.5079 96.2703 48.3539 96.4581 48.2007 96.6481C48.0345 96.8532 47.8733 97.0597 47.7128 97.2684C47.5696 97.4547 47.4257 97.6404 47.2868 97.8296C47.1156 98.0613 46.9508 98.2981 46.7867 98.5341C46.6658 98.7068 46.5421 98.8766 46.4255 99.0522C46.1643 99.4407 45.911 99.8358 45.6664 100.237C45.5879 100.365 45.5145 100.496 45.4376 100.625C45.249 100.942 45.0634 101.261 44.8849 101.585C44.7907 101.758 44.7007 101.935 44.6079 102.11C44.4633 102.384 44.3215 102.66 44.1841 102.939C44.0912 103.126 44.0027 103.316 43.9142 103.506C43.7847 103.78 43.6595 104.057 43.5386 104.336C43.4559 104.527 43.3731 104.719 43.2925 104.912C43.1716 105.204 43.0565 105.5 42.9443 105.797C42.8752 105.978 42.804 106.158 42.7392 106.339C42.6082 106.699 42.4873 107.063 42.3708 107.429C42.3312 107.551 42.288 107.67 42.2499 107.793C42.0981 108.281 41.9592 108.773 41.8297 109.27C41.7944 109.406 41.7649 109.543 41.7311 109.68C41.6411 110.047 41.5541 110.415 41.4771 110.788C41.4375 110.973 41.4037 111.16 41.3677 111.347C41.3044 111.675 41.2439 112.004 41.19 112.336C41.1583 112.538 41.1281 112.738 41.0986 112.94C41.0525 113.269 41.0101 113.598 40.9741 113.93C40.9511 114.129 40.9273 114.328 40.9093 114.527C40.8755 114.886 40.8503 115.247 40.8266 115.609C40.8165 115.781 40.8021 115.953 40.7942 116.125C40.7683 116.659 40.7532 117.196 40.7532 117.737C40.7532 117.876 40.759 118.013 40.7604 118.152C40.759 118.29 40.7532 118.427 40.7532 118.566C40.7532 119.106 40.7683 119.644 40.7942 120.179C40.8021 120.351 40.8165 120.521 40.8266 120.694C40.8503 121.055 40.8755 121.416 40.9093 121.775C40.9273 121.976 40.9511 122.174 40.9741 122.373C41.0101 122.703 41.0525 123.034 41.0986 123.363C41.1281 123.564 41.1583 123.766 41.19 123.966C41.2439 124.297 41.3044 124.628 41.3677 124.955C41.4037 125.142 41.4375 125.33 41.4771 125.516C41.5541 125.887 41.6411 126.255 41.7311 126.622C41.7649 126.759 41.7944 126.897 41.8297 127.032C41.9592 127.53 42.0981 128.022 42.2499 128.51C42.288 128.632 42.3312 128.753 42.3708 128.875C42.4873 129.24 42.6082 129.603 42.7392 129.962C42.804 130.145 42.8752 130.324 42.9443 130.505C43.0565 130.802 43.1716 131.099 43.2925 131.391C43.3731 131.584 43.4559 131.776 43.5386 131.967C43.6595 132.245 43.7847 132.522 43.9142 132.798C44.0027 132.987 44.0912 133.177 44.1841 133.365C44.3215 133.644 44.4633 133.919 44.6079 134.193C44.7007 134.368 44.7907 134.545 44.8849 134.718C45.0634 135.042 45.249 135.361 45.4376 135.679C45.5145 135.807 45.5879 135.938 45.6664 136.066C45.911 136.467 46.1643 136.862 46.4255 137.251C46.5421 137.425 46.6658 137.597 46.7867 137.769C46.9508 138.005 47.1156 138.241 47.2868 138.473C47.4257 138.662 47.5696 138.848 47.7128 139.035C47.8733 139.243 48.0345 139.451 48.2007 139.654C48.3539 139.844 48.5079 140.033 48.6655 140.219C48.8303 140.413 48.9958 140.604 49.1642 140.794C49.3289 140.981 49.493 141.168 49.6621 141.351C49.8305 141.533 50.0032 141.711 50.1752 141.889C50.2356 141.951 50.296 142.012 50.355 142.073L39.6343 164.563L56.9462 147.306C57.0189 147.35 57.0894 147.397 57.1628 147.44C57.2837 147.513 57.4075 147.581 57.5291 147.651C58.5199 148.226 59.5431 148.751 60.5944 149.224C60.7239 149.283 60.852 149.343 60.9823 149.399C61.2874 149.532 61.5968 149.657 61.9055 149.78C62.0573 149.842 62.2091 149.902 62.3638 149.961C62.6718 150.079 62.9827 150.192 63.2957 150.302C63.4504 150.355 63.6051 150.407 63.7598 150.459C64.08 150.565 64.4016 150.669 64.7262 150.767C64.8629 150.807 65.0017 150.844 65.1399 150.884C65.4867 150.982 65.835 151.082 66.1883 151.169L66.1638 151.166L65.3586 166.154L71.5145 152.054L71.4375 152.042C71.4426 152.042 71.4497 152.042 71.4555 152.043C71.9232 152.083 72.3931 152.117 72.8651 152.138C73.3609 152.162 73.8603 152.176 74.3633 152.176C74.8648 152.176 75.3642 152.162 75.8614 152.138C76.3334 152.117 76.8033 152.083 77.2696 152.043C77.2768 152.042 77.2825 152.042 77.289 152.042L77.212 152.054L83.3679 166.154L82.5627 151.166L82.5382 151.169C82.8915 151.082 83.2383 150.982 83.5866 150.884C83.7248 150.844 83.8622 150.807 83.9989 150.767C84.3234 150.669 84.6451 150.565 84.9653 150.459C85.1214 150.407 85.2761 150.355 85.4309 150.302C85.7424 150.192 86.0533 150.079 86.3627 149.961C86.516 149.902 86.6678 149.842 86.8196 149.781C87.1297 149.658 87.4392 149.532 87.7442 149.399C87.8731 149.343 88.0011 149.283 88.1307 149.224C89.1834 148.752 90.2052 148.226 91.196 147.651C91.3183 147.581 91.4414 147.513 91.5637 147.44C91.6356 147.397 91.7076 147.35 91.7788 147.307L109.092 164.563L98.3715 142.073Z" fill="white"/>
<path d="M74.3633 149.193C68.801 149.193 63.5813 147.742 59.0502 145.21L69.6285 134.665L74.3633 144.595L79.0965 134.665L89.6763 145.21C85.1437 147.742 79.9248 149.193 74.3633 149.193ZM42.9162 118.152C43.0227 109.897 46.3147 102.415 51.61 96.8618L61.758 118.152L51.61 139.441C46.3147 133.888 43.0227 126.406 42.9162 118.152ZM74.3633 87.1096C79.9248 87.1096 85.1437 88.5595 89.6763 91.0931L79.0965 101.638L74.3633 91.7076L69.6285 101.638L59.0488 91.0931C63.5813 88.5595 68.801 87.1096 74.3633 87.1096ZM105.809 118.152C105.702 126.406 102.412 133.888 97.1166 139.441L86.9686 118.152L97.1166 96.8618C102.412 102.415 105.702 109.897 105.809 118.152ZM98.3715 142.073C98.4305 142.012 98.4909 141.951 98.5499 141.889C98.7233 141.711 98.896 141.533 99.063 141.351C99.2321 141.168 99.3961 140.981 99.5623 140.794C99.7293 140.604 99.8962 140.413 100.06 140.219C100.217 140.033 100.373 139.844 100.526 139.654C100.691 139.451 100.853 139.243 101.012 139.035C101.155 138.848 101.299 138.662 101.44 138.473C101.61 138.241 101.776 138.005 101.94 137.769C102.061 137.597 102.183 137.425 102.301 137.251C102.561 136.862 102.815 136.467 103.06 136.066C103.139 135.938 103.212 135.807 103.288 135.679C103.476 135.361 103.663 135.042 103.84 134.718C103.936 134.545 104.026 134.368 104.119 134.193C104.262 133.919 104.405 133.644 104.541 133.365C104.634 133.177 104.724 132.987 104.812 132.797C104.94 132.522 105.066 132.246 105.186 131.968C105.271 131.776 105.353 131.584 105.434 131.391C105.555 131.097 105.67 130.801 105.782 130.504C105.851 130.324 105.921 130.145 105.987 129.964C106.117 129.603 106.238 129.239 106.356 128.873C106.395 128.751 106.438 128.632 106.477 128.51C106.627 128.022 106.766 127.53 106.895 127.032C106.931 126.897 106.96 126.759 106.994 126.622C107.084 126.255 107.171 125.887 107.249 125.516C107.289 125.33 107.323 125.142 107.359 124.955C107.422 124.628 107.481 124.297 107.535 123.966C107.567 123.766 107.598 123.564 107.626 123.363C107.674 123.034 107.715 122.703 107.752 122.373C107.775 122.174 107.798 121.976 107.817 121.775C107.851 121.416 107.876 121.055 107.898 120.694C107.91 120.521 107.924 120.351 107.932 120.179C107.958 119.644 107.973 119.106 107.973 118.566C107.973 118.427 107.966 118.29 107.965 118.152C107.966 118.013 107.973 117.876 107.973 117.737C107.973 117.196 107.958 116.659 107.932 116.125C107.924 115.953 107.91 115.781 107.898 115.609C107.876 115.247 107.851 114.886 107.817 114.527C107.798 114.328 107.775 114.129 107.752 113.93C107.715 113.598 107.674 113.269 107.626 112.94C107.598 112.738 107.567 112.538 107.535 112.336C107.481 112.004 107.422 111.675 107.359 111.347C107.323 111.16 107.289 110.973 107.249 110.788C107.171 110.415 107.084 110.047 106.994 109.68C106.96 109.543 106.931 109.406 106.895 109.27C106.766 108.773 106.627 108.281 106.477 107.793C106.438 107.672 106.395 107.552 106.356 107.43C106.238 107.064 106.117 106.699 105.987 106.339C105.921 106.157 105.851 105.978 105.782 105.798C105.67 105.501 105.555 105.205 105.434 104.913C105.353 104.719 105.271 104.527 105.186 104.334C105.066 104.057 104.94 103.78 104.812 103.506C104.724 103.316 104.634 103.126 104.541 102.939C104.405 102.66 104.262 102.384 104.119 102.11C104.026 101.935 103.936 101.758 103.84 101.585C103.663 101.261 103.476 100.942 103.288 100.625C103.212 100.496 103.139 100.365 103.06 100.237C102.815 99.8358 102.561 99.4407 102.301 99.0522C102.183 98.8766 102.061 98.7068 101.94 98.5341C101.776 98.2981 101.61 98.0613 101.44 97.8296C101.299 97.6404 101.155 97.4547 101.012 97.2684C100.853 97.0597 100.691 96.8532 100.526 96.6481C100.373 96.4581 100.217 96.2703 100.06 96.084C99.8962 95.8904 99.7293 95.699 99.5623 95.509C99.3961 95.322 99.2321 95.1356 99.063 94.9514C98.896 94.7701 98.7233 94.5923 98.5499 94.4146C98.4909 94.3527 98.4305 94.2908 98.3715 94.2289L109.092 71.7397L91.7788 88.997C91.7076 88.9517 91.6371 88.9056 91.5637 88.8617C91.4414 88.7905 91.3183 88.7221 91.196 88.6509C90.2052 88.076 89.1834 87.5521 88.1307 87.0786C88.0011 87.0211 87.8731 86.9606 87.7442 86.9038C87.4392 86.7707 87.1297 86.6455 86.8196 86.5217C86.6678 86.4613 86.516 86.4001 86.3627 86.3418C86.0533 86.2238 85.7424 86.1101 85.4309 86.0015C85.2761 85.9468 85.1214 85.8957 84.9653 85.8446C84.6451 85.7374 84.3234 85.6338 83.9989 85.5366C83.8622 85.4963 83.7248 85.4582 83.5866 85.4193C83.2383 85.32 82.8915 85.2222 82.5382 85.1337L82.5627 85.1373L83.3679 70.1488L77.212 84.2493L77.289 84.2623C77.2825 84.2608 77.2768 84.2608 77.2696 84.2608C76.8033 84.2198 76.3334 84.186 75.8614 84.1651C75.3642 84.1414 74.8648 84.127 74.3633 84.127C73.8603 84.127 73.3609 84.1414 72.8651 84.1651C72.3931 84.186 71.9232 84.2198 71.4555 84.2608C71.4497 84.2608 71.4426 84.2608 71.4375 84.2623L71.5145 84.2493L65.3586 70.1488L66.1638 85.1373L66.1883 85.1337C65.835 85.2222 65.4867 85.32 65.1399 85.4193C65.0017 85.4582 64.8629 85.4963 64.7262 85.5366C64.4016 85.6338 64.08 85.7374 63.7598 85.8446C63.6051 85.8957 63.4504 85.9468 63.2957 86.0015C62.9827 86.1101 62.6718 86.2238 62.3638 86.3418C62.2091 86.4001 62.0573 86.4613 61.9055 86.5217C61.5968 86.6455 61.2874 86.7707 60.9823 86.9038C60.852 86.9606 60.7239 87.0211 60.5944 87.0786C59.5431 87.5521 58.5199 88.076 57.5291 88.6509C57.4075 88.7221 57.2837 88.7905 57.1628 88.8617C57.0894 88.9056 57.0189 88.9517 56.9462 88.997L39.6343 71.7397L50.355 94.2289C50.296 94.2908 50.2356 94.3527 50.1752 94.4146C50.0032 94.5923 49.8305 94.7701 49.6621 94.9514C49.493 95.1356 49.3289 95.322 49.1642 95.509C48.9958 95.699 48.8303 95.8904 48.6655 96.084C48.5079 96.2703 48.3539 96.4581 48.2007 96.6481C48.0345 96.8532 47.8733 97.0597 47.7128 97.2684C47.5696 97.4547 47.4257 97.6404 47.2868 97.8296C47.1156 98.0613 46.9508 98.2981 46.7867 98.5341C46.6658 98.7068 46.5421 98.8766 46.4255 99.0522C46.1643 99.4407 45.911 99.8358 45.6664 100.237C45.5879 100.365 45.5145 100.496 45.4376 100.625C45.249 100.942 45.0634 101.261 44.8849 101.585C44.7907 101.758 44.7007 101.935 44.6079 102.11C44.4633 102.384 44.3215 102.66 44.1841 102.939C44.0912 103.126 44.0027 103.316 43.9142 103.506C43.7847 103.78 43.6595 104.057 43.5386 104.336C43.4559 104.527 43.3731 104.719 43.2925 104.912C43.1716 105.204 43.0565 105.5 42.9443 105.797C42.8752 105.978 42.804 106.158 42.7392 106.339C42.6082 106.699 42.4873 107.063 42.3708 107.429C42.3312 107.551 42.288 107.67 42.2499 107.793C42.0981 108.281 41.9592 108.773 41.8297 109.27C41.7944 109.406 41.7649 109.543 41.7311 109.68C41.6411 110.047 41.5541 110.415 41.4771 110.788C41.4375 110.973 41.4037 111.16 41.3677 111.347C41.3044 111.675 41.2439 112.004 41.19 112.336C41.1583 112.538 41.1281 112.738 41.0986 112.94C41.0525 113.269 41.0101 113.598 40.9741 113.93C40.9511 114.129 40.9273 114.328 40.9093 114.527C40.8755 114.886 40.8503 115.247 40.8266 115.609C40.8165 115.781 40.8021 115.953 40.7942 116.125C40.7683 116.659 40.7532 117.196 40.7532 117.737C40.7532 117.876 40.759 118.013 40.7604 118.152C40.759 118.29 40.7532 118.427 40.7532 118.566C40.7532 119.106 40.7683 119.644 40.7942 120.179C40.8021 120.351 40.8165 120.521 40.8266 120.694C40.8503 121.055 40.8755 121.416 40.9093 121.775C40.9273 121.976 40.9511 122.174 40.9741 122.373C41.0101 122.703 41.0525 123.034 41.0986 123.363C41.1281 123.564 41.1583 123.766 41.19 123.966C41.2439 124.297 41.3044 124.628 41.3677 124.955C41.4037 125.142 41.4375 125.33 41.4771 125.516C41.5541 125.887 41.6411 126.255 41.7311 126.622C41.7649 126.759 41.7944 126.897 41.8297 127.032C41.9592 127.53 42.0981 128.022 42.2499 128.51C42.288 128.632 42.3312 128.753 42.3708 128.875C42.4873 129.24 42.6082 129.603 42.7392 129.962C42.804 130.145 42.8752 130.324 42.9443 130.505C43.0565 130.802 43.1716 131.099 43.2925 131.391C43.3731 131.584 43.4559 131.776 43.5386 131.967C43.6595 132.245 43.7847 132.522 43.9142 132.798C44.0027 132.987 44.0912 133.177 44.1841 133.365C44.3215 133.644 44.4633 133.919 44.6079 134.193C44.7007 134.368 44.7907 134.545 44.8849 134.718C45.0634 135.042 45.249 135.361 45.4376 135.679C45.5145 135.807 45.5879 135.938 45.6664 136.066C45.911 136.467 46.1643 136.862 46.4255 137.251C46.5421 137.425 46.6658 137.597 46.7867 137.769C46.9508 138.005 47.1156 138.241 47.2868 138.473C47.4257 138.662 47.5696 138.848 47.7128 139.035C47.8733 139.243 48.0345 139.451 48.2007 139.654C48.3539 139.844 48.5079 140.033 48.6655 140.219C48.8303 140.413 48.9958 140.604 49.1642 140.794C49.3289 140.981 49.493 141.168 49.6621 141.351C49.8305 141.533 50.0032 141.711 50.1752 141.889C50.2356 141.951 50.296 142.012 50.355 142.073L39.6343 164.563L56.9462 147.306C57.0189 147.35 57.0894 147.397 57.1628 147.44C57.2837 147.513 57.4075 147.581 57.5291 147.651C58.5199 148.226 59.5431 148.751 60.5944 149.224C60.7239 149.283 60.852 149.343 60.9823 149.399C61.2874 149.532 61.5968 149.657 61.9055 149.78C62.0573 149.842 62.2091 149.902 62.3638 149.961C62.6718 150.079 62.9827 150.192 63.2957 150.302C63.4504 150.355 63.6051 150.407 63.7598 150.459C64.08 150.565 64.4016 150.669 64.7262 150.767C64.8629 150.807 65.0017 150.844 65.1399 150.884C65.4867 150.982 65.835 151.082 66.1883 151.169L66.1638 151.166L65.3586 166.154L71.5145 152.054L71.4375 152.042C71.4426 152.042 71.4497 152.042 71.4555 152.043C71.9232 152.083 72.3931 152.117 72.8651 152.138C73.3609 152.162 73.8603 152.176 74.3633 152.176C74.8648 152.176 75.3642 152.162 75.8614 152.138C76.3334 152.117 76.8033 152.083 77.2696 152.043C77.2768 152.042 77.2825 152.042 77.289 152.042L77.212 152.054L83.3679 166.154L82.5627 151.166L82.5382 151.169C82.8915 151.082 83.2383 150.982 83.5866 150.884C83.7248 150.844 83.8622 150.807 83.9989 150.767C84.3234 150.669 84.6451 150.565 84.9653 150.459C85.1214 150.407 85.2761 150.355 85.4309 150.302C85.7424 150.192 86.0533 150.079 86.3627 149.961C86.516 149.902 86.6678 149.842 86.8196 149.781C87.1297 149.658 87.4392 149.532 87.7442 149.399C87.8731 149.343 88.0011 149.283 88.1307 149.224C89.1834 148.752 90.2052 148.226 91.196 147.651C91.3183 147.581 91.4414 147.513 91.5637 147.44C91.6356 147.397 91.7076 147.35 91.7788 147.307L109.092 164.563L98.3715 142.073Z" stroke="white" stroke-width="1.33333" stroke-miterlimit="10"/>
</svg>
