<svg width="63" height="10" viewBox="0 0 63 10" fill="none" xmlns="http://www.w3.org/2000/svg">
<path d="M2.66926 2.309C3.79178 0.366177 5.62666 0.366177 6.74918 2.309L8.79993 5.8622C9.92173 7.80502 9.00429 9.39453 6.76069 9.39453H2.65775C0.414148 9.39453 -0.503294 7.80502 0.618504 5.8622L2.66926 2.309Z" fill="white"/>
<path d="M24.213 2.309C25.3355 0.366177 27.1704 0.366177 28.2929 2.309L30.3436 5.8622C31.4654 7.80502 30.548 9.39453 28.3044 9.39453H24.2014C21.9578 9.39453 21.0404 7.80502 22.1622 5.8622L24.213 2.309Z" fill="white"/>
<path d="M35.2237 2.309C36.3462 0.366177 38.1811 0.366177 39.3036 2.309L41.3544 5.8622C42.4762 7.80502 41.5587 9.39453 39.3151 9.39453H35.2122C32.9686 9.39453 32.0511 7.80502 33.1729 5.8622L35.2237 2.309Z" fill="white"/>
<path d="M45.8653 2.23282C46.9878 0.290005 48.8227 0.290005 49.9452 2.23282L51.996 5.78603C53.1178 7.72885 52.2003 9.31836 49.9567 9.31836H45.8538C43.6102 9.31836 42.6928 7.72885 43.8145 5.78603L45.8653 2.23282Z" fill="white"/>
<path d="M56.1605 2.41251C57.283 0.469693 59.1179 0.469693 60.2404 2.41251L62.2911 5.96571C63.4129 7.90853 62.4955 9.49805 60.2519 9.49805H56.149C53.9054 9.49805 52.9879 7.90853 54.1097 5.96571L56.1605 2.41251Z" fill="white"/>
<path d="M13.4317 2.309C14.5542 0.366177 16.3891 0.366177 17.5116 2.309L19.5624 5.8622C20.6842 7.80502 19.7667 9.39453 17.5231 9.39453H13.4202C11.1766 9.39453 10.2592 7.80502 11.381 5.8622L13.4317 2.309Z" fill="white"/>
</svg>
