<svg width="42" height="10" viewBox="0 0 42 10" fill="none" xmlns="http://www.w3.org/2000/svg">
<path d="M2.64021 2.41251C3.76272 0.469693 5.59761 0.469693 6.72013 2.41251L8.77088 5.96571C9.89268 7.90853 8.97524 9.49805 6.73164 9.49805H2.62869C0.385096 9.49805 -0.532347 7.90853 0.589452 5.96571L2.64021 2.41251Z" fill="white"/>
<path d="M24.1842 2.41251C25.3067 0.469693 27.1416 0.469693 28.2641 2.41251L30.3148 5.96571C31.4366 7.90853 30.5192 9.49805 28.2756 9.49805H24.1726C21.929 9.49805 21.0116 7.90853 22.1334 5.96571L24.1842 2.41251Z" fill="white"/>
<path d="M35.1946 2.41251C36.3172 0.469693 38.1521 0.469693 39.2746 2.41251L41.3253 5.96571C42.4471 7.90853 41.5297 9.49805 39.2861 9.49805H35.1831C32.9395 9.49805 32.0221 7.90853 33.1439 5.96571L35.1946 2.41251Z" fill="white"/>
<path d="M13.4027 2.41251C14.5252 0.469693 16.3601 0.469693 17.4826 2.41251L19.5333 5.96571C20.6551 7.90853 19.7377 9.49805 17.4941 9.49805H13.3911C11.1475 9.49805 10.2301 7.90853 11.3519 5.96571L13.4027 2.41251Z" fill="white"/>
</svg>
