<svg width="150" height="235" viewBox="0 0 150 235" fill="none" xmlns="http://www.w3.org/2000/svg">
<path d="M98.153 122.013C99.2755 120.069 101.11 120.069 102.233 122.013L113.39 141.336C114.512 143.28 113.594 144.869 111.351 144.869H89.0354C86.7918 144.869 85.8744 143.28 86.9962 141.336L98.153 122.013Z" fill="#8D191E"/>
<path d="M48.4477 122.013C49.5702 120.069 51.4051 120.069 52.5276 122.013L63.6852 141.336C64.807 143.28 63.8895 144.869 61.6459 144.869H39.3308C37.0872 144.869 36.1698 143.28 37.2916 141.336L48.4477 122.013Z" fill="#8D191E"/>
<path d="M72.8933 91.0279C74.0158 89.085 75.8507 89.0858 76.9732 91.0279L88.1307 110.352C89.2525 112.295 88.3351 113.885 86.0915 113.885H63.7764C61.5328 113.885 60.6154 112.295 61.7372 110.352L72.8933 91.0279Z" fill="#8D191E"/>
<path d="M52.1214 112.75C50.9988 114.693 49.164 114.693 48.0414 112.75L36.8846 93.4261C35.7628 91.4825 36.6803 89.893 38.9239 89.893H61.2382C63.4818 89.893 64.3993 91.4825 63.2775 93.4261L52.1214 112.75Z" fill="#8D191E"/>
<path d="M101.826 112.75C100.704 114.693 98.8688 114.693 97.7463 112.75L86.5902 93.4261C85.4684 91.4825 86.3858 89.893 88.6294 89.893H110.944C113.187 89.893 114.105 91.4825 112.983 93.4261L101.826 112.75Z" fill="#8D191E"/>
<path d="M77.3807 143.736C76.2581 145.679 74.4232 145.679 73.3007 143.736L62.1446 124.413C61.0228 122.469 61.9403 120.88 64.1839 120.88H86.4982C88.7418 120.88 89.6593 122.469 88.5375 124.413L77.3807 143.736Z" fill="#8D191E"/>
</svg>
