<svg width="150" height="236" viewBox="0 0 150 236" fill="none" xmlns="http://www.w3.org/2000/svg">
<path d="M97.7917 122.883C98.9142 120.941 100.749 120.941 101.872 122.883L113.029 142.207C114.151 144.15 113.234 145.74 110.99 145.74H88.6748C86.4312 145.74 85.5138 144.151 86.6356 142.207L97.7917 122.883Z" fill="#8D191E"/>
<path d="M48.0871 122.883C49.2096 120.94 51.0445 120.94 52.167 122.883L63.3239 142.207C64.4457 144.151 63.5282 145.74 61.2846 145.74H38.9702C36.7266 145.74 35.8092 144.151 36.931 142.207L48.0871 122.883Z" fill="#8D191E"/>
<path d="M72.5324 91.8958C73.6549 89.9522 75.4898 89.9522 76.6123 91.8958L87.7692 111.219C88.891 113.162 87.9735 114.752 85.7299 114.752H63.4156C61.172 114.752 60.2545 113.162 61.3763 111.219L72.5324 91.8958Z" fill="#8D191E"/>
<path d="M77.0198 144.605C75.8973 146.548 74.0624 146.548 72.9399 144.605L61.7831 125.282C60.6613 123.338 61.5787 121.748 63.8223 121.748H86.1367C88.3803 121.748 89.2977 123.338 88.1759 125.282L77.0198 144.605Z" fill="#8D191E"/>
</svg>
