<svg width="32" height="10" viewBox="0 0 32 10" fill="none" xmlns="http://www.w3.org/2000/svg">
<path d="M2.95769 2.41251C4.07949 0.469693 5.91438 0.469693 7.03618 2.41251L9.08837 5.96571C10.2094 7.90853 9.29201 9.49805 7.04769 9.49805H2.94618C0.701865 9.49805 -0.215578 7.90853 0.905501 5.96571L2.95769 2.41251Z" fill="white"/>
<path d="M24.5016 2.41251C25.6234 0.469693 27.4583 0.469693 28.5801 2.41251L30.6323 5.96571C31.7534 7.90853 30.836 9.49805 28.5916 9.49805H24.4901C22.2458 9.49805 21.3284 7.90853 22.4494 5.96571L24.5016 2.41251Z" fill="white"/>
<path d="M13.7201 2.41251C14.8419 0.469693 16.6768 0.469693 17.7986 2.41251L19.8508 5.96571C20.9719 7.90853 20.0545 9.49805 17.8101 9.49805H13.7086C11.4643 9.49805 10.5469 7.90853 11.668 5.96571L13.7201 2.41251Z" fill="white"/>
</svg>
