<svg width="149" height="236" viewBox="0 0 149 236" fill="none" xmlns="http://www.w3.org/2000/svg">
<path d="M64.5125 69.4434H70.8986V58.9644H69.6394V56.6258H70.8986V51.1391C68.2636 51.1391 66.1315 47.9615 66.1315 44.0334C66.1315 42.1194 67.0166 40.5709 68.1103 40.5709V37.1076C62.0444 37.1076 57.137 40.2054 57.137 44.0334V56.6258C61.214 56.6258 64.5125 62.3585 64.5125 69.4434Z" fill="white"/>
<path d="M74.6314 76.416L77.8918 73.2679L74.6314 70.1198L71.3711 73.2679L74.6314 76.416Z" fill="white"/>
<path d="M92.1257 56.6277V44.0354C92.1257 40.2073 87.2182 37.1096 81.1523 37.1096V40.5721C82.2461 40.5721 83.1311 42.1214 83.1311 44.0354C83.1311 47.9628 80.9991 51.1411 78.364 51.1411V56.6277H79.6232V58.9663H78.364V69.4453H84.7501C84.7501 62.3605 88.0486 56.6277 92.1257 56.6277Z" fill="white"/>
<path d="M57.1377 179.134V191.727C57.1377 195.555 62.0451 198.652 68.111 198.652V195.19C67.0173 195.19 66.1322 193.641 66.1322 191.727C66.1322 187.799 68.2643 184.621 70.8993 184.621V179.134H69.6401V176.796H70.8993V166.317H64.5132C64.5132 173.401 61.2147 179.134 57.1377 179.134Z" fill="white"/>
<path d="M84.7506 166.317H78.3645V176.796H79.6237V179.134H78.3645V184.621C80.9995 184.621 83.1316 187.798 83.1316 191.727C83.1316 193.641 82.2465 195.189 81.1528 195.189V198.652C87.2187 198.652 92.1261 195.555 92.1261 191.727V179.134C88.0491 179.134 84.7506 173.401 84.7506 166.317Z" fill="white"/>
<path d="M74.6319 159.344L71.3716 162.493L74.6319 165.641L77.8923 162.493L74.6319 159.344Z" fill="white"/>
<path d="M84.75 69.4447L84.7421 69.436L83.5735 73.6016L85.8164 74.2305L87.3656 68.7093L84.75 69.4447Z" fill="white"/>
<path d="M64.5055 69.4447L64.5134 69.436L65.682 73.6016L63.4391 74.2305L61.8899 68.7093L64.5055 69.4447Z" fill="white"/>
<path d="M84.7536 166.302L84.7457 166.31L83.5771 162.145L85.82 161.516L87.3692 167.037L84.7536 166.302Z" fill="white"/>
<path d="M64.5087 166.302L64.5166 166.31L65.6852 162.145L63.4423 161.516L61.8931 167.037L64.5087 166.302Z" fill="white"/>
<path d="M77.8918 73.2386L74.6314 70.0905L71.3704 73.2386L74.6314 76.3867L77.8918 73.2386Z" fill="white"/>
<path d="M71.3716 162.465L74.6319 165.613L77.893 162.465L74.6319 159.317L71.3716 162.465Z" fill="white"/>
<path d="M57.1377 179.103V191.695C57.1377 195.523 62.0451 198.621 68.111 198.621V195.159C67.0173 195.159 66.1322 193.609 66.1322 191.695C66.1322 187.768 68.2643 184.59 70.8993 184.59V179.103H69.6401V176.764H70.8993V166.285H64.5132C64.5132 173.37 61.2147 179.103 57.1377 179.103Z" fill="white"/>
<path d="M84.7506 166.285H78.3645V176.764H79.6237V179.103H78.3645V184.59C80.9995 184.59 83.1316 187.767 83.1316 191.695C83.1316 193.609 82.2465 195.158 81.1528 195.158V198.621C87.2187 198.621 92.1261 195.523 92.1261 191.695V179.103C88.0491 179.103 84.7506 173.37 84.7506 166.285Z" fill="white"/>
<path d="M64.5154 69.416H70.8986V58.937H69.6394V56.5984H70.8986V51.1118C68.2636 51.1118 66.1315 47.9342 66.1315 44.0061C66.1315 42.0921 67.0173 40.5436 68.1103 40.5436V37.0803C62.0444 37.0803 57.137 40.178 57.137 44.0061V56.5984C61.2126 56.5984 64.5096 62.3276 64.5125 69.4081L64.5132 69.4074L64.5154 69.416Z" fill="white"/>
<path fill-rule="evenodd" clip-rule="evenodd" d="M112.633 132.7H129.165V117.881H129.165V103.062H112.633V104.389L112.633 117.881V131.373V132.7ZM107.147 155.478H107.597V130.743L103.099 126.965L96.8031 121.677H92.1259V123.457V128.135H96.8031H103.099V151.97L107.147 155.478ZM82.052 139.468L96.8031 148.732V133.801H92.1259V139.468H82.052ZM52.46 133.801V148.732L67.211 139.468H57.1372V133.801H52.46ZM46.1638 151.97V128.135H52.46H57.1372V123.457V121.677H52.46L46.1638 126.965L41.6666 130.743V155.478H42.1163L46.1638 151.97ZM42.1156 80.2836H41.6658V105.019L46.1631 108.796L52.4593 114.085H57.1364V112.304V107.627H52.4593H46.1631V83.7915L42.1156 80.2836ZM36.6296 132.7V131.373L36.6289 117.881V104.389V103.062H20.0977L20.0984 117.881V132.7H36.6296ZM67.2103 96.2939L52.4593 87.0295V101.96H57.1364V96.2939H67.2103ZM96.8023 101.96V87.0295L82.0513 96.2939H92.1252V101.96H96.8023ZM103.099 83.7915V107.627H96.8023H92.1252V112.304V114.085H96.8023L103.099 108.796L107.596 105.019V80.2836H107.146L103.099 83.7915ZM132.511 99.7118V117.881L132.511 136.05H113.263V159.346L103.099 165.012V204.228H97.5226V166.991L93.3851 168.97V175.626C90.0572 175.626 87.3638 171.77 87.3595 167.003L87.3689 167.006L87.3638 166.989L91.5862 165.642L81.1526 149.272V141.536H74.6319H68.1105V149.272L57.6768 165.642L61.8985 166.989L63.442 161.484L65.6848 162.113L64.5163 166.279L64.5091 166.27L61.9035 167.003C61.9 171.77 59.2059 175.626 55.8779 175.626V168.97L51.7404 166.991V204.228H46.1638V165.012L36 159.346V136.05H16.7517L16.751 117.881V99.7118H35.9993V76.4159L46.1631 70.7494V31.5332H51.7397V68.7706L55.8772 66.7918V60.1358C59.1872 60.1358 61.8676 63.951 61.9014 68.6821L61.8899 68.6792L61.9021 68.7238C61.9021 68.7396 61.9035 68.7548 61.9035 68.7706L57.6761 70.1198L68.1098 86.4898V94.2251H74.6312H81.1519V86.4898L91.5855 70.1198L87.3581 68.7706C87.3581 68.7454 87.361 68.7202 87.361 68.695L85.8168 74.2011L83.5739 73.5722L84.7403 69.4153H78.3635V58.9363H79.6228V56.5977H78.3635V51.1111C80.9993 51.1111 83.1307 47.9328 83.1307 44.0054C83.1307 42.0914 82.2456 40.5428 81.1519 40.5428V37.0796C87.2178 37.0796 92.1252 40.1773 92.1252 44.0054V56.5977C88.0481 56.5977 84.7497 62.3305 84.7497 69.4153L87.361 68.6806C87.3955 63.9502 90.0751 60.1358 93.3844 60.1358V66.7918L97.5219 68.7706V31.5332H103.099V70.7494L113.262 76.4159V99.7118H132.511ZM76.6704 103.621C75.5479 101.679 73.713 101.679 72.5905 103.621L61.4344 122.945C60.3126 124.889 61.2301 126.478 63.4737 126.478H85.7887C88.0323 126.478 88.9498 124.888 87.828 122.945L76.6704 103.621Z" fill="white"/>
<path d="M87.3642 166.988L85.82 161.483L83.5771 162.112L84.7457 166.277L84.7536 166.269L87.3599 167.002C87.3599 166.998 87.3592 166.994 87.3592 166.99L87.3642 166.988Z" fill="white"/>
<path d="M63.4386 74.2012L65.6815 73.5723L64.5151 69.4154H64.5122V69.4103L64.505 69.4154L61.9009 68.6821C61.9009 68.6965 61.9023 68.7095 61.9023 68.7239L63.4386 74.2012Z" fill="white"/>
<path d="M46.3722 16.7448C47.4947 14.802 49.3296 14.802 50.4521 16.7448L54.5457 23.8361C55.6682 25.7796 54.7508 27.3691 52.5065 27.3691H44.3179C42.0735 27.3691 41.1561 25.7796 42.2786 23.8361L46.3722 16.7448Z" fill="white"/>
<path d="M98.8102 16.7448C99.9327 14.802 101.768 14.802 102.89 16.7448L106.984 23.8361C108.106 25.7796 107.189 27.3691 104.944 27.3691H96.7558C94.5115 27.3691 93.5941 25.7796 94.7166 23.8361L98.8102 16.7448Z" fill="white"/>
<path d="M102.891 219.017C101.769 220.96 99.9342 220.96 98.8124 219.017L94.7174 211.926C93.5956 209.981 94.513 208.392 96.7573 208.392H104.946C107.19 208.392 108.108 209.981 106.986 211.926L102.891 219.017Z" fill="white"/>
<path d="M50.4526 219.017C49.3308 220.96 47.496 220.96 46.3742 219.017L42.2791 211.926C41.1573 209.981 42.0748 208.392 44.3191 208.392H52.5077C54.752 208.392 55.6695 209.981 54.5477 211.926L50.4526 219.017Z" fill="white"/>
</svg>
