<svg width="54" height="10" viewBox="0 0 54 10" fill="none" xmlns="http://www.w3.org/2000/svg">
<path d="M3.33381 2.41251C4.45633 0.469693 6.29121 0.469693 7.41373 2.41251L9.46449 5.96571C10.5863 7.90853 9.66884 9.49805 7.42524 9.49805H3.3223C1.0787 9.49805 0.161257 7.90853 1.28306 5.96571L3.33381 2.41251Z" fill="white"/>
<path d="M24.8778 2.41251C26.0003 0.469693 27.8352 0.469693 28.9577 2.41251L31.0084 5.96571C32.1302 7.90853 31.2128 9.49805 28.9692 9.49805H24.8662C22.6226 9.49805 21.7052 7.90853 22.827 5.96571L24.8778 2.41251Z" fill="white"/>
<path d="M35.8885 2.41251C37.011 0.469693 38.8459 0.469693 39.9684 2.41251L42.0192 5.96571C43.141 7.90853 42.2235 9.49805 39.9799 9.49805H35.877C33.6334 9.49805 32.7159 7.90853 33.8377 5.96571L35.8885 2.41251Z" fill="white"/>
<path d="M46.5301 2.33439C47.6526 0.391568 49.4875 0.391568 50.61 2.33439L52.6608 5.88759C53.7826 7.83041 52.8651 9.41992 50.6215 9.41992H46.5186C44.275 9.41992 43.3575 7.83041 44.4793 5.88759L46.5301 2.33439Z" fill="white"/>
<path d="M14.096 2.41251C15.2185 0.469693 17.0534 0.469693 18.1759 2.41251L20.2267 5.96571C21.3485 7.90853 20.431 9.49805 18.1875 9.49805H14.0845C11.8409 9.49805 10.9235 7.90853 12.0453 5.96571L14.096 2.41251Z" fill="white"/>
</svg>
