<svg width="150" height="235" viewBox="0 0 150 235" fill="none" xmlns="http://www.w3.org/2000/svg">
<path d="M48.9171 18.0436C50.0396 16.1008 51.8745 16.1008 52.9971 18.0436L57.0906 25.1349C58.2132 27.0785 57.2957 28.668 55.0514 28.668H46.8628C44.6185 28.668 43.701 27.0785 44.8235 25.1349L48.9171 18.0436Z" fill="white"/>
<path d="M25.5314 114.335C26.6539 112.392 28.4888 112.392 29.6113 114.335L33.7049 121.426C34.8274 123.369 33.91 124.959 31.6657 124.959H23.477C21.2327 124.959 20.3153 123.369 21.4378 121.426L25.5314 114.335Z" fill="white"/>
<path d="M120.154 114.146C121.276 112.202 123.111 112.202 124.234 114.146L128.327 121.236C129.45 123.18 128.533 124.77 126.288 124.77H118.1C115.855 124.77 114.938 123.18 116.06 121.236L120.154 114.146Z" fill="white"/>
<path d="M73.1573 53.0775C74.2798 51.134 76.1147 51.134 77.2372 53.0775L79.1764 56.4364C80.299 58.3785 79.3808 59.9688 77.1372 59.9688H73.258C71.0137 59.9688 70.0963 58.3792 71.2188 56.4364L73.1573 53.0775Z" fill="white"/>
<path d="M73.1573 182.898C74.2798 184.841 76.1147 184.841 77.2372 182.898L79.1764 179.539C80.299 177.597 79.3808 176.007 77.1372 176.007H73.258C71.0137 176.007 70.0963 177.596 71.2188 179.539L73.1573 182.898Z" fill="white"/>
<path d="M97.1278 18.0436C98.2503 16.1008 100.085 16.1008 101.208 18.0436L105.301 25.1349C106.424 27.0785 105.506 28.668 103.262 28.668H95.0735C92.8292 28.668 91.9117 27.0785 93.0342 25.1349L97.1278 18.0436Z" fill="white"/>
<path d="M101.206 217.34C100.084 219.283 98.2489 219.283 97.1271 217.34L93.0321 210.248C91.9103 208.305 92.8277 206.715 95.072 206.715H103.261C105.505 206.715 106.422 208.305 105.301 210.248L101.206 217.34Z" fill="white"/>
<path d="M52.9949 217.34C51.8731 219.283 50.0382 219.283 48.9164 217.34L44.8214 210.248C43.6996 208.305 44.617 206.715 46.8613 206.715H55.05C57.2943 206.715 58.2117 208.305 57.0899 210.248L52.9949 217.34Z" fill="white"/>
<path d="M75.1973 110.446H49.6528V71.7454L52.6513 73.2687V108.047H60.9262V94.3454L57.5846 76.4463C57.5119 76.1484 57.4543 75.8462 57.4148 75.5367L57.3982 75.4446H57.4011C57.3651 75.1323 57.3421 74.8157 57.3421 74.4941C57.3421 69.9565 61.0198 66.2788 65.5566 66.2788C67.511 66.2788 69.2991 66.9711 70.708 68.1123C71.2649 69.4572 73.0372 70.4617 75.1973 70.602V63.8107V63.7222C70.8555 63.6719 67.3498 60.1403 67.3498 55.7862C67.3498 51.4314 70.8555 47.8998 75.1973 47.8494V31.2937V28.4154V20.2218C74.7908 20.2218 74.3986 20.2405 74.0237 20.2729C73.5107 19.9059 73.1732 19.3087 73.1732 18.6294C73.1732 17.5126 74.0798 16.606 75.1973 16.606V14.897C73.1358 14.897 71.4642 16.5678 71.4642 18.6294C71.4642 19.3691 71.6859 20.0512 72.0593 20.6276C71.2145 20.8881 70.6871 21.2522 70.6871 21.6559C70.6871 21.9308 70.9346 22.1876 71.3577 22.4057C70.6662 23.0396 70.2503 23.8462 70.2503 24.7277C70.2503 26.056 71.1951 27.2167 72.6083 27.8657C72.5349 29.7826 71.7693 31.2937 70.8238 31.2937H68.9011C68.9011 38.5937 67.5124 44.5006 65.7977 44.5006C64.4197 43.6601 62.8072 43.1665 61.0759 43.1665C59.5806 43.1665 58.1739 43.5349 56.9298 44.1739L52.5045 40.3883L50.6595 40.4516L50.1508 38.0346L45.3175 35.1088L43.5999 35.5542L43.1545 37.2718L46.0802 42.1044L48.4979 42.6131L48.4339 44.4588L52.516 49.2317C52.1828 50.1772 51.9914 51.1903 51.9914 52.251C51.9914 54.7896 53.0355 57.0828 54.7142 58.7313L53.9702 63.7273L49.6528 59.7603V47.4839H46.2349V56.6187L35.3818 46.6449L30.4643 61.9953L46.2349 70.0083V75.7267H43.1768V97.1337H26.0872V100.012V117.881H29.3252V100.012H43.1768V115.842H45.8154V117.881H48.5138H49.7126V115.842H75.1973V110.446Z" fill="white"/>
<path d="M63.8044 108.357H73.6682V106.438L71.2397 105.449L63.8044 98.5232V108.357Z" fill="white"/>
<path d="M72.679 92.9465L69.0359 94.341V95.7802L73.6684 98.793H75.1975V93.3516C75.1975 93.1279 74.0714 92.9465 72.679 92.9465Z" fill="white"/>
<path d="M74.9275 110.446H100.472V71.7454L97.4736 73.2687V108.047H89.1986V94.3454L92.5402 76.4463C92.6129 76.1484 92.6705 75.8462 92.71 75.5367L92.7266 75.4446H92.7237C92.7597 75.1323 92.7827 74.8157 92.7827 74.4941C92.7827 69.9565 89.105 66.2788 84.5682 66.2788C82.6139 66.2788 80.8257 66.9711 79.4168 68.1123C78.8599 69.4572 77.0876 70.4617 74.9275 70.602V63.8107V63.7222C79.2693 63.6719 82.775 60.1403 82.775 55.7862C82.775 51.4314 79.2693 47.8998 74.9275 47.8494V31.2937V28.4154V20.2218C75.334 20.2218 75.7262 20.2405 76.1011 20.2729C76.6141 19.9059 76.9516 19.3087 76.9516 18.6294C76.9516 17.5126 76.045 16.606 74.9275 16.606V14.897C76.989 14.897 78.6606 16.5678 78.6606 18.6294C78.6606 19.3691 78.439 20.0512 78.0655 20.6276C78.9103 20.8881 79.4377 21.2522 79.4377 21.6559C79.4377 21.9308 79.1902 22.1876 78.7671 22.4057C79.4586 23.0396 79.8745 23.8462 79.8745 24.7277C79.8745 26.056 78.9297 27.2167 77.5165 27.8657C77.5899 29.7826 78.3555 31.2937 79.301 31.2937H81.2237C81.2237 38.5937 82.6124 44.5006 84.3271 44.5006C85.7051 43.6601 87.3176 43.1665 89.0489 43.1665C90.5442 43.1665 91.9509 43.5349 93.195 44.1739L97.6203 40.3883L99.4653 40.4516L99.974 38.0346L104.807 35.1088L106.525 35.5542L106.97 37.2718L104.045 42.1044L101.627 42.6131L101.691 44.4588L97.6088 49.2317C97.942 50.1772 98.1334 51.1903 98.1334 52.251C98.1334 54.7896 97.0893 57.0828 95.4106 58.7313L96.1546 63.7273L100.472 59.7603V47.4839H103.89V56.6187L114.743 46.6449L119.661 61.9953L103.89 70.0083V75.7267H106.948V97.1337H124.038V100.012V117.881H120.8V100.012H106.948V115.842H104.309V117.881H101.611H100.412V115.842H74.9275V110.446Z" fill="white"/>
<path d="M86.3203 108.357H76.4565V106.438L78.8851 105.449L86.3203 98.5232V108.357Z" fill="white"/>
<path d="M77.446 92.9465L81.0891 94.341V95.7802L76.4566 98.793H74.9275V93.3516C74.9275 93.1279 76.0536 92.9465 77.446 92.9465Z" fill="white"/>
<path d="M75.1973 125.317H49.6528V164.017L52.6513 162.494V127.715H60.9262V141.417L57.5846 159.316C57.5119 159.614 57.4543 159.916 57.4148 160.226L57.3982 160.318H57.4011C57.3651 160.63 57.3421 160.947 57.3421 161.268C57.3421 165.806 61.0198 169.483 65.5566 169.483C67.511 169.483 69.2991 168.791 70.708 167.65C71.2649 166.305 73.0372 165.301 75.1973 165.16V171.952V172.04C70.8555 172.09 67.3498 175.622 67.3498 179.976C67.3498 184.331 70.8555 187.862 75.1973 187.913V204.469V207.347V215.54C74.7908 215.54 74.3986 215.522 74.0237 215.489C73.5107 215.856 73.1732 216.454 73.1732 217.133C73.1732 218.25 74.0798 219.156 75.1973 219.156V220.865C73.1358 220.865 71.4642 219.194 71.4642 217.133C71.4642 216.393 71.6859 215.711 72.0593 215.135C71.2145 214.874 70.6871 214.51 70.6871 214.106C70.6871 213.832 70.9346 213.575 71.3577 213.357C70.6662 212.723 70.2503 211.916 70.2503 211.035C70.2503 209.706 71.1951 208.546 72.6083 207.897C72.5349 205.98 71.7693 204.469 70.8238 204.469H68.9011C68.9011 197.169 67.5124 191.262 65.7977 191.262C64.4197 192.102 62.8072 192.596 61.0759 192.596C59.5806 192.596 58.1739 192.227 56.9298 191.588L52.5045 195.374L50.6595 195.311L50.1508 197.728L45.3175 200.653L43.5999 200.208L43.1545 198.49L46.0802 193.658L48.4979 193.149L48.4339 191.303L52.516 186.531C52.1828 185.585 51.9914 184.572 51.9914 183.511C51.9914 180.973 53.0355 178.679 54.7142 177.031L53.9702 172.035L49.6528 176.002V188.278H46.2349V179.144L35.3818 189.117L30.4643 173.767L46.2349 165.754V160.036H43.1768V138.629H26.0872V135.75V117.881H29.3252V135.75H43.1768V119.92H45.8154V117.881H48.5138H49.7126V119.92H75.1973V125.317Z" fill="white"/>
<path d="M63.8044 127.402H73.6682V129.321L71.2397 130.311L63.8044 137.236V127.402Z" fill="white"/>
<path d="M72.679 142.814L69.0359 141.42V139.981L73.6684 136.968H75.1975V142.409C75.1975 142.633 74.0714 142.814 72.679 142.814Z" fill="white"/>
<path d="M74.9275 125.317H100.472V164.017L97.4736 162.494V127.715H89.1986V141.417L92.5402 159.316C92.6129 159.614 92.6705 159.916 92.71 160.226L92.7266 160.318H92.7237C92.7597 160.63 92.7827 160.947 92.7827 161.268C92.7827 165.806 89.105 169.483 84.5682 169.483C82.6139 169.483 80.8257 168.791 79.4168 167.65C78.8599 166.305 77.0876 165.301 74.9275 165.16V171.952V172.04C79.2693 172.09 82.775 175.622 82.775 179.976C82.775 184.331 79.2693 187.862 74.9275 187.913V204.469V207.347V215.54C75.334 215.54 75.7262 215.522 76.1011 215.489C76.6141 215.856 76.9516 216.454 76.9516 217.133C76.9516 218.25 76.045 219.156 74.9275 219.156V220.865C76.989 220.865 78.6606 219.194 78.6606 217.133C78.6606 216.393 78.439 215.711 78.0655 215.135C78.9103 214.874 79.4377 214.51 79.4377 214.106C79.4377 213.832 79.1902 213.575 78.7671 213.357C79.4586 212.723 79.8745 211.916 79.8745 211.035C79.8745 209.706 78.9297 208.546 77.5165 207.897C77.5899 205.98 78.3555 204.469 79.301 204.469H81.2237C81.2237 197.169 82.6124 191.262 84.3271 191.262C85.7051 192.102 87.3176 192.596 89.0489 192.596C90.5442 192.596 91.9509 192.227 93.195 191.588L97.6203 195.374L99.4653 195.311L99.974 197.728L104.807 200.653L106.525 200.208L106.97 198.49L104.045 193.658L101.627 193.149L101.691 191.303L97.6088 186.531C97.942 185.585 98.1334 184.572 98.1334 183.511C98.1334 180.973 97.0893 178.679 95.4106 177.031L96.1546 172.035L100.472 176.002V188.278H103.89V179.144L114.743 189.117L119.661 173.767L103.89 165.754V160.036H106.948V138.629H124.038V135.75V117.881H120.8V135.75H106.948V119.92H104.309V117.881H101.611H100.412V119.92H74.9275V125.317Z" fill="white"/>
<path d="M86.3203 127.402H76.4565V129.321L78.8851 130.311L86.3203 137.236V127.402Z" fill="white"/>
<path d="M77.446 142.814L81.0891 141.42V139.981L76.4566 136.968H74.9275V142.409C74.9275 142.633 76.0536 142.814 77.446 142.814Z" fill="white"/>
</svg>
