<svg width="150" height="236" viewBox="0 0 150 236" fill="none" xmlns="http://www.w3.org/2000/svg">
<path d="M97.8317 108.991C98.9543 107.048 100.789 107.048 101.912 108.991L113.069 128.315C114.191 130.258 113.274 131.848 111.03 131.848H88.7149C86.4713 131.848 85.5538 130.258 86.6756 128.315L97.8317 108.991Z" fill="#8D191E"/>
<path d="M48.1271 108.991C49.2497 107.048 51.0845 107.048 52.2071 108.991L63.3639 128.315C64.4857 130.258 63.5682 131.848 61.3247 131.848H39.0103C36.7667 131.848 35.8492 130.258 36.971 128.315L48.1271 108.991Z" fill="#8D191E"/>
<path d="M72.5725 78.0051C73.695 76.0616 75.5299 76.0616 76.6524 78.0051L87.8092 97.3283C88.931 99.2718 88.0136 100.861 85.77 100.861H63.4556C61.212 100.861 60.2946 99.2718 61.4164 97.3283L72.5725 78.0051Z" fill="#8D191E"/>
<path d="M77.0603 130.714C75.9378 132.658 74.1029 132.658 72.9804 130.714L61.8236 111.391C60.7018 109.448 61.6192 107.858 63.8628 107.858H86.1772C88.4208 107.858 89.3382 109.448 88.2164 111.391L77.0603 130.714Z" fill="#8D191E"/>
<path d="M77.0603 160.695C75.9378 162.638 74.1029 162.638 72.9804 160.695L61.8236 141.371C60.7018 139.428 61.6192 137.838 63.8628 137.838H86.1772C88.4208 137.838 89.3382 139.428 88.2164 141.371L77.0603 160.695Z" fill="#8D191E"/>
</svg>
