<svg width="164" height="245" viewBox="0 0 164 245" fill="none" xmlns="http://www.w3.org/2000/svg">
    <path
        d="M69.7626 244.105H94.236H113.944C120.674 244.105 127.809 239.128 129.8 233.044L162.507 133.111C164.498 127.028 164.498 117.074 162.507 110.99L129.8 11.0571C127.809 4.97318 120.674 -0.00250115 113.944 -0.00250115H94.2367H69.7633H50.0557C43.3258 -0.00250115 36.1901 4.97318 34.1993 11.0571L1.49307 110.99C-0.497691 117.074 -0.497691 127.028 1.49307 133.111L34.1993 233.044C36.1901 239.128 43.3258 244.105 50.0557 244.105H69.7626Z"
        fill="#1A1A1A" />
    <path
        d="M119.819 126.403C118.715 126.403 117.819 127.299 117.819 128.403V183.535C117.819 184.085 117.593 184.61 117.194 184.988L101.588 199.754C101.217 200.105 100.725 200.301 100.214 200.301H98.3384C97.2338 200.301 96.3384 199.406 96.3384 198.301V128.403C96.3384 127.299 95.4429 126.403 94.3384 126.403H81.978H69.6177C68.5131 126.403 67.6177 127.299 67.6177 128.403V198.301C67.6177 199.406 66.7223 200.301 65.6177 200.301H63.7433C63.232 200.301 62.7401 200.105 62.3687 199.754L46.7621 184.988C46.3629 184.61 46.1367 184.085 46.1367 183.535V128.403C46.1367 127.299 45.2413 126.403 44.1367 126.403H15.6917C14.3509 126.403 13.3898 127.697 13.7768 128.981L43.1459 226.421C43.4005 227.266 44.1785 227.844 45.0608 227.844H74.2889C75.3935 227.844 76.2889 226.948 76.2889 225.844V186.396C76.2889 185.291 77.1843 184.396 78.2889 184.396H81.978H85.6671C86.7717 184.396 87.6671 185.291 87.6671 186.396V225.844C87.6671 226.948 88.5626 227.844 89.6671 227.844H118.895C119.778 227.844 120.556 227.266 120.81 226.421L150.179 128.981C150.566 127.697 149.605 126.403 148.264 126.403H119.819Z"
        fill="#C48F2A" />
    <path
        d="M119.819 117.441C118.715 117.441 117.819 116.546 117.819 115.441V60.3092C117.819 59.7595 117.593 59.2341 117.194 58.8564L101.588 44.0916C101.217 43.7402 100.725 43.5444 100.214 43.5444H98.3384C97.2338 43.5444 96.3384 44.4398 96.3384 45.5444V115.441C96.3384 116.546 95.4429 117.441 94.3384 117.441H81.978H69.6177C68.5131 117.441 67.6177 116.546 67.6177 115.441V45.5444C67.6177 44.4398 66.7223 43.5444 65.6177 43.5444H63.7432C63.2319 43.5444 62.7401 43.7402 62.3687 44.0915L46.7622 58.8564C46.3629 59.2341 46.1367 59.7596 46.1367 60.3092V115.441C46.1367 116.546 45.2413 117.441 44.1367 117.441H15.6917C14.3509 117.441 13.3898 116.148 13.7768 114.864L43.1459 17.4232C43.4005 16.5785 44.1785 16.0004 45.0608 16.0004H74.2889C75.3935 16.0004 76.2889 16.8958 76.2889 18.0004V57.4481C76.2889 58.5527 77.1843 59.4481 78.2889 59.4481H81.978H85.6671C86.7717 59.4481 87.6671 58.5527 87.6671 57.4481V18.0004C87.6671 16.8958 88.5626 16.0004 89.6671 16.0004H118.895C119.778 16.0004 120.556 16.5785 120.81 17.4232L150.179 114.864C150.566 116.148 149.605 117.441 148.264 117.441H119.819Z"
        fill="#C48F2A" />
</svg>