<svg width="165" height="247" viewBox="0 0 165 247" fill="none" xmlns="http://www.w3.org/2000/svg">
    <path
        d="M68.6432 246.644H95.6878H113.029C120.467 246.644 128.352 241.112 130.552 234.352L162.683 135.613C164.883 128.852 164.883 117.79 162.683 111.029L130.552 12.2916C128.352 5.53045 120.467 -0.000418377 113.029 -0.000418377H95.6901H68.6448H51.3034C43.8662 -0.000418377 35.9806 5.53045 33.7807 12.2916L1.64998 111.029C-0.549995 117.79 -0.549995 128.852 1.64998 135.613L33.7807 234.352C35.9806 241.112 43.8662 246.644 51.3034 246.644H68.6432Z"
        fill="#231F20" />
    <path
        d="M91.3748 40.5989C90.1945 40.5989 89.2298 39.6343 89.2298 38.4547V36.6426C89.2298 35.4638 90.1945 34.4983 91.3748 34.4983H122.205L115.991 12.8553H48.2734L42.0601 34.4983H73.7449C74.9252 34.4983 75.8899 35.4638 75.8899 36.6426V38.4547C75.8899 39.6343 74.9252 40.5989 73.7449 40.5989H40.3085L37.335 50.9555L37.3025 51.0645H126.961L123.957 40.5989H91.3748Z"
        fill="#1A7F3B" />
    <path
        d="M91.3751 212.143C90.1947 212.143 89.2301 211.178 89.2301 209.999V208.188C89.2301 207.009 90.1947 206.044 91.3751 206.044H123.956L126.962 195.577H37.3027L37.3345 195.687L40.3088 206.044H73.7452C74.9255 206.044 75.8902 207.009 75.8902 208.188V209.999C75.8902 211.178 74.9255 212.143 73.7452 212.143H42.0596L48.2737 233.786H115.991L122.206 212.143H91.3751Z"
        fill="#1A7F3B" />
    <path
        d="M88.8021 23.4351C88.8021 27.1191 85.8157 30.1055 82.1325 30.1055C78.4485 30.1055 75.4622 27.1191 75.4622 23.4351C75.4622 19.7512 78.4485 16.7663 82.1325 16.7663C85.8157 16.7663 88.8021 19.7512 88.8021 23.4351Z"
        fill="#1A7F3B" />
    <path
        d="M88.8021 222.976C88.8021 226.658 85.8157 229.645 82.1325 229.645C78.4485 229.645 75.4622 226.658 75.4622 222.976C75.4622 219.292 78.4485 216.305 82.1325 216.305C85.8157 216.305 88.8021 219.292 88.8021 222.976Z"
        fill="#231F20" />
    <path
        d="M82.3541 148.136C68.844 148.136 57.8905 137.182 57.8905 123.672C57.8905 110.161 68.844 99.2071 82.3541 99.2071C95.865 99.2071 106.819 110.161 106.819 123.672C106.819 137.182 95.865 148.136 82.3541 148.136ZM82.3541 85.7136C61.3913 85.7136 44.397 102.708 44.397 123.672C44.397 144.634 61.3913 161.628 82.3541 161.628C103.317 161.628 120.311 144.634 120.311 123.672C120.311 102.708 103.317 85.7136 82.3541 85.7136Z"
        fill="#1A7F3B" />
    <path
        d="M82.3535 164.4C59.8585 164.4 41.6225 146.164 41.6225 123.669C41.6225 101.175 59.8585 82.9386 82.3535 82.9386C104.848 82.9386 123.084 101.175 123.084 123.669C123.084 146.164 104.848 164.4 82.3535 164.4ZM82.3535 78.672C57.5016 78.672 37.3552 98.8185 37.3552 123.67C37.3552 148.522 57.5016 168.667 82.3535 168.667C107.205 168.667 127.352 148.522 127.352 123.67C127.352 98.8185 107.205 78.672 82.3535 78.672Z"
        fill="#1A7F3B" />
    <path
        d="M93.1833 123.578L84.1009 79.91C83.2527 75.8356 82.5128 72.5035 82.4568 72.5035C82.4 72.5035 81.6601 75.8356 80.8126 79.91L71.7302 123.578"
        fill="#231F20" />
    <path
        d="M93.1833 123.578L84.1009 79.91C83.2527 75.8356 82.5128 72.5035 82.4568 72.5035C82.4 72.5035 81.6601 75.8356 80.8126 79.91L71.7302 123.578"
        stroke="#1A7F3B" stroke-width="8" stroke-miterlimit="10" />
    <path
        d="M93.0803 123.578L83.9918 167.429C83.1474 171.505 82.4097 174.839 82.3537 174.839C82.297 174.839 81.5593 171.505 80.7149 167.429L71.6272 123.578"
        fill="#231F20" />
    <path
        d="M93.0803 123.578L83.9918 167.429C83.1474 171.505 82.4097 174.839 82.3537 174.839C82.297 174.839 81.5593 171.505 80.7149 167.429L71.6272 123.578"
        stroke="#1A7F3B" stroke-width="8" stroke-miterlimit="10" />
    <path d="M103.066 126.13H61.6416V121.212H103.066V126.13Z" fill="#1A7F3B" />
    <path
        d="M82.1316 26.9341C80.1992 26.9341 78.6337 25.3694 78.6337 23.4363C78.6337 21.5047 80.1992 19.9385 82.1316 19.9385C84.0632 19.9385 85.6294 21.5047 85.6294 23.4363C85.6294 25.3694 84.0632 26.9341 82.1316 26.9341ZM82.1316 18.0098C79.1346 18.0098 76.7043 20.4393 76.7043 23.4363C76.7043 26.4333 79.1346 28.8643 82.1316 28.8643C85.1285 28.8643 87.5588 26.4333 87.5588 23.4363C87.5588 20.4393 85.1285 18.0098 82.1316 18.0098Z"
        fill="#231F20" />
    <path
        d="M82.1317 29.2605C78.9154 29.2605 76.3081 26.654 76.3081 23.4368C76.3081 20.2212 78.9154 17.6124 82.1317 17.6124C85.3481 17.6124 87.9554 20.2212 87.9554 23.4368C87.9554 26.654 85.3481 29.2605 82.1317 29.2605ZM82.1317 17.0026C78.5787 17.0026 75.6982 19.8838 75.6982 23.4368C75.6982 26.9907 78.5787 29.8711 82.1317 29.8711C85.6848 29.8711 88.5653 26.9907 88.5653 23.4368C88.5653 19.8838 85.6848 17.0026 82.1317 17.0026Z"
        fill="#231F20" />
    <path d="M83.6804 23.4238L82.1611 16.121H82.1316L80.6123 23.4238" fill="#1A7F3B" />
    <path d="M83.6804 23.4238L82.1611 16.121H82.1316L80.6123 23.4238" stroke="#231F20" stroke-width="0.666667"
        stroke-miterlimit="10" />
    <path d="M83.6652 23.4238L82.1459 30.7539H82.1172L80.5979 23.4238" fill="#1A7F3B" />
    <path d="M83.6652 23.4238L82.1459 30.7539H82.1172L80.5979 23.4238" stroke="#231F20" stroke-width="0.666667"
        stroke-miterlimit="10" />
    <path d="M85.0927 23.7891H79.1699V23.0854H85.0927V23.7891Z" fill="#231F20" />
    <path
        d="M88.8023 222.975C88.8023 226.657 85.8159 229.644 82.1327 229.644C78.4488 229.644 75.4624 226.657 75.4624 222.975C75.4624 219.291 78.4488 216.304 82.1327 216.304C85.8159 216.304 88.8023 219.291 88.8023 222.975Z"
        fill="#1A7F3B" />
    <path d="M82.1323 217.992V227.954" stroke="#F2F8CA" stroke-width="1.33333" stroke-miterlimit="10" />
    <path
        d="M82.132 226.473C80.1996 226.473 78.6342 224.907 78.6342 222.975C78.6342 221.042 80.1996 219.476 82.132 219.476C84.0637 219.476 85.6299 221.042 85.6299 222.975C85.6299 224.907 84.0637 226.473 82.132 226.473ZM82.132 217.547C79.1351 217.547 76.7048 219.976 76.7048 222.975C76.7048 225.972 79.1351 228.401 82.132 228.401C85.129 228.401 87.5592 225.972 87.5592 222.975C87.5592 219.976 85.129 217.547 82.132 217.547Z"
        fill="#231F20" />
    <path
        d="M82.132 228.798C78.9156 228.798 76.3083 226.191 76.3083 222.975C76.3083 219.758 78.9156 217.15 82.132 217.15C85.3484 217.15 87.9557 219.758 87.9557 222.975C87.9557 226.191 85.3484 228.798 82.132 228.798ZM82.132 216.541C78.5789 216.541 75.6985 219.421 75.6985 222.975C75.6985 226.528 78.5789 229.408 82.132 229.408C85.6851 229.408 88.5655 226.528 88.5655 222.975C88.5655 219.421 85.6851 216.541 82.132 216.541Z"
        fill="#231F20" />
    <path d="M83.6811 222.963L82.1618 215.66H82.1323L80.613 222.963" fill="#1A7F3B" />
    <path d="M83.6811 222.963L82.1618 215.66H82.1323L80.613 222.963" stroke="#231F20" stroke-width="0.666667"
        stroke-miterlimit="10" />
    <path d="M83.6657 222.961L82.1464 230.29H82.1177L80.5984 222.961" fill="#1A7F3B" />
    <path d="M83.6657 222.961L82.1464 230.29H82.1177L80.5984 222.961" stroke="#231F20" stroke-width="0.666667"
        stroke-miterlimit="10" />
    <path d="M85.0927 223.325H79.1699V222.623H85.0927V223.325Z" fill="#231F20" />
</svg>