<svg width="330" height="361" viewBox="0 0 330 361" fill="none" xmlns="http://www.w3.org/2000/svg">
    <path
        d="M237.097 303.452L238.414 304.171L237.097 303.452L297.153 193.541C298.881 190.379 300.296 185.957 301.151 181.359C302.005 176.762 302.274 172.126 301.798 168.553L285.249 44.4046L286.7 44.2111L285.249 44.4045C284.798 41.0157 282.919 37.5674 280.165 34.7726C277.414 31.9808 273.892 29.9454 270.3 29.2778L247.222 24.988L218.562 19.6606L195.483 15.3706C191.892 14.7031 187.873 15.3369 184.303 16.9537C180.728 18.5722 177.736 21.115 176.097 24.1151L174.78 23.396L176.097 24.1152L116.041 134.025C114.313 137.188 112.898 141.611 112.044 146.208C111.189 150.805 110.921 155.441 111.397 159.013L127.945 283.162L127.945 283.162C128.396 286.551 130.275 290 133.029 292.795C135.78 295.587 139.302 297.623 142.893 298.291L165.972 302.58L194.632 307.908L217.711 312.198C221.302 312.865 225.321 312.231 228.891 310.614C232.465 308.995 235.458 306.452 237.097 303.452Z"
        fill="#1A1A1A" stroke="black" stroke-width="3" />
    <path
        d="M249.564 177.042C248.478 176.841 247.434 177.557 247.232 178.643L235.131 243.744C235.031 244.285 234.712 244.76 234.251 245.058L212.495 259.126C212.066 259.403 211.546 259.506 211.044 259.412L208.322 258.907C207.236 258.705 206.519 257.661 206.721 256.575L222.076 173.967C222.278 172.881 221.562 171.837 220.476 171.635L205.625 168.875L190.774 166.115C189.688 165.913 188.644 166.629 188.442 167.715L173.087 250.323C172.885 251.409 171.841 252.125 170.755 251.924L168.035 251.418C167.532 251.324 167.084 251.042 166.783 250.629L151.535 229.683C151.211 229.239 151.085 228.681 151.185 228.14L163.286 163.039C163.488 161.953 162.771 160.909 161.686 160.708L127.493 154.352C126.174 154.107 124.993 155.203 125.139 156.536L138.408 277.833C138.504 278.71 139.164 279.42 140.031 279.581L174.915 286.066C176 286.267 177.044 285.551 177.246 284.465L185.973 237.517C186.175 236.431 187.219 235.714 188.305 235.916L193.001 236.789L197.697 237.662C198.783 237.864 199.5 238.908 199.298 239.993L190.571 286.942C190.369 288.028 191.086 289.072 192.172 289.273L227.055 295.758C227.923 295.919 228.793 295.493 229.198 294.709L285.169 186.282C285.784 185.091 285.075 183.643 283.757 183.398L249.564 177.042Z"
        fill="#C48F2A" />
    <path
        d="M251.515 166.546C250.429 166.344 249.712 165.3 249.914 164.214L262.015 99.1124C262.116 98.572 261.99 98.0141 261.666 97.5697L246.418 76.6258C246.117 76.2125 245.669 75.9301 245.167 75.8367L242.445 75.3308C241.359 75.1289 240.315 75.8456 240.113 76.9316L224.758 159.538C224.557 160.624 223.513 161.341 222.427 161.139L207.576 158.378L192.725 155.618C191.639 155.416 190.922 154.372 191.124 153.286L206.479 70.6797C206.681 69.5937 205.964 68.5497 204.878 68.3478L202.158 67.8421C201.655 67.7487 201.136 67.8513 200.706 68.1289L178.95 82.1944C178.488 82.4928 178.17 82.968 178.069 83.5085L165.968 148.61C165.766 149.696 164.722 150.413 163.637 150.211L129.444 143.855C128.125 143.61 127.417 142.163 128.032 140.971L184.003 32.544C184.407 31.76 185.278 31.3338 186.145 31.495L221.029 37.9792C222.115 38.1811 222.832 39.2251 222.63 40.311L213.903 87.2591C213.701 88.3451 214.418 89.3891 215.504 89.5909L220.2 90.4638L224.896 91.3368C225.982 91.5386 227.026 90.8219 227.228 89.7359L235.954 42.7878C236.156 41.7019 237.2 40.9852 238.286 41.187L273.17 47.6712C274.037 47.8324 274.696 48.543 274.792 49.42L288.062 170.718C288.208 172.051 287.026 173.147 285.708 172.902L251.515 166.546Z"
        fill="#C48F2A" />
    <path
        d="M201.249 280.16L202.736 280.358L201.249 280.16L217.798 156.01C218.274 152.438 218.005 147.803 217.151 143.206C216.296 138.608 214.881 134.186 213.153 131.023L153.097 21.113L154.382 20.411L153.097 21.1129C151.458 18.1127 148.465 15.57 144.891 13.9514C141.321 12.3346 137.302 11.7008 133.711 12.3684L110.633 16.6582L81.9723 21.9856L58.8932 26.2756C55.3022 26.9431 51.7798 28.9785 49.0289 31.7703C46.2751 34.5652 44.3959 38.0136 43.9444 41.4023L42.4575 41.2041L43.9444 41.4023L27.3963 165.551C26.9203 169.124 27.1889 173.76 28.0434 178.357C28.8979 182.954 30.3131 187.377 32.041 190.539L92.0962 300.449L92.0962 300.449C93.7353 303.45 96.7283 305.993 100.303 307.612C103.873 309.229 107.892 309.863 111.483 309.196L134.561 304.906L163.221 299.578L186.3 295.288C189.892 294.621 193.414 292.585 196.165 289.793C198.918 286.998 200.797 283.549 201.249 280.16Z"
        fill="#1A1A1A" stroke="black" stroke-width="3" />
    <path
        d="M167.458 157.714C166.372 157.916 165.655 158.96 165.857 160.046L177.958 225.147C178.059 225.687 177.932 226.245 177.609 226.69L162.361 247.635C162.06 248.049 161.612 248.331 161.11 248.424L158.388 248.93C157.302 249.132 156.258 248.415 156.056 247.329L140.701 164.722C140.499 163.636 139.455 162.919 138.37 163.121L123.519 165.882L108.668 168.642C107.582 168.844 106.865 169.888 107.067 170.974L122.422 253.581C122.624 254.667 121.907 255.711 120.821 255.913L118.101 256.419C117.598 256.512 117.079 256.41 116.649 256.132L94.8927 242.065C94.4311 241.767 94.1127 241.291 94.0123 240.751L81.9113 175.65C81.7094 174.564 80.6654 173.847 79.5795 174.049L45.3865 180.405C44.0683 180.65 43.3598 182.097 43.9748 183.289L99.9455 291.715C100.35 292.499 101.221 292.926 102.088 292.764L136.972 286.28C138.058 286.078 138.774 285.034 138.572 283.948L129.846 237C129.644 235.914 130.361 234.87 131.447 234.668L136.143 233.795L140.839 232.923C141.925 232.721 142.969 233.437 143.171 234.523L151.897 281.471C152.099 282.557 153.143 283.274 154.229 283.072L189.113 276.588C189.98 276.427 190.639 275.716 190.735 274.839L204.005 153.542C204.15 152.209 202.969 151.113 201.651 151.358L167.458 157.714Z"
        fill="#C48F2A" />
    <path
        d="M165.507 147.218C164.421 147.42 163.377 146.703 163.175 145.617L151.074 80.5152C150.974 79.9748 150.655 79.4995 150.194 79.2011L128.438 65.1355C128.009 64.8579 127.49 64.7553 126.987 64.8487L124.265 65.3546C123.179 65.5564 122.463 66.6004 122.665 67.6864L138.019 150.293C138.221 151.379 137.505 152.423 136.419 152.625L121.568 155.385L106.717 158.146C105.631 158.348 104.587 157.631 104.385 156.545L89.0304 73.9383C88.8285 72.8524 87.7845 72.1357 86.6985 72.3375L83.9779 72.8432C83.4753 72.9367 83.0275 73.219 82.7266 73.6324L67.4777 94.5764C67.1542 95.0208 67.0278 95.5787 67.1282 96.1191L79.2294 161.221C79.4313 162.307 78.7145 163.351 77.6286 163.553L43.4356 169.908C42.1174 170.154 40.9361 169.058 41.082 167.725L54.3513 46.4267C54.4472 45.5497 55.1065 44.8392 55.9739 44.6779L90.8574 38.1938C91.9434 37.9919 92.9874 38.7086 93.1892 39.7946L101.916 86.7427C102.118 87.8286 103.162 88.5453 104.248 88.3435L108.944 87.4706L113.64 86.5977C114.726 86.3958 115.443 85.3518 115.241 84.2658L106.514 37.3178C106.312 36.2318 107.029 35.1878 108.115 34.9859L142.998 28.5018C143.866 28.3405 144.736 28.7667 145.141 29.5507L201.112 137.978C201.727 139.17 201.018 140.617 199.7 140.862L165.507 147.218Z"
        fill="#C48F2A" />
    <mask id="path-7-outside-1_1160_5257" maskUnits="userSpaceOnUse" x="53.999" y="115.998" width="221" height="79"
        fill="black">
        <rect fill="white" x="53.999" y="115.998" width="221" height="79" />
        <path
            d="M59.5513 173.498L79.8513 173.498C81.8513 173.498 83.3513 173.098 84.3513 172.298C85.418 171.431 85.9513 170.365 85.9513 169.098C85.9513 167.831 85.4846 166.765 84.5513 165.898C83.6846 164.965 82.5846 164.265 81.2513 163.798C75.9846 162.065 72.2846 160.731 70.1513 159.798C68.0846 158.865 66.2846 157.598 64.7513 155.998C61.1513 152.331 59.3513 147.565 59.3513 141.698C59.3513 136.498 60.718 132.098 63.4513 128.498C66.2513 124.831 69.9846 122.531 74.6513 121.598C75.9846 121.331 77.518 121.165 79.2513 121.098C81.0513 121.031 83.018 120.998 85.1513 120.998L94.4513 120.998L94.4513 137.498L81.6513 137.498C79.918 137.498 78.5846 137.898 77.6513 138.698C76.7846 139.498 76.3513 140.531 76.3513 141.798C76.3513 144.465 77.8513 146.231 80.8513 147.098C85.2513 148.365 88.5846 149.465 90.8513 150.398C93.1846 151.331 95.218 152.531 96.9513 153.998C98.9513 155.731 100.451 157.898 101.451 160.498C102.451 163.031 102.951 165.765 102.951 168.698C102.951 172.831 102.018 176.531 100.151 179.798C98.2846 182.998 95.718 185.498 92.4513 187.298C89.2513 189.098 85.718 189.998 81.8513 189.998L59.5513 189.998L59.5513 173.498ZM104.964 120.998L115.964 120.998C121.497 120.998 125.664 121.131 128.464 121.398C132.997 121.931 137.03 123.298 140.564 125.498C144.097 127.698 146.864 130.598 148.864 134.198C150.93 137.798 151.964 141.898 151.964 146.498C151.964 151.498 150.73 155.898 148.264 159.698C145.797 163.431 142.297 166.331 137.764 168.398C133.297 170.465 128.097 171.498 122.164 171.498L121.964 171.498L121.964 189.998L104.964 189.998L104.964 120.998ZM122.164 155.498C125.964 155.498 129.03 154.765 131.364 153.298C133.764 151.831 134.964 149.498 134.964 146.298C134.964 143.031 133.764 140.665 131.364 139.198C129.03 137.731 125.964 136.998 122.164 136.998L121.964 136.998L121.964 155.498L122.164 155.498ZM154.28 120.998L171.28 120.998L171.28 189.998L154.28 189.998L154.28 120.998ZM174.3 120.998L191.3 120.998L191.3 148.798L205.8 120.998L223.8 120.998L207.1 153.198L207.6 153.398C212.8 155.531 216.633 159.131 219.1 164.198C221.566 169.198 222.8 174.965 222.8 181.498L222.8 189.998L205.8 189.998L205.8 181.498C205.8 176.365 204.6 172.331 202.2 169.398C199.8 166.465 196.233 164.998 191.5 164.998L191.3 164.998L191.3 189.998L174.3 189.998L174.3 120.998ZM225.765 120.998L269.365 120.998L269.365 137.498L242.765 137.498L242.765 147.498L260.765 147.498L260.765 163.498L242.765 163.498L242.765 173.498L269.365 173.498L269.365 189.998L225.765 189.998L225.765 120.998Z" />
    </mask>
    <path
        d="M59.5513 173.498L79.8513 173.498C81.8513 173.498 83.3513 173.098 84.3513 172.298C85.418 171.431 85.9513 170.365 85.9513 169.098C85.9513 167.831 85.4846 166.765 84.5513 165.898C83.6846 164.965 82.5846 164.265 81.2513 163.798C75.9846 162.065 72.2846 160.731 70.1513 159.798C68.0846 158.865 66.2846 157.598 64.7513 155.998C61.1513 152.331 59.3513 147.565 59.3513 141.698C59.3513 136.498 60.718 132.098 63.4513 128.498C66.2513 124.831 69.9846 122.531 74.6513 121.598C75.9846 121.331 77.518 121.165 79.2513 121.098C81.0513 121.031 83.018 120.998 85.1513 120.998L94.4513 120.998L94.4513 137.498L81.6513 137.498C79.918 137.498 78.5846 137.898 77.6513 138.698C76.7846 139.498 76.3513 140.531 76.3513 141.798C76.3513 144.465 77.8513 146.231 80.8513 147.098C85.2513 148.365 88.5846 149.465 90.8513 150.398C93.1846 151.331 95.218 152.531 96.9513 153.998C98.9513 155.731 100.451 157.898 101.451 160.498C102.451 163.031 102.951 165.765 102.951 168.698C102.951 172.831 102.018 176.531 100.151 179.798C98.2846 182.998 95.718 185.498 92.4513 187.298C89.2513 189.098 85.718 189.998 81.8513 189.998L59.5513 189.998L59.5513 173.498ZM104.964 120.998L115.964 120.998C121.497 120.998 125.664 121.131 128.464 121.398C132.997 121.931 137.03 123.298 140.564 125.498C144.097 127.698 146.864 130.598 148.864 134.198C150.93 137.798 151.964 141.898 151.964 146.498C151.964 151.498 150.73 155.898 148.264 159.698C145.797 163.431 142.297 166.331 137.764 168.398C133.297 170.465 128.097 171.498 122.164 171.498L121.964 171.498L121.964 189.998L104.964 189.998L104.964 120.998ZM122.164 155.498C125.964 155.498 129.03 154.765 131.364 153.298C133.764 151.831 134.964 149.498 134.964 146.298C134.964 143.031 133.764 140.665 131.364 139.198C129.03 137.731 125.964 136.998 122.164 136.998L121.964 136.998L121.964 155.498L122.164 155.498ZM154.28 120.998L171.28 120.998L171.28 189.998L154.28 189.998L154.28 120.998ZM174.3 120.998L191.3 120.998L191.3 148.798L205.8 120.998L223.8 120.998L207.1 153.198L207.6 153.398C212.8 155.531 216.633 159.131 219.1 164.198C221.566 169.198 222.8 174.965 222.8 181.498L222.8 189.998L205.8 189.998L205.8 181.498C205.8 176.365 204.6 172.331 202.2 169.398C199.8 166.465 196.233 164.998 191.5 164.998L191.3 164.998L191.3 189.998L174.3 189.998L174.3 120.998ZM225.765 120.998L269.365 120.998L269.365 137.498L242.765 137.498L242.765 147.498L260.765 147.498L260.765 163.498L242.765 163.498L242.765 173.498L269.365 173.498L269.365 189.998L225.765 189.998L225.765 120.998Z"
        fill="#F5F5F5" />
    <path
        d="M59.5513 173.498L59.5513 168.498L54.5513 168.498L54.5513 173.498L59.5513 173.498ZM84.3513 172.298L87.4748 176.202L87.4896 176.191L87.5043 176.179L84.3513 172.298ZM84.5513 165.898L80.8873 169.3L81.0133 169.436L81.1491 169.562L84.5513 165.898ZM81.2513 163.798L82.9031 159.079L82.8589 159.063L82.8144 159.049L81.2513 163.798ZM70.1513 159.798L68.0934 164.355L68.1202 164.367L68.1472 164.379L70.1513 159.798ZM64.7513 155.998L68.3612 152.539L68.3403 152.517L68.3191 152.495L64.7513 155.998ZM63.4513 128.498L59.4775 125.463L59.4691 125.474L63.4513 128.498ZM74.6513 121.598L75.6319 126.501L75.6319 126.501L74.6513 121.598ZM79.2513 121.098L79.0662 116.101L79.0591 116.102L79.2513 121.098ZM94.4513 120.998L99.4513 120.998L99.4513 115.998L94.4513 115.998L94.4513 120.998ZM94.4513 137.498L94.4513 142.498L99.4513 142.498L99.4513 137.498L94.4513 137.498ZM77.6513 138.698L74.3973 134.902L74.3275 134.962L74.2599 135.024L77.6513 138.698ZM80.8513 147.098L79.4636 151.902L79.4681 151.903L80.8513 147.098ZM90.8513 150.398L88.9476 155.021L88.9709 155.031L88.9944 155.04L90.8513 150.398ZM96.9513 153.998L100.226 150.22L100.204 150.2L100.181 150.181L96.9513 153.998ZM101.451 160.498L96.7846 162.293L96.7925 162.313L96.8005 162.334L101.451 160.498ZM100.151 179.798L104.47 182.317L104.481 182.298L104.493 182.279L100.151 179.798ZM92.4513 187.298L90.0383 182.919L90.0191 182.929L90 182.94L92.4513 187.298ZM59.5513 189.998L54.5513 189.998L54.5513 194.998L59.5513 194.998L59.5513 189.998ZM59.5513 178.498L79.8513 178.498L79.8513 168.498L59.5513 168.498L59.5513 178.498ZM79.8513 178.498C82.3855 178.498 85.2114 178.013 87.4748 176.202L81.2278 168.394C81.3708 168.279 81.4077 168.308 81.188 168.367C80.9588 168.428 80.5343 168.498 79.8513 168.498L79.8513 178.498ZM87.5043 176.179C89.626 174.455 90.9513 172.011 90.9513 169.098L80.9513 169.098C80.9513 169.062 80.9554 168.991 80.977 168.896C80.9989 168.801 81.0336 168.703 81.0792 168.612C81.1753 168.42 81.2638 168.364 81.1983 168.417L87.5043 176.179ZM90.9513 169.098C90.9513 166.432 89.8993 164.041 87.9536 162.234L81.1491 169.562C81.1608 169.573 81.0869 169.504 81.0205 169.352C80.9538 169.2 80.9513 169.093 80.9513 169.098L90.9513 169.098ZM88.2153 162.496C86.7367 160.903 84.9191 159.784 82.9031 159.079L79.5996 168.517C80.2502 168.745 80.6326 169.026 80.8873 169.3L88.2153 162.496ZM82.8144 159.049C77.5499 157.316 74.0505 156.046 72.1554 155.217L68.1472 164.379C70.5187 165.416 74.4193 166.813 79.6882 168.547L82.8144 159.049ZM72.2092 155.241C70.7115 154.565 69.4418 153.666 68.3612 152.539L61.1414 159.458C63.1275 161.53 65.4578 163.165 68.0934 164.355L72.2092 155.241ZM68.3191 152.495C65.769 149.898 64.3513 146.456 64.3513 141.698L54.3513 141.698C54.3513 148.674 56.5336 154.765 61.1835 159.501L68.3191 152.495ZM64.3513 141.698C64.3513 137.419 65.4571 134.125 67.4335 131.522L59.4691 125.474C55.9788 130.071 54.3513 135.577 54.3513 141.698L64.3513 141.698ZM67.4251 131.533C69.4625 128.865 72.1156 127.204 75.6319 126.501L73.6707 116.695C67.8537 117.859 63.0401 120.798 59.4775 125.463L67.4251 131.533ZM75.6319 126.501C76.6459 126.298 77.9066 126.153 79.4435 126.094L79.0591 116.102C77.1293 116.176 75.3234 116.365 73.6707 116.695L75.6319 126.501ZM79.4364 126.095C81.1647 126.031 83.0688 125.998 85.1513 125.998L85.1513 115.998C82.9671 115.998 80.9379 116.032 79.0662 116.101L79.4364 126.095ZM85.1513 125.998L94.4513 125.998L94.4513 115.998L85.1513 115.998L85.1513 125.998ZM89.4513 120.998L89.4513 137.498L99.4513 137.498L99.4513 120.998L89.4513 120.998ZM94.4513 132.498L81.6513 132.498L81.6513 142.498L94.4513 142.498L94.4513 132.498ZM81.6513 132.498C79.2089 132.498 76.5471 133.059 74.3973 134.902L80.9053 142.494C80.7762 142.605 80.7013 142.613 80.788 142.587C80.8908 142.556 81.1574 142.498 81.6513 142.498L81.6513 132.498ZM74.2599 135.024C72.2858 136.846 71.3513 139.252 71.3513 141.798L81.3513 141.798C81.3513 141.742 81.3588 141.836 81.2873 142.007C81.2123 142.185 81.1076 142.312 81.0427 142.372L74.2599 135.024ZM71.3513 141.798C71.3513 144.128 72.0335 146.438 73.6648 148.359C75.2371 150.211 77.3394 151.288 79.4636 151.902L82.239 142.294C81.3632 142.041 81.2155 141.802 81.2878 141.887C81.3255 141.931 81.356 141.989 81.3688 142.027C81.3785 142.055 81.3513 141.995 81.3513 141.798L71.3513 141.798ZM79.4681 151.903C83.8148 153.154 86.9385 154.194 88.9476 155.021L92.7551 145.775C90.2308 144.735 86.6878 143.575 82.2345 142.293L79.4681 151.903ZM88.9944 155.04C90.8816 155.795 92.4399 156.73 93.7216 157.815L100.181 150.181C97.9961 148.332 95.4877 146.867 92.7083 145.756L88.9944 155.04ZM93.6767 157.776C95.0242 158.944 96.063 160.417 96.7846 162.293L106.118 158.703C104.84 155.379 102.878 152.518 100.226 150.22L93.6767 157.776ZM96.8005 162.334C97.5525 164.239 97.9513 166.344 97.9513 168.698L107.951 168.698C107.951 165.185 107.35 161.824 106.102 158.662L96.8005 162.334ZM97.9513 168.698C97.9513 172.049 97.2034 174.879 95.8101 177.317L104.493 182.279C106.833 178.184 107.951 173.613 107.951 168.698L97.9513 168.698ZM95.8324 177.279C94.4245 179.692 92.5189 181.552 90.0383 182.919L94.8643 191.677C98.9171 189.444 102.145 186.304 104.47 182.317L95.8324 177.279ZM90 182.94C87.5886 184.297 84.9066 184.998 81.8513 184.998L81.8513 194.998C86.5293 194.998 90.914 193.9 94.9026 191.656L90 182.94ZM81.8513 184.998L59.5513 184.998L59.5513 194.998L81.8513 194.998L81.8513 184.998ZM64.5513 189.998L64.5513 173.498L54.5513 173.498L54.5513 189.998L64.5513 189.998ZM104.964 120.998L104.964 115.998L99.9638 115.998L99.9638 120.998L104.964 120.998ZM128.464 121.398L129.048 116.432L128.993 116.426L128.938 116.421L128.464 121.398ZM140.564 125.498L143.207 121.254L140.564 125.498ZM148.864 134.198L144.493 136.626L144.51 136.657L144.528 136.687L148.864 134.198ZM148.264 159.698L152.435 162.454L152.447 162.437L152.458 162.42L148.264 159.698ZM137.764 168.398L135.69 163.849L135.677 163.854L135.664 163.86L137.764 168.398ZM121.964 171.498L121.964 166.498L116.964 166.498L116.964 171.498L121.964 171.498ZM121.964 189.998L121.964 194.998L126.964 194.998L126.964 189.998L121.964 189.998ZM104.964 189.998L99.9638 189.998L99.9638 194.998L104.964 194.998L104.964 189.998ZM131.364 153.298L128.757 149.032L128.73 149.048L128.703 149.065L131.364 153.298ZM131.364 139.198L128.703 143.431L128.73 143.448L128.757 143.464L131.364 139.198ZM121.964 136.998L121.964 131.998L116.964 131.998L116.964 136.998L121.964 136.998ZM121.964 155.498L116.964 155.498L116.964 160.498L121.964 160.498L121.964 155.498ZM104.964 125.998L115.964 125.998L115.964 115.998L104.964 115.998L104.964 125.998ZM115.964 125.998C121.459 125.998 125.433 126.132 127.99 126.376L128.938 116.421C125.894 116.131 121.535 115.998 115.964 115.998L115.964 125.998ZM127.88 126.364C131.754 126.82 135.071 127.968 137.921 129.743L143.207 121.254C138.99 118.628 134.241 117.043 129.048 116.432L127.88 126.364ZM137.921 129.743C140.742 131.499 142.91 133.777 144.493 136.626L153.235 131.77C150.818 127.419 147.453 123.897 143.207 121.254L137.921 129.743ZM144.528 136.687C146.114 139.45 146.964 142.675 146.964 146.498L156.964 146.498C156.964 141.121 155.747 136.146 153.2 131.709L144.528 136.687ZM146.964 146.498C146.964 150.636 145.957 154.069 144.07 156.976L152.458 162.42C155.504 157.727 156.964 152.36 156.964 146.498L146.964 146.498ZM144.092 156.942C142.2 159.806 139.469 162.125 135.69 163.849L139.838 172.948C145.125 170.537 149.394 167.057 152.435 162.454L144.092 156.942ZM135.664 163.86C131.977 165.566 127.519 166.498 122.164 166.498L122.164 176.498C128.676 176.498 134.617 175.363 139.863 172.936L135.664 163.86ZM122.164 166.498L121.964 166.498L121.964 176.498L122.164 176.498L122.164 166.498ZM116.964 171.498L116.964 189.998L126.964 189.998L126.964 171.498L116.964 171.498ZM121.964 184.998L104.964 184.998L104.964 194.998L121.964 194.998L121.964 184.998ZM109.964 189.998L109.964 120.998L99.9638 120.998L99.9638 189.998L109.964 189.998ZM122.164 160.498C126.562 160.498 130.646 159.655 134.025 157.531L128.703 149.065C127.415 149.875 125.366 150.498 122.164 150.498L122.164 160.498ZM133.971 157.564C138.085 155.05 139.964 150.955 139.964 146.298L129.964 146.298C129.964 148.041 129.442 148.613 128.757 149.032L133.971 157.564ZM139.964 146.298C139.964 141.621 138.12 137.467 133.971 134.932L128.757 143.464C129.408 143.862 129.964 144.441 129.964 146.298L139.964 146.298ZM134.025 134.965C130.646 132.841 126.562 131.998 122.164 131.998L122.164 141.998C125.366 141.998 127.415 142.621 128.703 143.431L134.025 134.965ZM122.164 131.998L121.964 131.998L121.964 141.998L122.164 141.998L122.164 131.998ZM116.964 136.998L116.964 155.498L126.964 155.498L126.964 136.998L116.964 136.998ZM121.964 160.498L122.164 160.498L122.164 150.498L121.964 150.498L121.964 160.498ZM154.28 120.998L154.28 115.998L149.28 115.998L149.28 120.998L154.28 120.998ZM171.28 120.998L176.28 120.998L176.28 115.998L171.28 115.998L171.28 120.998ZM171.28 189.998L171.28 194.998L176.28 194.998L176.28 189.998L171.28 189.998ZM154.28 189.998L149.28 189.998L149.28 194.998L154.28 194.998L154.28 189.998ZM154.28 125.998L171.28 125.998L171.28 115.998L154.28 115.998L154.28 125.998ZM166.28 120.998L166.28 189.998L176.28 189.998L176.28 120.998L166.28 120.998ZM171.28 184.998L154.28 184.998L154.28 194.998L171.28 194.998L171.28 184.998ZM159.28 189.998L159.28 120.998L149.28 120.998L149.28 189.998L159.28 189.998ZM174.3 120.998L174.3 115.998L169.3 115.998L169.3 120.998L174.3 120.998ZM191.3 120.998L196.3 120.998L196.3 115.998L191.3 115.998L191.3 120.998ZM191.3 148.798L186.3 148.798L195.733 151.11L191.3 148.798ZM205.8 120.998L205.8 115.998L202.768 115.998L201.367 118.686L205.8 120.998ZM223.8 120.998L228.238 123.3L232.025 115.998L223.8 115.998L223.8 120.998ZM207.1 153.198L202.661 150.896L200.122 155.792L205.243 157.84L207.1 153.198ZM207.6 153.398L209.498 148.772L209.477 148.764L209.457 148.756L207.6 153.398ZM219.1 164.198L214.604 166.387L214.61 166.398L214.616 166.41L219.1 164.198ZM222.8 189.998L222.8 194.998L227.8 194.998L227.8 189.998L222.8 189.998ZM205.8 189.998L200.8 189.998L200.8 194.998L205.8 194.998L205.8 189.998ZM202.2 169.398L198.33 172.564L198.33 172.564L202.2 169.398ZM191.3 164.998L191.3 159.998L186.3 159.998L186.3 164.998L191.3 164.998ZM191.3 189.998L191.3 194.998L196.3 194.998L196.3 189.998L191.3 189.998ZM174.3 189.998L169.3 189.998L169.3 194.998L174.3 194.998L174.3 189.998ZM174.3 125.998L191.3 125.998L191.3 115.998L174.3 115.998L174.3 125.998ZM186.3 120.998L186.3 148.798L196.3 148.798L196.3 120.998L186.3 120.998ZM195.733 151.11L210.233 123.31L201.367 118.686L186.867 146.486L195.733 151.11ZM205.8 125.998L223.8 125.998L223.8 115.998L205.8 115.998L205.8 125.998ZM219.361 118.696L202.661 150.896L211.538 155.5L228.238 123.3L219.361 118.696ZM205.243 157.84L205.743 158.04L209.457 148.756L208.957 148.556L205.243 157.84ZM205.702 158.024C209.763 159.69 212.673 162.421 214.604 166.387L223.595 162.009C220.593 155.842 215.837 151.373 209.498 148.772L205.702 158.024ZM214.616 166.41C216.689 170.613 217.8 175.601 217.8 181.498L227.8 181.498C227.8 174.329 226.444 167.783 223.584 161.986L214.616 166.41ZM217.8 181.498L217.8 189.998L227.8 189.998L227.8 181.498L217.8 181.498ZM222.8 184.998L205.8 184.998L205.8 194.998L222.8 194.998L222.8 184.998ZM210.8 189.998L210.8 181.498L200.8 181.498L200.8 189.998L210.8 189.998ZM210.8 181.498C210.8 175.619 209.423 170.33 206.07 166.232L198.33 172.564C199.777 174.332 200.8 177.111 200.8 181.498L210.8 181.498ZM206.07 166.232C202.489 161.855 197.325 159.998 191.5 159.998L191.5 169.998C195.141 169.998 197.111 171.074 198.33 172.564L206.07 166.232ZM191.5 159.998L191.3 159.998L191.3 169.998L191.5 169.998L191.5 159.998ZM186.3 164.998L186.3 189.998L196.3 189.998L196.3 164.998L186.3 164.998ZM191.3 184.998L174.3 184.998L174.3 194.998L191.3 194.998L191.3 184.998ZM179.3 189.998L179.3 120.998L169.3 120.998L169.3 189.998L179.3 189.998ZM225.765 120.998L225.765 115.998L220.765 115.998L220.765 120.998L225.765 120.998ZM269.365 120.998L274.365 120.998L274.365 115.998L269.365 115.998L269.365 120.998ZM269.365 137.498L269.365 142.498L274.365 142.498L274.365 137.498L269.365 137.498ZM242.765 137.498L242.765 132.498L237.765 132.498L237.765 137.498L242.765 137.498ZM242.765 147.498L237.765 147.498L237.765 152.498L242.765 152.498L242.765 147.498ZM260.765 147.498L265.765 147.498L265.765 142.498L260.765 142.498L260.765 147.498ZM260.765 163.498L260.765 168.498L265.765 168.498L265.765 163.498L260.765 163.498ZM242.765 163.498L242.765 158.498L237.765 158.498L237.765 163.498L242.765 163.498ZM242.765 173.498L237.765 173.498L237.765 178.498L242.765 178.498L242.765 173.498ZM269.365 173.498L274.365 173.498L274.365 168.498L269.365 168.498L269.365 173.498ZM269.365 189.998L269.365 194.998L274.365 194.998L274.365 189.998L269.365 189.998ZM225.765 189.998L220.765 189.998L220.765 194.998L225.765 194.998L225.765 189.998ZM225.765 125.998L269.365 125.998L269.365 115.998L225.765 115.998L225.765 125.998ZM264.365 120.998L264.365 137.498L274.365 137.498L274.365 120.998L264.365 120.998ZM269.365 132.498L242.765 132.498L242.765 142.498L269.365 142.498L269.365 132.498ZM237.765 137.498L237.765 147.498L247.765 147.498L247.765 137.498L237.765 137.498ZM242.765 152.498L260.765 152.498L260.765 142.498L242.765 142.498L242.765 152.498ZM255.765 147.498L255.765 163.498L265.765 163.498L265.765 147.498L255.765 147.498ZM260.765 158.498L242.765 158.498L242.765 168.498L260.765 168.498L260.765 158.498ZM237.765 163.498L237.765 173.498L247.765 173.498L247.765 163.498L237.765 163.498ZM242.765 178.498L269.365 178.498L269.365 168.498L242.765 168.498L242.765 178.498ZM264.365 173.498L264.365 189.998L274.365 189.998L274.365 173.498L264.365 173.498ZM269.365 184.998L225.765 184.998L225.765 194.998L269.365 194.998L269.365 184.998ZM230.765 189.998L230.765 120.998L220.765 120.998L220.765 189.998L230.765 189.998Z"
        fill="#18140F" mask="url(#path-7-outside-1_1160_5257)" />
    <path
        d="M229.557 242.566L187.228 231.049C184.604 230.333 181.886 230.373 179.362 231.084C176.837 231.795 174.499 233.181 172.635 235.161L142.544 267.082C138.993 270.851 137.68 276.206 139.084 281.189L151.281 324.478C152.685 329.462 156.601 333.343 161.597 334.703L203.927 346.22C206.55 346.934 209.269 346.896 211.793 346.185C214.317 345.473 216.655 344.086 218.52 342.108L248.61 310.186C252.161 306.418 253.476 301.063 252.072 296.079L239.874 252.79C238.47 247.807 234.553 243.925 229.557 242.566ZM209.357 342.196C207.955 342.41 206.504 342.34 205.087 341.956L162.758 330.439C159.259 329.486 156.518 326.769 155.535 323.28L143.338 279.99C142.956 278.637 142.865 277.245 143.036 275.894L194.631 289.931L209.357 342.196L209.357 342.196ZM143.656 273.445C144.13 272.228 144.837 271.094 145.761 270.114L175.85 238.192C177.159 236.805 178.792 235.837 180.561 235.338C182.33 234.84 184.229 234.813 186.069 235.313L228.397 246.83C229.698 247.183 230.893 247.782 231.931 248.573L195.254 287.483L143.656 273.445ZM247.817 297.278C248.8 300.767 247.879 304.516 245.394 307.155L215.305 339.077C214.298 340.144 213.095 340.962 211.788 341.511L197.062 289.246L233.738 250.338C234.591 251.4 235.239 252.635 235.62 253.989L247.817 297.278Z"
        fill="#18140F" />
    <path
        d="M247.817 297.278C248.8 300.767 247.879 304.516 245.394 307.155L215.305 339.077C214.298 340.144 213.095 340.962 211.788 341.511L197.062 289.246L233.738 250.338C234.591 251.4 235.239 252.635 235.62 253.989L247.817 297.278Z"
        fill="#C08924" />
    <path
        d="M205.087 341.956C206.504 342.34 207.955 342.41 209.357 342.196L194.631 289.931L143.036 275.894C142.865 277.245 142.956 278.637 143.338 279.99L155.535 323.28C156.518 326.769 159.259 329.486 162.758 330.439L205.087 341.956Z"
        fill="#C08924" />
    <path
        d="M143.656 273.445C144.13 272.228 144.837 271.094 145.761 270.114L175.85 238.192C177.159 236.805 178.792 235.837 180.561 235.338C182.33 234.84 184.229 234.813 186.069 235.313L228.397 246.83C229.698 247.183 230.893 247.782 231.931 248.573L195.254 287.483L143.656 273.445Z"
        fill="#C08924" />
    <path
        d="M181.167 329.254C193.401 332.047 200.901 325.712 197.913 315.107C194.926 304.508 182.581 293.646 170.348 290.859C158.11 288.068 150.614 294.402 153.6 305.001C156.588 315.605 168.928 326.462 181.167 329.254Z"
        fill="black" fill-opacity="0.3" />
    <path
        d="M218.691 277.237C210.502 285.784 206.293 301.31 209.279 311.907C212.267 322.513 221.321 324.183 229.51 315.636C237.694 307.091 241.907 291.571 238.919 280.966C235.932 270.367 226.876 268.697 218.691 277.237Z"
        fill="black" fill-opacity="0.23" />
    <path
        d="M200.927 243.58C190.06 239.432 175.215 243.437 167.763 252.517C160.315 261.6 163.081 272.327 173.948 276.466C184.815 280.613 199.662 276.612 207.116 267.527C214.565 258.448 211.796 247.723 200.927 243.58Z"
        fill="black" fill-opacity="0.23" />
    <g clip-path="url(#clip0_1160_5257)">
        <path d="M235.838 294.041L229.912 280.73L219.975 291.386L225.901 304.697L235.838 294.041Z" fill="#C08924" />
        <path d="M229.774 281.553L235.293 293.95L226.039 303.874L220.519 291.477L229.774 281.553Z" stroke="black"
            stroke-opacity="0.5" />
        <path d="M221.486 304.616L218.462 297.822L213.39 303.261L216.414 310.055L221.486 304.616Z" fill="#C08924" />
        <path d="M218.324 298.645L220.942 304.525L216.552 309.233L213.934 303.352L218.324 298.645Z" stroke="black"
            stroke-opacity="0.5" />
    </g>
    <path
        d="M196.021 248.105L197.536 252.732L199.055 257.36L190.033 255.77L181.007 254.178L188.514 251.142L196.021 248.105Z"
        fill="#C08924" />
    <path
        d="M196.966 252.939L198.222 256.765L190.341 255.376L182.455 253.985L188.661 251.475L195.572 248.68L196.966 252.939L196.966 252.939Z"
        stroke="black" stroke-opacity="0.5" />
    <path d="M185.375 261.731L173.828 254.764L174.609 269.33L183.098 270.827L203.69 260.029L185.375 261.731Z"
        fill="#C08924" />
    <path
        d="M184.918 262.072L185.048 262.15L185.254 262.131L201.825 260.591L183.144 270.387L175.178 268.982L174.47 255.768L184.918 262.072Z"
        stroke="black" stroke-opacity="0.5" />
    <g clip-path="url(#clip1_1160_5257)">
        <g clip-path="url(#clip2_1160_5257)">
            <path
                d="M184.931 309.635C185.902 311.06 186.376 312.528 186.8 314.053C188.336 319.549 185.047 323.271 179.341 322.509C173.139 321.678 166.444 316.032 164.499 310.045C164.059 308.691 163.63 307.391 163.721 306.276L184.931 309.635Z"
                fill="#C08924" />
            <path
                d="M186.299 313.954L186.299 313.953C185.909 312.551 185.496 311.274 184.736 310.055L164.226 306.807C164.226 307.764 164.585 308.869 164.99 310.114L164.993 310.123C166.851 315.843 173.248 321.237 179.173 322.031L186.299 313.954ZM186.299 313.954C187.767 319.201 184.623 322.76 179.174 322.031L186.299 313.954Z"
                stroke="black" stroke-opacity="0.5" />
            <path
                d="M181.353 304.617C178.77 301.666 175 299.364 171.354 298.787C167.707 298.209 165.11 299.506 164.264 301.911L181.353 304.617Z"
                fill="#C08924" />
            <path
                d="M171.508 299.262C174.643 299.759 177.864 301.589 180.259 303.993L165.051 301.584C166.063 299.722 168.375 298.766 171.508 299.262Z"
                stroke="black" stroke-opacity="0.5" />
        </g>
    </g>
    <path
        d="M189.449 267.082L160.83 233.835C159.057 231.773 156.784 230.283 154.294 229.459C151.804 228.634 149.091 228.473 146.437 229.069L103.631 238.664C98.5788 239.797 94.4916 243.498 92.8641 248.413L78.7259 291.107C77.0983 296.022 78.1688 301.431 81.5462 305.356L110.165 338.603C111.939 340.663 114.213 342.155 116.702 342.979C119.192 343.803 121.905 343.964 124.558 343.369L167.364 333.774C172.417 332.641 176.505 328.94 178.132 324.025L192.27 281.331C193.898 276.416 192.827 271.007 189.449 267.082ZM116.918 338.31C115.637 337.703 114.473 336.832 113.515 335.72L84.8958 302.473C82.5313 299.724 81.7817 295.938 82.9212 292.497L97.0595 249.802C97.5016 248.467 98.2049 247.263 99.1039 246.239L133.987 286.763L116.918 338.31L116.918 338.31ZM100.989 244.558C102.063 243.815 103.284 243.271 104.598 242.976L147.404 233.381C149.264 232.965 151.159 233.077 152.905 233.655C154.649 234.233 156.238 235.274 157.481 236.719L186.099 269.965C186.98 270.987 187.635 272.152 188.051 273.388L135.874 285.084L100.989 244.558ZM173.936 322.636C172.797 326.077 169.934 328.667 166.397 329.462L123.592 339.057C122.16 339.377 120.706 339.381 119.315 339.104L136.385 287.557L188.56 275.862C188.672 277.22 188.517 278.606 188.075 279.941L173.936 322.636Z"
        fill="#18140F" />
    <path
        d="M173.936 322.636C172.797 326.077 169.934 328.667 166.397 329.462L123.592 339.057C122.16 339.377 120.706 339.381 119.315 339.104L136.385 287.557L188.56 275.862C188.672 277.22 188.517 278.606 188.075 279.941L173.936 322.636Z"
        fill="#C08924" />
    <path
        d="M113.515 335.72C114.473 336.832 115.636 337.703 116.918 338.31L133.987 286.763L99.1039 246.239C98.2049 247.263 97.5016 248.467 97.0595 249.802L82.9212 292.497C81.7817 295.938 82.5313 299.724 84.8958 302.473L113.515 335.72Z"
        fill="#C08924" />
    <path
        d="M100.989 244.558C102.063 243.815 103.284 243.271 104.598 242.976L147.404 233.381C149.264 232.965 151.159 233.077 152.905 233.655C154.649 234.233 156.238 235.274 157.481 236.719L186.099 269.965C186.98 270.987 187.635 272.152 188.051 273.388L135.874 285.084L100.989 244.558Z"
        fill="#C08924" />
    <path
        d="M100.809 311.803C109.381 320.968 119.142 319.92 122.606 309.46C126.068 299.007 121.923 283.095 113.349 273.936C104.774 264.769 95.016 265.819 91.5544 276.272C88.0909 286.731 92.2341 302.636 100.809 311.803Z"
        fill="black" fill-opacity="0.3" />
    <path
        d="M161.029 289.722C149.458 292.217 137.276 302.722 133.815 313.174C130.351 323.634 136.917 330.088 148.488 327.594C160.054 325.097 172.236 314.599 175.7 304.139C179.16 293.686 172.593 287.231 161.029 289.722Z"
        fill="black" fill-opacity="0.23" />
    <path
        d="M165.162 251.888C158.482 242.366 143.941 237.37 132.681 240.719C121.424 244.073 117.708 254.509 124.393 264.024C131.073 273.546 145.615 278.546 156.878 275.194C168.133 271.844 171.846 261.407 165.162 251.888Z"
        fill="black" fill-opacity="0.23" />
    <g clip-path="url(#clip3_1160_5257)">
        <path
            d="M160.146 293.27L141.769 317.446L150.095 324.201L164.518 312.194L160.146 293.27ZM148.937 314.504L156.464 304.601L158.254 312.353L152.349 317.267L148.937 314.504Z"
            fill="#C08924" />
        <path
            d="M148.575 314.386L148.288 314.764L148.505 314.94L151.916 317.703L152.146 317.889L152.545 317.558L158.45 312.644L158.826 312.331L158.758 312.035L156.968 304.283L156.801 303.562L156.102 304.483L148.575 314.386ZM142.418 317.186L159.808 294.309L163.946 312.216L150.298 323.579L142.418 317.186Z"
            stroke="black" stroke-opacity="0.5" />
    </g>
    <g clip-path="url(#clip4_1160_5257)">
        <path
            d="M110.525 278.068L96.1471 283.018L104.722 307.921L119.099 302.97L110.525 278.068ZM102.563 294.715L104.567 284.408L112.492 291.297L110.488 301.604L102.563 294.715Z"
            fill="#C08924" />
        <path
            d="M102.186 294.387L102.09 294.878L102.468 295.206L110.393 302.095L110.77 302.423L110.865 301.932L112.869 291.625L112.964 291.134L112.587 290.806L104.662 283.917L104.285 283.589L104.189 284.08L102.186 294.387ZM104.857 307.227L96.6808 283.482L110.39 278.762L118.565 302.506L104.857 307.227Z"
            stroke="black" stroke-opacity="0.5" />
    </g>
    <g clip-path="url(#clip5_1160_5257)">
        <path
            d="M159.897 256.397L149.567 247.418L134.034 248.675L128.833 258.911L139.163 267.89L154.693 266.634L159.897 256.397ZM132.459 261.227L141.658 253.746L156.475 254.045L147.273 261.527L132.459 261.227Z"
            fill="#C08924" />
        <path
            d="M139.382 267.459L132.687 261.638L147.3 261.934L147.558 261.94L147.721 261.807L156.858 254.378L159.242 256.45L154.258 266.256L139.382 267.459ZM155.995 253.628L141.631 253.339L141.372 253.333L141.209 253.466L132.011 260.946L131.949 260.997L129.488 258.858L134.469 249.054L149.348 247.849L155.995 253.628Z"
            stroke="black" stroke-opacity="0.5" />
    </g>
    <defs>
        <clipPath id="clip0_1160_5257">
            <rect width="33.7425" height="33.7424" fill="white"
                transform="matrix(0.406737 0.913545 -0.681998 0.731354 228.6 269.385)" />
        </clipPath>
        <clipPath id="clip1_1160_5257">
            <rect width="36.4095" height="36.4095" fill="white"
                transform="matrix(-0.987688 -0.156434 -0.309017 -0.951057 198.771 330.846)" />
        </clipPath>
        <clipPath id="clip2_1160_5257">
            <rect width="36.4095" height="36.4095" fill="white"
                transform="matrix(-0.987688 -0.156434 -0.309017 -0.951057 198.771 330.846)" />
        </clipPath>
        <clipPath id="clip3_1160_5257">
            <rect width="36.8613" height="36.8613" fill="white"
                transform="matrix(0.97437 -0.224951 -0.309017 0.951057 142.989 295.285)" />
        </clipPath>
        <clipPath id="clip4_1160_5257">
            <rect width="38.5055" height="38.5055" fill="white"
                transform="matrix(0.75471 0.656059 -0.190809 0.981627 96.66 261.154)" />
        </clipPath>
        <clipPath id="clip5_1160_5257">
            <rect width="37.3153" height="37.3153" fill="white"
                transform="matrix(0.75471 0.656059 -0.87462 0.48481 146.616 236.488)" />
        </clipPath>
    </defs>
</svg>